<svg xmlns="http://www.w3.org/2000/svg" width="3500" height="3437" viewBox="0 0 3500 3437" version="1.1"><path d="M 3298.816 2669.581 C 3289.818 2672.349, 3284.673 2680.089, 3284.721 2690.780 C 3284.776 2702.795, 3292.972 2711.153, 3304.808 2711.264 C 3312.520 2711.337, 3317.285 2709.579, 3321.075 2705.262 C 3325.446 2700.283, 3327.286 2695.480, 3327.303 2689 C 3327.328 2679.066, 3322.295 2672.353, 3312.681 2669.498 C 3306.617 2667.697, 3304.904 2667.707, 3298.816 2669.581 M 157.955 2733.048 C 156.389 2734.725, 154.162 2738.662, 153.007 2741.798 C 151.852 2744.934, 148.266 2754.025, 145.039 2762 C 141.813 2769.975, 135.722 2785.275, 131.505 2796 C 127.288 2806.725, 121.205 2822.025, 117.989 2830 C 114.772 2837.975, 108.693 2853.275, 104.480 2864 C 93.561 2891.792, 82.713 2919.199, 75.981 2936 C 72.785 2943.975, 66.927 2958.600, 62.964 2968.500 C 53.843 2991.281, 51.862 2995.164, 46.355 3001.051 C 40.311 3007.513, 34.501 3010.093, 24.527 3010.743 C 20.112 3011.031, 15.713 3011.672, 14.750 3012.168 C 12.705 3013.223, 12.445 3016.295, 14.274 3017.812 C 15.560 3018.880, 103.567 3019.397, 107.250 3018.359 C 109.638 3017.685, 109.512 3013.344, 107.066 3012.035 C 106.002 3011.466, 102.064 3010.998, 98.316 3010.996 C 86.452 3010.990, 82.437 3006.523, 84.198 2995.290 C 84.976 2990.330, 93.867 2965.011, 104.842 2936.500 L 109.847 2923.500 152.536 2923.500 L 195.225 2923.500 200.083 2936 C 206.273 2951.926, 214.786 2974.627, 221.239 2992.411 C 226.809 3007.762, 226.792 3008.312, 220.660 3011.258 C 216.687 3013.166, 216.067 3014.980, 218.652 3017.128 C 219.987 3018.236, 229.029 3018.560, 265.599 3018.814 C 312.681 3019.140, 315 3018.961, 315 3015 C 315 3012.222, 312.566 3011.336, 303.263 3010.729 C 297.769 3010.370, 293.538 3009.471, 290.558 3008.028 C 283.533 3004.627, 276.017 2995.652, 269.454 2982.829 C 264.052 2972.274, 260.428 2963.796, 247.085 2930.500 C 244.220 2923.350, 239.681 2912.100, 236.998 2905.500 C 234.315 2898.900, 228.237 2883.600, 223.491 2871.500 C 218.745 2859.400, 212.648 2844.100, 209.944 2837.500 C 207.239 2830.900, 203.709 2821.900, 202.099 2817.500 C 200.489 2813.100, 197.519 2805.675, 195.499 2801 C 193.479 2796.325, 190.332 2788.450, 188.505 2783.500 C 184.175 2771.768, 171.790 2741.392, 169.683 2737.338 C 168.026 2734.150, 163.549 2730, 161.766 2730 C 161.236 2730, 159.521 2731.372, 157.955 2733.048 M 800.206 2731.079 C 797.349 2732.186, 795.445 2736.711, 794.558 2744.500 C 794.183 2747.800, 791.667 2764.450, 788.967 2781.500 C 786.268 2798.550, 783.123 2819.250, 781.979 2827.500 C 780.835 2835.750, 777.237 2859.600, 773.982 2880.500 C 770.727 2901.400, 767.574 2922.550, 766.974 2927.500 C 765.581 2938.989, 759.433 2978.041, 757.370 2988.500 C 755.020 3000.416, 751.880 3006.395, 746.645 3008.930 C 744.028 3010.197, 740.383 3011, 737.249 3011 C 734.434 3011, 730.976 3011.439, 729.565 3011.975 C 726.816 3013.020, 726.131 3016.043, 728.250 3017.780 C 729.060 3018.443, 744.738 3018.813, 772.753 3018.828 C 809.848 3018.848, 816.219 3018.638, 817.503 3017.354 C 821.078 3013.779, 818.530 3011.995, 808.402 3010.983 C 796.536 3009.797, 792.627 3008.533, 789.564 3004.894 C 787.439 3002.368, 787 3000.825, 787 2995.882 C 787 2988.924, 791.574 2949.249, 796.497 2913.500 C 802.007 2873.483, 806 2841.896, 806 2838.316 C 806 2836.492, 806.450 2835, 807 2835 C 807.550 2835, 808 2835.524, 808 2836.165 C 808 2836.806, 811.553 2844.793, 815.895 2853.915 C 820.237 2863.037, 826.710 2876.800, 830.278 2884.500 C 847.836 2922.384, 853.438 2933.962, 868.986 2964.500 C 892.726 3011.126, 893.828 3013.178, 896.793 3016.290 C 902.480 3022.259, 904.378 3019.858, 919.994 2986.945 C 926.112 2974.050, 932.854 2959.900, 934.978 2955.500 C 937.102 2951.100, 946.115 2932.200, 955.008 2913.500 C 963.901 2894.800, 973.328 2875, 975.957 2869.500 C 978.586 2864, 983.824 2853.020, 987.597 2845.099 C 995.706 2828.080, 994.484 2826.269, 998.996 2862 C 1000.698 2875.475, 1004.717 2905.400, 1007.928 2928.500 C 1018.570 3005.062, 1018.472 3003.768, 1013.904 3007.940 C 1009.913 3011.586, 1010.367 3014.120, 1015.302 3015.737 C 1019.946 3017.258, 1055.529 3018.978, 1082.639 3018.990 C 1100.377 3018.999, 1103.037 3018.790, 1104.950 3017.241 C 1107.513 3015.166, 1106.907 3012.477, 1103.681 3011.612 C 1102.481 3011.291, 1099.209 3011.021, 1096.410 3011.014 C 1089.210 3010.994, 1076.304 3007.469, 1072.326 3004.435 C 1067.582 3000.817, 1066.260 2998.427, 1064.017 2989.416 C 1062.057 2981.542, 1054.590 2934.853, 1051.476 2911 C 1050.578 2904.125, 1047.415 2882.525, 1044.447 2863 C 1041.479 2843.475, 1037.898 2818.950, 1036.489 2808.500 C 1031.923 2774.625, 1026.043 2738.039, 1024.616 2734.624 C 1023.090 2730.971, 1020.662 2729.841, 1017.140 2731.144 C 1014.985 2731.941, 1007.195 2746.954, 991.529 2780.500 C 989.475 2784.900, 984.077 2796.375, 979.534 2806 C 974.992 2815.625, 970.352 2825.525, 969.224 2828 C 968.096 2830.475, 963.272 2840.600, 958.505 2850.500 C 953.738 2860.400, 948.926 2870.525, 947.812 2873 C 946.002 2877.021, 942.004 2885.482, 923.478 2924.500 C 920.605 2930.550, 917.011 2938.313, 915.491 2941.750 C 913.971 2945.188, 912.413 2948, 912.030 2948 C 911.436 2948, 893.218 2910.645, 864.237 2850 C 860.164 2841.475, 854.431 2829.550, 851.500 2823.500 C 848.568 2817.450, 843.817 2807.550, 840.943 2801.500 C 810.808 2738.062, 808.759 2734.123, 804.500 2731.447 C 803.167 2730.609, 801.735 2730.487, 800.206 2731.079 M 2517 2734.084 C 2501.983 2735.415, 2485.793 2740.029, 2476.115 2745.735 C 2468.163 2750.424, 2457.473 2760.210, 2452.673 2767.197 C 2450.669 2770.114, 2447.609 2776.325, 2445.873 2781 C 2443.241 2788.090, 2442.637 2791.349, 2442.237 2800.641 C 2441.655 2814.150, 2442.964 2822.394, 2447.600 2834.398 C 2454.976 2853.495, 2470.229 2871.309, 2498.500 2893.843 C 2520.921 2911.714, 2527.942 2917.984, 2534.475 2925.970 C 2544.891 2938.700, 2548.536 2949.384, 2547.828 2965.101 C 2547.297 2976.899, 2544.422 2983.708, 2536.722 2991.409 C 2530.326 2997.805, 2525.438 3000.458, 2515.259 3003.062 C 2505.453 3005.569, 2494.961 3005.520, 2483.857 3002.913 C 2462.326 2997.858, 2449.248 2981.286, 2445.854 2954.757 C 2444.586 2944.842, 2443.810 2943, 2440.901 2943 C 2436.559 2943, 2435.981 2946.193, 2434.767 2976.871 C 2433.359 3012.434, 2433.043 3011.166, 2444.499 3015.935 C 2460.816 3022.728, 2464.840 3023.346, 2493 3023.388 C 2522.232 3023.431, 2526.472 3022.694, 2543.587 3014.586 C 2569.497 3002.312, 2584.599 2981.411, 2588.047 2953.053 C 2589.918 2937.661, 2586.361 2917.625, 2579.249 2903.500 C 2574.823 2894.709, 2565.266 2882.568, 2554.736 2872.357 C 2544.401 2862.336, 2541.112 2859.593, 2517.421 2841.236 C 2487.337 2817.924, 2479.268 2806.203, 2480.179 2787.140 C 2480.837 2773.375, 2486.124 2764.700, 2498.150 2757.652 C 2505.401 2753.403, 2514.058 2751.690, 2525.494 2752.244 C 2536.761 2752.789, 2543.083 2754.780, 2551.685 2760.491 C 2561.707 2767.145, 2571 2783.110, 2571 2793.671 C 2571 2795.574, 2571.466 2798.002, 2572.035 2799.066 C 2573.332 2801.488, 2577.615 2801.604, 2578.840 2799.250 C 2579.341 2798.287, 2580.045 2787.825, 2580.404 2776 C 2580.764 2764.175, 2581.301 2752.250, 2581.597 2749.500 C 2582.372 2742.306, 2581.193 2741.234, 2569.443 2738.453 C 2552.694 2734.488, 2531.942 2732.759, 2517 2734.084 M 1423.228 2735.250 C 1421.260 2737.670, 1413.011 2777.482, 1413.003 2784.595 C 1412.999 2788.759, 1416.050 2791.579, 1418.905 2790.051 C 1420.044 2789.441, 1421.264 2787.718, 1421.616 2786.221 C 1422.745 2781.415, 1428.216 2772.018, 1431.631 2769.019 C 1433.454 2767.419, 1436.645 2765.630, 1438.723 2765.044 C 1443.432 2763.715, 1465.662 2762.319, 1494.813 2761.522 L 1517.125 2760.911 1516.725 2872.206 C 1516.308 2987.981, 1516.115 2993.341, 1512.017 3002.666 C 1509.442 3008.527, 1506.771 3009.902, 1496.033 3010.893 C 1490.047 3011.445, 1486.466 3012.234, 1485.902 3013.124 C 1484.698 3015.024, 1484.779 3015.636, 1486.456 3017.313 C 1488.680 3019.537, 1601.278 3019.579, 1603.501 3017.356 C 1607.298 3013.559, 1603.860 3011.801, 1590.789 3010.856 C 1577.545 3009.899, 1573.870 3008.822, 1570.606 3004.943 C 1564.862 2998.117, 1564.054 2980.103, 1564.024 2858.184 L 1564 2760.867 1588.250 2761.494 C 1626.852 2762.491, 1637.770 2764.347, 1645.633 2771.251 C 1650.153 2775.220, 1651.576 2778.206, 1652.392 2785.434 C 1653.123 2791.917, 1654.265 2794, 1657.087 2794 C 1660.585 2794, 1661.132 2790.476, 1661.723 2764.176 C 1662.411 2733.576, 1662.856 2734.829, 1652.289 2737.598 C 1646.077 2739.225, 1637.803 2739.408, 1555 2739.750 C 1458.694 2740.146, 1441.425 2739.609, 1433.170 2735.957 C 1428.076 2733.704, 1424.682 2733.462, 1423.228 2735.250 M 1333.414 2736.952 C 1326.447 2739.833, 1310.501 2740.302, 1238.829 2739.737 C 1161.301 2739.126, 1161.942 2739.091, 1163.444 2743.824 C 1164.242 2746.339, 1165.519 2746.679, 1176.935 2747.419 C 1188.473 2748.167, 1193.629 2750.757, 1197 2757.500 L 1199.500 2762.500 1199.500 2872 C 1199.500 2987.156, 1199.303 2992.893, 1195.015 3002.666 C 1192.497 3008.404, 1189.786 3009.847, 1179.582 3010.882 C 1169.388 3011.915, 1167.111 3013.285, 1169.624 3016.873 L 1171.240 3019.181 1204.870 3018.841 C 1223.367 3018.653, 1258.245 3019.100, 1282.379 3019.833 C 1306.512 3020.567, 1328.894 3020.861, 1332.117 3020.486 C 1342.622 3019.267, 1344.668 3015.719, 1347.392 2994 C 1350.905 2965.985, 1350.598 2961.564, 1345.183 2962.190 C 1342.946 2962.449, 1342.359 2963.164, 1341.651 2966.500 C 1335.963 2993.294, 1327.310 2998.954, 1292 2998.975 C 1261.116 2998.993, 1253.435 2995.957, 1249.294 2982.092 C 1247.819 2977.156, 1247.649 2970.868, 1247.844 2928.517 C 1247.966 2902.127, 1248.425 2880.175, 1248.864 2879.736 C 1249.304 2879.296, 1262.292 2879.325, 1277.727 2879.799 C 1305.506 2880.654, 1305.847 2880.691, 1311.418 2883.416 C 1318.447 2886.855, 1320.622 2890.728, 1321.890 2902.065 C 1322.762 2909.854, 1323.761 2911.946, 1326.628 2911.985 C 1329.268 2912.021, 1330.051 2908.219, 1331.481 2888.415 C 1332.311 2876.912, 1333.494 2864.019, 1334.108 2859.765 C 1334.723 2855.511, 1334.964 2851.349, 1334.644 2850.515 C 1333.732 2848.138, 1329.589 2848.739, 1326.924 2851.636 C 1325.591 2853.086, 1322.475 2855.190, 1320 2856.312 C 1315.930 2858.157, 1312.412 2858.439, 1283.203 2859.265 C 1265.439 2859.767, 1250.252 2859.927, 1249.453 2859.620 C 1248.209 2859.143, 1248 2851.921, 1248 2809.531 L 1248 2760 1258.750 2760.043 C 1280.359 2760.129, 1307.412 2761.842, 1312.703 2763.459 C 1322.545 2766.468, 1326.127 2771.568, 1327.477 2784.500 C 1328.209 2791.512, 1329.015 2792.956, 1332.215 2792.985 C 1335.300 2793.012, 1336.163 2789.072, 1337.765 2767.644 C 1339.976 2738.052, 1339.964 2736.548, 1337.500 2736.295 C 1336.400 2736.182, 1334.561 2736.477, 1333.414 2736.952 M 2323 2737.861 C 2318.104 2739.320, 2308.768 2739.500, 2238 2739.500 C 2194.275 2739.500, 2157.938 2739.864, 2157.250 2740.309 C 2155.425 2741.490, 2155.723 2744.787, 2157.750 2745.834 C 2158.713 2746.331, 2163.325 2746.995, 2168 2747.309 C 2178.748 2748.032, 2183.622 2749.469, 2187.090 2752.936 C 2192.636 2758.482, 2192.501 2755.457, 2192.493 2873.500 C 2192.487 2973.063, 2192.334 2983.351, 2190.729 2992.327 C 2187.893 3008.187, 2186.449 3009.655, 2172.404 3010.947 C 2163.374 3011.778, 2162 3012.305, 2162 3014.937 C 2162 3019.040, 2163.438 3019.195, 2198.211 3018.840 C 2216.520 3018.653, 2251.245 3019.100, 2275.379 3019.833 C 2299.512 3020.567, 2321.894 3020.861, 2325.117 3020.486 C 2332.146 3019.671, 2335.587 3017.258, 2336.940 3012.196 C 2339.863 3001.268, 2343.316 2969.829, 2342.095 2965.263 C 2341.503 2963.051, 2340.778 2962.500, 2338.456 2962.500 C 2335.650 2962.500, 2335.485 2962.780, 2333.338 2971.173 C 2327.220 2995.089, 2318.252 2999.701, 2279.668 2998.773 C 2258.356 2998.260, 2252.061 2996.804, 2246.627 2991.133 C 2241.212 2985.480, 2241 2983.152, 2241 2929.310 C 2241 2890.242, 2241.266 2879.835, 2242.274 2879.448 C 2242.974 2879.180, 2256.019 2879.344, 2271.261 2879.815 L 2298.974 2880.670 2304.646 2883.585 C 2311.659 2887.189, 2313.697 2890.754, 2314.603 2901.003 C 2315.249 2908.318, 2316.900 2912, 2319.533 2912 C 2322.129 2912, 2322.793 2908.913, 2323.942 2891.500 C 2324.595 2881.600, 2325.785 2868.411, 2326.587 2862.190 C 2327.388 2855.970, 2327.783 2850.457, 2327.463 2849.940 C 2326.340 2848.124, 2322.324 2849.027, 2319.924 2851.636 C 2318.591 2853.086, 2315.475 2855.190, 2313 2856.312 C 2308.930 2858.157, 2305.412 2858.439, 2276.203 2859.265 C 2258.439 2859.767, 2243.252 2859.927, 2242.453 2859.620 C 2241.209 2859.143, 2241 2851.905, 2241 2809.400 L 2241 2759.738 2266.750 2760.422 C 2297.507 2761.240, 2308.024 2762.747, 2313.292 2767.089 C 2317.275 2770.372, 2319.480 2775.943, 2320.580 2785.500 C 2321.280 2791.585, 2322.130 2792.957, 2325.215 2792.985 C 2328.202 2793.011, 2329.028 2789.480, 2330.531 2770.269 C 2331.338 2759.961, 2332.472 2748.913, 2333.051 2745.717 C 2334.875 2735.661, 2333.634 2734.691, 2323 2737.861 M 2841 2737.861 C 2836.104 2739.320, 2826.768 2739.500, 2756 2739.500 C 2712.275 2739.500, 2675.938 2739.864, 2675.250 2740.309 C 2673.664 2741.335, 2673.638 2744.238, 2675.200 2745.800 C 2675.885 2746.485, 2679.209 2747.007, 2682.950 2747.016 C 2690.557 2747.034, 2699.831 2749.004, 2703.441 2751.369 C 2708.240 2754.514, 2709.202 2758.143, 2710.221 2776.962 C 2711.553 2801.569, 2710.568 2977.654, 2709.029 2989.940 C 2707.739 3000.240, 2705.376 3006.052, 2701.428 3008.639 C 2699.839 3009.680, 2695.988 3010.486, 2691.190 3010.780 C 2682.521 3011.312, 2680 3012.243, 2680 3014.913 C 2680 3019.152, 2681.602 3019.349, 2710.290 3018.628 C 2725.651 3018.242, 2747.734 3018.396, 2761 3018.981 C 2773.925 3019.551, 2798.690 3020.126, 2816.033 3020.259 C 2845.127 3020.481, 2847.782 3020.359, 2850.366 3018.672 C 2851.907 3017.667, 2853.759 3015.417, 2854.483 3013.672 C 2856.310 3009.266, 2860.172 2976.810, 2859.803 2968.957 C 2859.501 2962.517, 2859.492 2962.500, 2856.500 2962.500 C 2853.799 2962.500, 2853.374 2962.948, 2852.233 2967 C 2846.887 2985.989, 2844.327 2990.240, 2835.730 2994.408 C 2832.853 2995.802, 2827.158 2997.453, 2823.073 2998.076 C 2814.109 2999.443, 2780.138 2998.766, 2774.882 2997.115 C 2766.768 2994.567, 2761.308 2988.996, 2759.929 2981.858 C 2759.466 2979.461, 2759.068 2955.334, 2759.044 2928.241 L 2759 2878.983 2783.750 2879.544 C 2811.775 2880.179, 2819.253 2881.127, 2824.850 2884.756 C 2829.958 2888.068, 2831.800 2892.160, 2832.622 2902.025 C 2833.155 2908.414, 2833.679 2910.293, 2835.147 2911.079 C 2836.379 2911.738, 2837.637 2911.729, 2838.903 2911.052 C 2840.525 2910.184, 2840.898 2908.446, 2841.431 2899.267 C 2842.069 2888.304, 2843.488 2869.328, 2844.647 2856.250 L 2845.290 2849 2842.175 2849 C 2839.884 2849, 2838.482 2849.782, 2836.877 2851.953 C 2832.661 2857.655, 2829.647 2858.169, 2794.229 2859.231 C 2776.479 2859.762, 2761.292 2859.942, 2760.479 2859.630 C 2759.201 2859.140, 2759 2852.304, 2759 2809.404 L 2759 2759.746 2785.250 2760.463 C 2812.328 2761.203, 2823.831 2762.579, 2829.362 2765.740 C 2833.579 2768.150, 2837.052 2775.409, 2837.726 2783.221 C 2838.369 2790.673, 2839.389 2793, 2842.012 2793 C 2845.713 2793, 2846.811 2789.227, 2847.979 2772.500 C 2848.594 2763.700, 2849.721 2752.524, 2850.484 2747.664 C 2851.247 2742.804, 2851.627 2738.191, 2851.328 2737.414 C 2850.652 2735.650, 2848.036 2735.763, 2841 2737.861 M 353.533 2740.241 C 351.390 2741.441, 351.620 2744.726, 353.934 2745.965 C 354.998 2746.534, 358.486 2747.007, 361.684 2747.016 C 369.076 2747.035, 378.484 2749.232, 381.874 2751.729 C 383.351 2752.817, 385.375 2756.035, 386.500 2759.082 C 388.455 2764.379, 388.499 2766.926, 388.464 2873 C 388.432 2970.634, 388.257 2982.544, 386.714 2991.925 C 384.255 3006.886, 381.739 3009.843, 370.786 3010.642 C 360.743 3011.374, 358.233 3011.950, 357.572 3013.672 C 357.231 3014.561, 357.661 3016.073, 358.527 3017.030 C 359.988 3018.645, 364.214 3018.774, 416.757 3018.811 C 451.133 3018.835, 474.117 3018.473, 475.206 3017.890 C 477.734 3016.537, 477.465 3013.122, 474.750 3012.119 C 473.512 3011.662, 467.672 3011.024, 461.772 3010.701 C 446.436 3009.863, 441.847 3007.192, 439.088 2997.500 C 437.178 2990.791, 435.915 2954.517, 436.215 2915 L 436.500 2877.500 507.500 2877.500 L 578.500 2877.500 578.794 2916.500 C 579.093 2956.100, 577.976 2987.275, 575.908 2997.086 C 573.643 3007.828, 571.191 3009.770, 558.404 3010.947 C 553.950 3011.357, 549.788 3012.013, 549.154 3012.405 C 547.625 3013.350, 547.682 3016.496, 549.250 3017.772 C 550.910 3019.121, 662.688 3019.237, 665.202 3017.892 C 667.734 3016.537, 667.467 3013.123, 664.750 3012.120 C 663.513 3011.664, 657.622 3011.002, 651.660 3010.649 C 636.267 3009.739, 631.851 3007.167, 629.081 2997.500 C 627.098 2990.581, 626.076 2946.144, 626.089 2867.500 C 626.103 2784.809, 626.771 2761.752, 629.328 2755.709 C 631.407 2750.796, 637.384 2748.044, 647.662 2747.266 C 656.615 2746.589, 659.386 2744.740, 657.029 2741.013 C 656.218 2739.729, 648.555 2739.512, 600.795 2739.419 C 570.383 2739.360, 544.712 2739.708, 543.750 2740.191 C 542.788 2740.675, 542 2741.939, 542 2743 C 542 2745.792, 544.435 2746.666, 554 2747.309 C 568.787 2748.303, 574.703 2751.372, 576.989 2759.233 C 577.861 2762.234, 578.375 2777.228, 578.720 2809.757 L 579.211 2856.013 507.855 2855.757 L 436.500 2855.500 436.598 2809.500 C 436.688 2767.030, 436.841 2763.078, 438.598 2758 C 440.277 2753.144, 441.048 2752.228, 445.179 2750.178 C 448.262 2748.648, 452.467 2747.659, 457.508 2747.278 C 466.606 2746.590, 469.398 2744.759, 467.038 2741.027 C 466.237 2739.761, 458.330 2739.542, 410.586 2739.469 C 380.050 2739.422, 354.376 2739.770, 353.533 2740.241 M 1834.227 2740.576 C 1832.384 2741.923, 1833.414 2745.708, 1835.801 2746.365 C 1836.736 2746.622, 1839.556 2747.110, 1842.068 2747.450 C 1853.308 2748.971, 1865.433 2758.446, 1876.685 2774.500 C 1891.197 2795.207, 1939.811 2875.911, 1945.115 2888.101 C 1951.423 2902.597, 1952.004 2907.477, 1951.973 2945.708 C 1951.942 2984.447, 1951.126 2996.043, 1947.973 3002.556 C 1945.191 3008.303, 1941.858 3010.001, 1931.513 3010.944 C 1927 3011.356, 1922.788 3012.013, 1922.154 3012.405 C 1920.625 3013.350, 1920.682 3016.496, 1922.250 3017.772 C 1923.910 3019.121, 2035.688 3019.237, 2038.202 3017.892 C 2040.734 3016.537, 2040.467 3013.123, 2037.750 3012.120 C 2036.513 3011.663, 2030.819 3011.014, 2025.097 3010.677 C 2017.130 3010.208, 2013.631 3009.531, 2010.150 3007.783 C 2001.027 3003.201, 2000.067 2997.079, 2000.027 2943.208 C 1999.997 2902.939, 2000.572 2897.541, 2006.267 2884.598 C 2012.202 2871.109, 2036.758 2828.623, 2059.230 2792.961 C 2071.900 2772.854, 2074.962 2768.696, 2083.635 2759.824 C 2090.866 2752.428, 2099.086 2748.293, 2108.432 2747.352 C 2111.219 2747.072, 2114.512 2746.352, 2115.750 2745.752 C 2118.211 2744.560, 2118.722 2741.783, 2116.750 2740.313 C 2116.021 2739.770, 2098.040 2739.407, 2073.607 2739.443 C 2035.668 2739.500, 2031.616 2739.662, 2030.665 2741.169 C 2029.155 2743.564, 2031.175 2745.565, 2037.086 2747.529 C 2043.171 2749.550, 2044.403 2751.662, 2043.728 2758.916 C 2043.059 2766.108, 2038.766 2776.761, 2031.105 2790.244 C 2027.747 2796.153, 2025 2801.172, 2025 2801.398 C 2025 2801.623, 2023.364 2804.664, 2021.365 2808.154 C 2019.365 2811.644, 2014.908 2819.675, 2011.460 2826 C 1992.161 2861.402, 1986.115 2872.285, 1985.284 2873.116 C 1984.718 2873.682, 1983.810 2872.965, 1982.943 2871.270 C 1982.164 2869.747, 1978.553 2863.325, 1974.919 2857 C 1962.291 2835.022, 1952.249 2817.434, 1945.800 2806 C 1942.233 2799.675, 1937.013 2790.425, 1934.200 2785.445 C 1927.130 2772.928, 1920.388 2759.090, 1919.601 2755.481 C 1918.702 2751.360, 1920.704 2748.938, 1926.641 2746.959 C 1930.659 2745.620, 1931.555 2744.878, 1931.816 2742.670 C 1932.013 2741.013, 1931.633 2739.950, 1930.816 2739.868 C 1930.092 2739.795, 1908.395 2739.683, 1882.599 2739.618 C 1850.519 2739.537, 1835.233 2739.840, 1834.227 2740.576 M 2902.835 2739.774 C 2900.862 2740.177, 2899.832 2742.399, 2900.642 2744.509 C 2901.305 2746.238, 2902.921 2746.652, 2912.142 2747.455 C 2920.297 2748.165, 2928.830 2751.006, 2933.492 2754.562 C 2939.899 2759.448, 2942.979 2765.705, 2962.014 2812.500 C 2966.489 2823.500, 2972.563 2838.350, 2975.514 2845.500 C 2978.464 2852.650, 2982.224 2861.875, 2983.869 2866 C 2985.514 2870.125, 2990.763 2882.950, 2995.533 2894.500 C 3003.372 2913.482, 3009.909 2929.461, 3020.487 2955.500 C 3022.498 2960.450, 3026.564 2970.350, 3029.523 2977.500 C 3032.481 2984.650, 3036.761 2995.225, 3039.034 3001 C 3044.814 3015.685, 3048.818 3022.916, 3051.547 3023.601 C 3056.548 3024.856, 3058.241 3023.724, 3062.165 3016.500 C 3065.980 3009.476, 3067.451 3006.206, 3082.190 2972 C 3086.574 2961.825, 3092.399 2948.462, 3095.134 2942.304 C 3097.869 2936.147, 3101.159 2928.497, 3102.446 2925.304 C 3103.733 2922.112, 3108.711 2910.500, 3113.507 2899.500 C 3118.304 2888.500, 3124.574 2874.100, 3127.441 2867.500 C 3130.307 2860.900, 3135.147 2850.100, 3138.196 2843.500 C 3145.578 2827.522, 3153.241 2810.148, 3162.016 2789.500 C 3171.083 2768.162, 3173.283 2763.755, 3178.055 2757.366 C 3182.924 2750.847, 3188.445 2748.088, 3198.172 2747.313 C 3206.026 2746.687, 3208 2745.807, 3208 2742.937 C 3208 2741.936, 3207.438 2740.765, 3206.750 2740.333 C 3205.051 2739.266, 3121.077 2739.054, 3118.250 2740.110 C 3115.801 2741.025, 3115.245 2744.157, 3117.250 2745.745 C 3117.938 2746.290, 3122.169 2746.975, 3126.653 2747.267 C 3131.137 2747.559, 3136.087 2748.409, 3137.653 2749.157 C 3143.809 2752.095, 3142.245 2758.678, 3124.857 2803 C 3121.512 2811.525, 3115.421 2827.050, 3111.320 2837.500 C 3107.220 2847.950, 3101.663 2861.900, 3098.973 2868.500 C 3096.282 2875.100, 3093.010 2883.425, 3091.701 2887 C 3090.392 2890.575, 3086.529 2900.475, 3083.115 2909 C 3079.701 2917.525, 3074.566 2930.456, 3071.704 2937.736 C 3068.842 2945.016, 3066.223 2950.979, 3065.884 2950.986 C 3065.545 2950.994, 3064.288 2948.188, 3063.091 2944.750 C 3061.893 2941.313, 3058.864 2933.100, 3056.358 2926.500 C 3053.852 2919.900, 3048.942 2906.850, 3045.446 2897.500 C 3041.951 2888.150, 3037.480 2876.225, 3035.511 2871 C 3033.542 2865.775, 3029.405 2854.750, 3026.317 2846.500 C 3023.228 2838.250, 3018.038 2824.525, 3014.783 2816 C 3005.243 2791.017, 2996.078 2765.308, 2995.007 2760.530 C 2993.054 2751.815, 2996.848 2748.015, 3008.282 2747.237 C 3015.997 2746.712, 3018 2745.825, 3018 2742.937 C 3018 2741.936, 3017.438 2740.763, 3016.750 2740.329 C 3015.568 2739.584, 2906.372 2739.051, 2902.835 2739.774 M 3251.481 2740.270 C 3249.559 2741.346, 3249.596 2743.453, 3251.571 2745.429 C 3252.571 2746.428, 3254.920 2747, 3258.022 2747 C 3272.043 2747, 3278.776 2751.234, 3281.134 2761.534 C 3283.052 2769.911, 3283.048 2974.391, 3281.130 2989.500 C 3278.952 3006.654, 3276.396 3009.568, 3262.396 3010.859 C 3257.391 3011.321, 3252.779 3012.018, 3252.148 3012.409 C 3250.407 3013.484, 3250.775 3016.811, 3252.750 3017.853 C 3255.142 3019.115, 3365.843 3019.155, 3368.198 3017.894 C 3370.733 3016.537, 3370.468 3013.124, 3367.750 3012.119 C 3366.512 3011.662, 3360.628 3011.021, 3354.672 3010.695 C 3336.587 3009.706, 3332.983 3006.765, 3330.944 2991.325 C 3330.270 2986.221, 3330.013 2944.729, 3330.205 2872 C 3330.489 2764.815, 3330.574 2760.331, 3332.409 2756.123 C 3334.813 2750.613, 3339.664 2748.257, 3350.487 2747.342 C 3359.623 2746.569, 3362.384 2744.737, 3360.028 2741.011 C 3359.214 2739.723, 3351.902 2739.516, 3306.024 2739.481 C 3276.840 2739.459, 3252.296 2739.814, 3251.481 2740.270 M 149.285 2817.250 C 147.578 2822.338, 143.920 2832.350, 141.157 2839.500 C 134.205 2857.494, 120.141 2895.609, 118.558 2900.750 L 117.865 2903 152.433 2903 C 171.445 2903, 187 2902.725, 187 2902.390 C 187 2900.787, 175.052 2867.259, 159.941 2826.458 C 156.674 2817.635, 154 2809.873, 154 2809.208 C 154 2805.697, 152.042 2809.036, 149.285 2817.250 M 1050.500 3079.368 C 1044.462 3082.204, 1042.529 3084.250, 1040.526 3089.925 C 1037.030 3099.835, 1039.734 3111.407, 1046.806 3116.802 C 1051.666 3120.508, 1063.639 3121.246, 1069.596 3118.205 C 1076.232 3114.818, 1079.824 3109.133, 1080.694 3100.637 C 1081.745 3090.377, 1078.062 3083.335, 1069.579 3079.384 C 1063.046 3076.343, 1056.952 3076.337, 1050.500 3079.368 M 2171.491 3078.865 C 2160.078 3084.050, 2155.869 3098.498, 2162.193 3110.787 C 2165.400 3117.019, 2171.031 3120, 2179.592 3120 C 2183.045 3120, 2187.137 3119.521, 2188.685 3118.936 C 2192.687 3117.424, 2196.949 3113.156, 2199.104 3108.500 C 2201.339 3103.672, 2201.610 3093.361, 2199.623 3088.718 C 2195.508 3079.100, 2181.655 3074.248, 2171.491 3078.865 M 3017.685 3077.957 C 3009.088 3080.720, 3003.692 3088.797, 3003.575 3099.077 C 3003.511 3104.720, 3003.926 3106.341, 3006.500 3110.481 C 3011.184 3118.016, 3013.760 3119.446, 3023.323 3119.818 C 3030.945 3120.115, 3031.813 3119.936, 3036.103 3117.183 C 3049.059 3108.872, 3049.428 3088.507, 3036.765 3080.664 C 3031.765 3077.566, 3022.841 3076.301, 3017.685 3077.957 M 514.395 3085.081 C 504.541 3087.940, 499.689 3101.590, 504.897 3111.799 C 508.200 3118.273, 511.960 3120.172, 520.702 3119.785 C 527.097 3119.502, 528.260 3119.132, 531.078 3116.483 C 537.052 3110.869, 539.489 3102.059, 536.933 3095.315 C 533.754 3086.924, 523.731 3082.373, 514.395 3085.081 M 434.149 3086.642 C 428.684 3089.424, 425.499 3095.240, 425.505 3102.427 C 425.511 3109.544, 427.816 3114.286, 432.952 3117.747 C 437.690 3120.939, 447.326 3120.929, 452.078 3117.726 C 462.581 3110.648, 463.712 3095.458, 454.271 3088.258 C 449.709 3084.778, 439.433 3083.953, 434.149 3086.642 M 686.203 3142.256 C 685.630 3142.946, 684.900 3144.634, 684.581 3146.006 C 684.262 3147.378, 683.093 3203.781, 681.983 3271.347 C 680.873 3338.912, 679.522 3397.320, 678.980 3401.142 C 677.680 3410.307, 674.858 3415.744, 670.443 3417.588 C 668.552 3418.379, 663.516 3419.273, 659.252 3419.577 C 649.007 3420.305, 647.331 3420.695, 646.633 3422.514 C 646.310 3423.356, 646.862 3424.862, 647.860 3425.860 C 649.561 3427.561, 652.683 3427.679, 697.587 3427.733 C 737.303 3427.781, 745.885 3427.548, 747.750 3426.372 C 750.409 3424.696, 750.551 3423.694, 748.429 3421.571 C 747.343 3420.486, 744.945 3419.995, 740.679 3419.984 C 719.737 3419.931, 714.269 3413.533, 712.061 3386.500 C 711.038 3373.971, 707.500 3227, 708.173 3224.982 C 708.385 3224.346, 713.942 3229.827, 720.522 3237.163 C 753.361 3273.770, 767.282 3288.224, 846.225 3367.672 C 911.038 3432.898, 913.620 3435.220, 917.643 3431.881 C 918.504 3431.167, 919.575 3429.618, 920.023 3428.439 C 920.471 3427.260, 921.562 3384.717, 922.447 3333.898 C 924.863 3195.161, 925.514 3173.490, 927.454 3167.236 C 929.684 3160.042, 934.278 3156.956, 943.720 3156.311 C 947.449 3156.056, 951.737 3155.377, 953.250 3154.802 C 956.149 3153.701, 956.887 3150.962, 954.750 3149.235 C 953.949 3148.588, 936.528 3148.216, 906.233 3148.200 C 865.792 3148.179, 858.753 3148.390, 857.485 3149.657 C 856.383 3150.760, 856.266 3151.629, 857.031 3153.058 C 858.265 3155.363, 859.941 3155.753, 871.048 3156.318 C 879.498 3156.749, 886.056 3158.923, 888.715 3162.177 C 891.229 3165.254, 893.173 3175.044, 893.644 3187 C 894.361 3205.218, 897.865 3355.455, 897.579 3355.748 C 897.446 3355.885, 887.927 3345.985, 876.426 3333.748 C 851.799 3307.546, 836.619 3291.772, 802.021 3256.429 C 769.940 3223.656, 743.320 3195.862, 716.175 3166.797 C 704.513 3154.310, 693.978 3143.397, 692.763 3142.547 C 690.090 3140.674, 687.607 3140.564, 686.203 3142.256 M 1994.500 3143.069 C 1958.696 3147.989, 1934.202 3167.014, 1926.312 3196.032 C 1925.128 3200.385, 1924.556 3206.096, 1924.562 3213.500 C 1924.590 3248.004, 1941.864 3273.132, 1991.885 3311.436 C 2020.648 3333.460, 2032.270 3352.433, 2030.673 3374.754 C 2029.422 3392.230, 2016.981 3406.954, 1999.500 3411.648 C 1986.145 3415.233, 1967.338 3413.846, 1956.337 3408.464 C 1947.514 3404.147, 1939.834 3396.258, 1935.045 3386.591 C 1931.161 3378.750, 1929.699 3373.282, 1927.270 3357.500 C 1926.577 3353.002, 1926.221 3352.468, 1923.728 3352.181 C 1918.940 3351.631, 1918.203 3355.333, 1917.068 3385.629 C 1916.491 3401.038, 1916.430 3414.100, 1916.925 3416.250 C 1917.401 3418.313, 1917.499 3419.992, 1917.145 3419.983 C 1913.220 3419.877, 1901.800 3416.434, 1895.801 3413.548 C 1880.243 3406.063, 1866.469 3392.133, 1831.932 3348.958 C 1822.894 3337.660, 1812.575 3324.670, 1809 3320.092 C 1805.425 3315.513, 1799.956 3308.609, 1796.846 3304.748 L 1791.193 3297.728 1795.846 3293.723 C 1810.084 3281.468, 1823.863 3265.195, 1829.532 3253.936 C 1836.101 3240.891, 1838.236 3232.803, 1838.751 3219 C 1839.295 3204.407, 1838.090 3198.438, 1832.021 3185.664 C 1824.895 3170.665, 1811.568 3159.439, 1793.940 3153.588 C 1779.366 3148.750, 1768.995 3148.141, 1701.500 3148.160 C 1667.400 3148.170, 1638.713 3148.394, 1637.750 3148.657 C 1636.703 3148.943, 1636 3150.098, 1636 3151.532 C 1636 3154.875, 1638.139 3155.668, 1648.704 3156.243 C 1660.457 3156.882, 1666.547 3159.593, 1669.500 3165.500 C 1671.465 3169.429, 1671.500 3171.500, 1671.500 3282.500 C 1671.500 3401.954, 1671.349 3406.277, 1666.917 3413.578 C 1664.424 3417.686, 1661.258 3418.966, 1651.777 3419.697 C 1642.356 3420.423, 1639.582 3422.208, 1641.979 3426 C 1642.801 3427.301, 1650.204 3427.518, 1697.713 3427.637 C 1745.783 3427.757, 1752.715 3427.585, 1754.250 3426.232 C 1756.295 3424.430, 1756.509 3422.433, 1754.773 3421.360 C 1754.098 3420.942, 1748.326 3420.068, 1741.946 3419.416 C 1735.217 3418.728, 1728.977 3417.522, 1727.085 3416.544 C 1719.548 3412.646, 1718 3401.205, 1718 3349.394 C 1718 3320.991, 1718.274 3312.981, 1719.250 3312.914 C 1725.984 3312.452, 1753.839 3313.378, 1755.206 3314.110 C 1757.084 3315.115, 1760.311 3319.308, 1771.667 3335.500 C 1785.256 3354.876, 1801.389 3377.534, 1803.707 3380.500 C 1822.149 3404.098, 1834.570 3416.430, 1844.732 3421.228 C 1856.856 3426.954, 1859.052 3427.258, 1891.791 3427.735 C 1918.678 3428.127, 1922.363 3427.992, 1924.588 3426.534 C 1926.932 3424.998, 1927.432 3425.017, 1932.297 3426.830 C 1944.937 3431.538, 1952.349 3432.500, 1976 3432.500 C 1996.487 3432.500, 1999.304 3432.288, 2007.480 3430.128 C 2026.155 3425.194, 2039.497 3417.637, 2050.726 3405.633 C 2065.200 3390.161, 2071.871 3370.780, 2070.709 3347.581 C 2069.550 3324.451, 2061.279 3306.457, 2042.465 3286.136 C 2036.582 3279.781, 2022.098 3266.992, 2013.899 3260.912 C 1986.916 3240.903, 1971.368 3226.362, 1966.755 3216.824 C 1963.164 3209.396, 1961.632 3201.951, 1962.278 3195.066 C 1964.274 3173.805, 1980.315 3161, 2004.953 3161 C 2022.571 3161, 2034.821 3166.695, 2044.342 3179.309 C 2049.548 3186.207, 2051.927 3191.986, 2052.965 3200.249 C 2053.877 3207.513, 2055.161 3210, 2058 3210 C 2060.898 3210, 2062.209 3207.361, 2062.592 3200.760 C 2063.444 3186.103, 2063.769 3152.244, 2063.069 3151.112 C 2062.147 3149.620, 2050.752 3146.545, 2038.500 3144.483 C 2027.117 3142.566, 2003.649 3141.812, 1994.500 3143.069 M 2251.537 3144.303 C 2248.467 3148.988, 2241.581 3185.672, 2242.186 3194.117 C 2242.480 3198.226, 2242.698 3198.519, 2245.657 3198.806 C 2248.655 3199.097, 2248.920 3198.831, 2250.910 3193.510 C 2253.896 3185.531, 2256.447 3180.834, 2259.181 3178.284 C 2264.891 3172.958, 2276.252 3171.462, 2318.250 3170.506 L 2345 3169.897 2344.991 3271.699 C 2344.981 3392.380, 2344.264 3407.968, 2338.404 3414.932 C 2335.742 3418.095, 2329.401 3420, 2321.533 3420 C 2319.130 3420, 2316.452 3420.273, 2315.582 3420.607 C 2313.701 3421.329, 2313.471 3425.544, 2315.250 3426.679 C 2317.021 3427.808, 2429.099 3427.967, 2431.250 3426.844 C 2432.213 3426.341, 2433 3425.061, 2433 3424 C 2433 3421.138, 2430.558 3420.343, 2419.500 3419.603 C 2414 3419.234, 2407.854 3418.492, 2405.841 3417.953 C 2400.790 3416.599, 2396.456 3411.355, 2395.078 3404.929 C 2392.800 3394.307, 2392.027 3359.163, 2392.014 3265.637 L 2392 3169.774 2417.750 3170.446 C 2431.912 3170.815, 2446.970 3171.560, 2451.211 3172.101 C 2471.053 3174.632, 2479.013 3180.281, 2480.317 3192.758 C 2480.656 3196.007, 2481.216 3199.399, 2481.560 3200.295 C 2482.504 3202.755, 2486.121 3203.555, 2487.539 3201.616 C 2489.793 3198.533, 2491.276 3147.876, 2489.174 3145.774 C 2488.328 3144.928, 2485.808 3145.123, 2479.270 3146.537 C 2471.126 3148.299, 2464.436 3148.460, 2385.500 3148.789 C 2290.355 3149.185, 2272.157 3148.547, 2261.235 3144.436 C 2253.328 3141.460, 2253.399 3141.461, 2251.537 3144.303 M 2842.500 3142.583 C 2826.339 3144.894, 2811.465 3149.562, 2801.622 3155.412 C 2790.738 3161.880, 2781.102 3171.954, 2776.165 3182.026 C 2770.348 3193.890, 2768.592 3201.375, 2768.662 3214 C 2768.792 3237.603, 2777.958 3257.374, 2798.914 3279.256 C 2806.974 3287.673, 2815.236 3294.712, 2841.949 3315.927 C 2855.963 3327.056, 2867.743 3341.469, 2872.058 3352.764 C 2875.424 3361.576, 2875.881 3375.741, 2873.095 3384.914 C 2871.259 3390.957, 2869.963 3393.062, 2864.529 3398.822 C 2856.892 3406.917, 2850.678 3410.273, 2839.044 3412.585 C 2822.780 3415.816, 2806.158 3412.820, 2794.658 3404.585 C 2781.954 3395.488, 2775.302 3383.030, 2772.900 3363.832 C 2772.258 3358.700, 2771.288 3353.938, 2770.744 3353.250 C 2769.068 3351.132, 2765.045 3351.751, 2764.086 3354.274 C 2763.077 3356.926, 2760.993 3392.539, 2761.015 3406.750 C 2761.024 3412.546, 2761.538 3417.514, 2762.284 3419 C 2763.693 3421.806, 2774.480 3426.559, 2787.737 3430.217 C 2794.630 3432.118, 2798.190 3432.366, 2819.500 3432.429 C 2841.347 3432.494, 2844.250 3432.299, 2851.858 3430.257 C 2886.871 3420.862, 2908.500 3398.715, 2914.071 3366.553 C 2916.754 3351.058, 2913.421 3326.646, 2906.850 3313.678 C 2898.071 3296.351, 2880.321 3277.857, 2850.436 3254.897 C 2830.078 3239.257, 2817.130 3227.040, 2812.287 3218.900 C 2805.265 3207.097, 2804.406 3194.017, 2809.901 3182.533 C 2813.153 3175.737, 2815.953 3172.504, 2822.478 3168.015 C 2830.460 3162.523, 2834.142 3161.636, 2849 3161.621 C 2864.744 3161.606, 2869.035 3162.759, 2878.649 3169.589 C 2889.419 3177.240, 2897.954 3191.902, 2897.989 3202.816 C 2898.003 3207.156, 2899.596 3210, 2902.012 3210 C 2906.120 3210, 2906.731 3206.771, 2907.400 3181.500 C 2907.750 3168.300, 2908.274 3156.600, 2908.566 3155.500 C 2908.857 3154.400, 2908.512 3152.708, 2907.798 3151.740 C 2906.287 3149.692, 2896.287 3146.715, 2883.523 3144.514 C 2874.670 3142.988, 2848.338 3141.748, 2842.500 3142.583 M 1569.500 3146.880 C 1564.208 3148.309, 1554.209 3148.500, 1484.802 3148.500 C 1425.453 3148.500, 1405.812 3148.792, 1404.916 3149.686 C 1404 3150.600, 1403.433 3150.576, 1402.437 3149.580 C 1401.423 3148.566, 1391.784 3148.276, 1357.555 3148.233 C 1320.322 3148.186, 1313.748 3148.395, 1312.482 3149.661 C 1310.776 3151.367, 1310.695 3151.970, 1311.914 3153.895 C 1312.499 3154.819, 1315.914 3155.547, 1322.040 3156.055 C 1333.863 3157.034, 1336.569 3158.752, 1336.351 3165.139 C 1336.166 3170.558, 1327.017 3195.625, 1308.845 3240.500 C 1306.618 3246, 1303.469 3254.100, 1301.847 3258.500 C 1300.225 3262.900, 1296.689 3271.900, 1293.989 3278.500 C 1291.288 3285.100, 1285.202 3300.400, 1280.463 3312.500 C 1265.498 3350.708, 1261.604 3360.005, 1260.885 3359.242 C 1260.500 3358.834, 1258.787 3354.507, 1257.077 3349.627 C 1255.368 3344.747, 1251.514 3334.397, 1248.512 3326.627 C 1242.090 3310.002, 1235.544 3292.532, 1228.979 3274.500 C 1226.376 3267.350, 1222.644 3257.450, 1220.687 3252.500 C 1216.305 3241.420, 1207.628 3218.444, 1200.294 3198.500 C 1189.786 3169.927, 1188.668 3165.357, 1191.080 3160.850 C 1192.606 3157.999, 1198.032 3156, 1204.245 3156 C 1207.433 3156, 1210.443 3155.378, 1211.777 3154.443 C 1214.370 3152.627, 1214.531 3151.674, 1212.573 3149.716 C 1211.357 3148.500, 1196.119 3148.281, 1109.323 3148.231 C 1053.320 3148.199, 1006.712 3148.389, 1005.750 3148.653 C 1003.768 3149.198, 1003.339 3153.474, 1005.154 3154.595 C 1005.788 3154.987, 1010.059 3155.650, 1014.646 3156.068 C 1025.798 3157.084, 1029.828 3159.155, 1033 3165.500 L 1035.500 3170.500 1035.500 3282.500 C 1035.500 3399.058, 1035.331 3404.285, 1031.291 3412.798 C 1029.209 3417.188, 1024.921 3419.018, 1015.064 3419.725 C 1006.997 3420.304, 1005 3421.165, 1005 3424.063 C 1005 3425.064, 1005.563 3426.240, 1006.250 3426.678 C 1006.938 3427.115, 1033.022 3427.532, 1064.216 3427.603 C 1116.708 3427.724, 1121.048 3427.605, 1122.490 3426.011 C 1124.426 3423.872, 1123.486 3421.115, 1120.640 3420.583 C 1119.463 3420.363, 1113.514 3419.749, 1107.419 3419.219 C 1090.818 3417.774, 1087.517 3415.536, 1084.965 3403.999 C 1083.371 3396.792, 1082.364 3194.685, 1083.842 3178.726 C 1085.567 3160.114, 1089.033 3156.478, 1105 3156.532 C 1112.580 3156.557, 1115.696 3157.039, 1120.419 3158.917 C 1132.593 3163.757, 1136.306 3169.368, 1150.582 3204.500 C 1157.966 3222.672, 1161.319 3230.877, 1176.530 3268 C 1180.248 3277.075, 1186.777 3293.050, 1191.038 3303.500 C 1195.300 3313.950, 1202.490 3331.500, 1207.017 3342.500 C 1211.544 3353.500, 1217.616 3368.350, 1220.512 3375.500 C 1223.408 3382.650, 1228.955 3396.331, 1232.838 3405.902 C 1241.327 3426.820, 1244.505 3432.375, 1248.236 3432.812 C 1249.702 3432.983, 1251.828 3432.627, 1252.961 3432.021 C 1255.884 3430.457, 1265.282 3410.455, 1283.513 3367 C 1286.397 3360.125, 1289.990 3351.800, 1291.497 3348.500 C 1293.005 3345.200, 1295.927 3338.450, 1297.991 3333.500 C 1302.499 3322.691, 1311.249 3302.576, 1318.001 3287.500 C 1323.526 3275.166, 1329.672 3261.288, 1337.487 3243.500 C 1340.387 3236.900, 1344.436 3227.900, 1346.485 3223.500 C 1348.534 3219.100, 1351.463 3212.350, 1352.995 3208.500 C 1359.174 3192.965, 1367.944 3173.942, 1370.919 3169.618 C 1377.598 3159.910, 1384.356 3156, 1394.456 3156 C 1397.428 3156, 1400.472 3155.358, 1401.753 3154.461 C 1403.672 3153.116, 1404.238 3153.102, 1406.225 3154.351 C 1407.550 3155.183, 1412.259 3155.989, 1417.500 3156.281 C 1434.035 3157.203, 1438.097 3160.619, 1439.990 3175.194 C 1441.251 3184.912, 1441.265 3370.592, 1440.005 3388 C 1438.898 3403.306, 1436.855 3412.461, 1433.830 3415.681 C 1431.562 3418.095, 1424.373 3420, 1417.533 3420 C 1415.130 3420, 1412.452 3420.273, 1411.582 3420.607 C 1409.720 3421.321, 1409.462 3425.550, 1411.214 3426.632 C 1412.350 3427.334, 1473.611 3428.120, 1547.837 3428.385 L 1580.174 3428.500 1582.493 3425.804 C 1585.144 3422.721, 1586.367 3417.748, 1588.397 3401.794 C 1591.250 3379.369, 1591.387 3374.700, 1589.268 3372.083 C 1587.678 3370.118, 1587.026 3369.916, 1585.288 3370.846 C 1583.752 3371.668, 1582.761 3373.985, 1581.488 3379.729 C 1576.294 3403.160, 1564.482 3409.114, 1526 3407.697 C 1503.763 3406.879, 1496.193 3404.213, 1491.827 3395.666 C 1488.960 3390.053, 1488.329 3375.419, 1488.828 3326.092 L 1489.217 3287.684 1515.858 3288.352 C 1544.509 3289.070, 1549.409 3289.724, 1555.329 3293.615 C 1559.955 3296.657, 1561.892 3300.926, 1562.682 3309.825 C 1563.008 3313.496, 1563.679 3317.287, 1564.173 3318.250 C 1565.201 3320.255, 1569.854 3320.624, 1570.482 3318.750 C 1570.712 3318.063, 1571.393 3309.850, 1571.995 3300.500 C 1572.597 3291.150, 1573.787 3278.197, 1574.639 3271.716 C 1575.860 3262.429, 1575.930 3259.621, 1574.972 3258.466 C 1573.136 3256.254, 1571.720 3256.662, 1568.039 3260.459 C 1561.825 3266.871, 1559.370 3267.262, 1522.250 3267.757 L 1489 3268.200 1489 3218.600 L 1489 3169 1506.250 3169.035 C 1515.737 3169.055, 1529.368 3169.476, 1536.540 3169.971 C 1560.497 3171.625, 1566.617 3176.034, 1568.501 3193 C 1569.287 3200.082, 1570.265 3202, 1573.087 3202 C 1576.240 3202, 1577.119 3198.409, 1578.557 3179.662 C 1579.324 3169.673, 1580.455 3158.449, 1581.071 3154.720 C 1581.687 3150.991, 1581.937 3147.278, 1581.627 3146.470 C 1580.924 3144.639, 1577.352 3144.760, 1569.500 3146.880 M 2688.500 3145.937 C 2687.400 3146.382, 2681.597 3147.327, 2675.605 3148.036 C 2667.159 3149.035, 2648.755 3149.180, 2593.757 3148.680 C 2546.310 3148.248, 2522.174 3148.372, 2520.902 3149.052 C 2519.856 3149.612, 2519 3150.719, 2519 3151.512 C 2519 3154.256, 2523.379 3155.774, 2532.704 3156.262 C 2539.692 3156.628, 2543.063 3157.316, 2546.704 3159.122 C 2553.365 3162.425, 2555.068 3166.283, 2556.083 3180.372 C 2557.237 3196.388, 2557.157 3357.955, 2555.984 3380.500 C 2554.253 3413.778, 2551.952 3418.382, 2536.429 3419.635 C 2525.621 3420.507, 2523.369 3421.879, 2525.981 3426 C 2526.800 3427.291, 2532.331 3427.500, 2565.716 3427.500 C 2587.047 3427.500, 2624.300 3427.870, 2648.500 3428.323 C 2695.975 3429.211, 2695.291 3429.269, 2699.128 3424 C 2701.371 3420.919, 2703.471 3408.979, 2705.051 3390.319 C 2706.318 3375.353, 2706.011 3371.602, 2703.436 3370.614 C 2700.106 3369.336, 2698.402 3371.715, 2696.582 3380.183 C 2694.513 3389.811, 2692.978 3393.223, 2688.638 3397.835 C 2682.109 3404.774, 2674.682 3406.884, 2654 3407.675 C 2627.003 3408.708, 2612.871 3405.452, 2608.189 3397.122 C 2604.529 3390.610, 2603.906 3380.564, 2604.213 3333 L 2604.500 3288.500 2631.301 3288.694 C 2660.598 3288.906, 2666.126 3289.711, 2671.956 3294.616 C 2676.364 3298.326, 2677.205 3300.382, 2678.452 3310.500 C 2679.508 3319.067, 2679.685 3319.514, 2682.116 3319.801 C 2683.522 3319.966, 2685.141 3319.516, 2685.715 3318.801 C 2686.290 3318.085, 2687.280 3308.950, 2687.916 3298.500 C 2688.553 3288.050, 2689.498 3276.575, 2690.017 3273 C 2691.454 3263.095, 2691.268 3258.317, 2689.418 3257.607 C 2687.225 3256.765, 2687.610 3256.578, 2682.537 3260.968 C 2675.402 3267.143, 2673.485 3267.417, 2637 3267.461 L 2604.500 3267.500 2604.500 3218.500 L 2604.500 3169.500 2620 3169.204 C 2639.371 3168.833, 2662.796 3170.401, 2669.915 3172.545 C 2679.139 3175.323, 2682.264 3180.089, 2683.653 3193.500 C 2683.995 3196.800, 2684.718 3200.063, 2685.260 3200.750 C 2686.561 3202.401, 2689.472 3202.341, 2690.889 3200.634 C 2691.515 3199.879, 2692.661 3190.795, 2693.449 3180.337 C 2694.234 3169.926, 2695.422 3158.442, 2696.089 3154.819 C 2696.757 3151.196, 2697.024 3147.505, 2696.683 3146.616 C 2696.019 3144.885, 2691.935 3144.546, 2688.500 3145.937 M 326.092 3149.308 C 324.442 3150.958, 324.782 3153.817, 326.750 3154.836 C 327.712 3155.334, 332.642 3155.967, 337.704 3156.243 C 349.463 3156.883, 355.552 3159.594, 358.490 3165.500 C 360.314 3169.166, 360.536 3172.340, 361.144 3203.500 C 361.509 3222.200, 361.860 3257.975, 361.923 3283 C 362.061 3337.251, 362.908 3346.095, 370.151 3369 C 380.412 3401.445, 406.989 3423.646, 444.500 3431.108 C 455.617 3433.319, 495.210 3433.027, 505.500 3430.658 C 535.598 3423.728, 561.718 3404.025, 573.534 3379.339 C 586.516 3352.215, 587.967 3338.555, 588.011 3243 C 588.028 3206.603, 588.459 3177.598, 589.044 3173.551 C 590.816 3161.289, 594.881 3157.329, 606.639 3156.409 C 616.262 3155.656, 617.803 3155.237, 618.969 3153.058 C 619.732 3151.633, 619.620 3150.763, 618.535 3149.678 C 617.295 3148.438, 609.850 3148.214, 569.287 3148.200 C 537.930 3148.189, 521.070 3148.538, 520.250 3149.214 C 518.663 3150.523, 518.632 3153.654, 520.196 3154.621 C 520.853 3155.027, 525.567 3155.676, 530.671 3156.062 C 542.534 3156.959, 548.630 3159.718, 551.431 3165.456 C 554.069 3170.862, 554.852 3191.500, 554.903 3257 C 554.970 3342.928, 552.935 3362.890, 542.276 3380.871 C 534.729 3393.604, 522.719 3403.059, 506.806 3408.795 C 499.958 3411.263, 498.434 3411.425, 482.500 3411.364 C 463.206 3411.292, 459.320 3410.367, 446.510 3402.804 C 432.087 3394.289, 421.503 3379.920, 416.086 3361.500 C 410.745 3343.342, 410.724 3342.978, 410.286 3260.635 C 409.863 3181.249, 410.277 3169.680, 413.756 3163.629 C 416.240 3159.310, 421.480 3157.018, 431.082 3156.050 C 438.943 3155.257, 440.947 3154.293, 440.985 3151.285 C 440.993 3150.617, 440.212 3149.668, 439.250 3149.177 C 436.604 3147.827, 327.447 3147.953, 326.092 3149.308 M 2125.646 3149.178 C 2124.741 3149.685, 2124 3150.697, 2124 3151.427 C 2124 3154.071, 2127.424 3155.480, 2135.384 3156.113 C 2152.312 3157.460, 2154.729 3160.849, 2156.192 3185.295 C 2157.508 3207.269, 2156.557 3387.653, 2155.066 3398.910 C 2153.666 3409.481, 2151.146 3415.356, 2147.118 3417.439 C 2145.436 3418.309, 2140.559 3419.303, 2136.280 3419.648 C 2125.628 3420.506, 2123.382 3421.892, 2125.979 3426 C 2126.802 3427.302, 2134.416 3427.516, 2183.714 3427.624 C 2217.549 3427.698, 2241.232 3427.368, 2242.311 3426.807 C 2244.908 3425.456, 2244.084 3421.705, 2241 3420.837 C 2239.625 3420.451, 2233.455 3419.705, 2227.288 3419.181 C 2209.859 3417.700, 2206.985 3415.116, 2204.832 3398.993 C 2202.943 3384.843, 2202.944 3178.923, 2204.833 3170.690 C 2207.236 3160.222, 2213.413 3156, 2226.327 3156 C 2233.052 3156, 2237.669 3151.445, 2233.250 3149.169 C 2230.920 3147.969, 2127.790 3147.978, 2125.646 3149.178 M 2970.250 3148.733 C 2968.808 3149.233, 2968.631 3151.870, 2969.905 3153.880 C 2970.464 3154.763, 2973.888 3155.543, 2979.419 3156.047 C 2995.835 3157.543, 2998.701 3160.957, 3000.192 3180.789 C 3001.559 3198.960, 3000.584 3391.120, 2999.073 3401.375 C 2996.948 3415.801, 2994.208 3418.566, 2981 3419.613 C 2970.883 3420.415, 2970 3420.723, 2970 3423.460 C 2970 3424.792, 2970.563 3426.241, 2971.250 3426.680 C 2973.014 3427.807, 3084.096 3427.962, 3086.250 3426.841 C 3088.432 3425.705, 3088.547 3421.424, 3086.418 3420.607 C 3085.548 3420.273, 3082.656 3420, 3079.991 3420 C 3072.090 3420, 3059.715 3417.977, 3056.598 3416.177 C 3052.262 3413.672, 3050.150 3408.589, 3049.032 3397.966 C 3047.430 3382.761, 3047.714 3178.064, 3049.347 3170.271 C 3051.325 3160.835, 3055.287 3157.482, 3065.664 3156.466 C 3076.443 3155.411, 3077.859 3155.020, 3078.526 3152.917 C 3079.998 3148.281, 3080.222 3148.300, 3024.252 3148.300 C 2995.238 3148.300, 2970.938 3148.495, 2970.250 3148.733 M 1725.500 3166.909 C 1722.750 3167.253, 1719.938 3167.892, 1719.250 3168.327 C 1718.273 3168.945, 1718 3182.205, 1718 3229.110 L 1718 3289.102 1721.250 3290.453 C 1726.478 3292.627, 1743.420 3294.328, 1753.713 3293.714 C 1761.110 3293.273, 1764.341 3292.579, 1768.527 3290.531 C 1778.320 3285.739, 1787.702 3272.899, 1791.597 3258.955 C 1793.998 3250.356, 1794.604 3224.403, 1792.645 3214 C 1790.572 3202.991, 1784.851 3191.381, 1777.493 3183.253 C 1772.976 3178.264, 1769.993 3176.103, 1762.669 3172.516 C 1750.410 3166.511, 1740.543 3165.022, 1725.500 3166.909" stroke="none" fill="#033470" fill-rule="evenodd"/><path d="M 1677.334 1565.257 C 1639.151 1609.179, 1601.164 1657.445, 1568.924 1703 C 1551.608 1727.466, 1527.827 1764.598, 1514.485 1788 C 1502.440 1809.126, 1484.987 1843.808, 1478.503 1859.500 C 1476.686 1863.900, 1473.761 1870.875, 1472.005 1875 C 1467.721 1885.062, 1456.661 1917.025, 1453.538 1928.367 C 1442.589 1968.137, 1438 2000.026, 1438 2036.351 C 1438 2068.978, 1440.407 2089.070, 1448.008 2119.906 C 1461.662 2175.300, 1488.259 2226.456, 1532.542 2282.500 C 1554.970 2310.884, 1569.063 2332.196, 1591.778 2372.075 C 1608.226 2400.954, 1630.272 2445.403, 1649.273 2488 C 1659.040 2509.894, 1683 2567.084, 1683 2568.501 C 1683 2570.052, 1696.360 2603, 1696.988 2603 C 1699.767 2603, 1719.820 2568.131, 1729.497 2546.471 C 1733.293 2537.975, 1741.636 2514.100, 1744.512 2503.500 C 1753.698 2469.650, 1758.220 2423.080, 1756.114 2384.027 C 1754.340 2351.138, 1748.603 2306.759, 1742.537 2279 C 1740.674 2270.475, 1738.167 2259, 1736.965 2253.500 C 1735.004 2244.528, 1730.036 2225.280, 1721.874 2195.034 C 1713.589 2164.331, 1689.676 2092.477, 1673.441 2049.500 C 1652.831 1994.940, 1647.698 1981.571, 1645.028 1975.500 C 1642.785 1970.401, 1637.870 1957.793, 1630.798 1939 C 1625.558 1925.076, 1617.760 1894.242, 1614.613 1875 C 1608.653 1838.562, 1609.027 1785.078, 1615.498 1748.200 C 1624.051 1699.464, 1639.964 1650.755, 1661.285 1608.049 C 1668.251 1594.096, 1683.229 1567.300, 1687.111 1561.846 C 1689.597 1558.353, 1689.496 1556.998, 1686.750 1557.007 C 1685.183 1557.012, 1682.326 1559.515, 1677.334 1565.257" stroke="none" fill="#0097dc" fill-rule="evenodd"/><path d="M 1755.512 1398.250 C 1754.187 1402.140, 1751.933 1416.513, 1750.453 1430.500 C 1747.447 1458.926, 1749.357 1498.960, 1755.082 1527.500 C 1761.915 1561.563, 1782.670 1623.019, 1800.041 1660.620 C 1801.789 1664.404, 1804.690 1671.100, 1806.488 1675.500 C 1808.285 1679.900, 1814.136 1693.175, 1819.490 1705 C 1824.844 1716.825, 1830.773 1730.100, 1832.667 1734.500 C 1834.561 1738.900, 1838.526 1747.900, 1841.480 1754.500 C 1889.225 1861.201, 1916.195 1951.273, 1926.965 2040 C 1931.981 2081.326, 1932.196 2150.413, 1927.437 2192 C 1924.849 2214.616, 1916.862 2259.982, 1912.384 2277.500 C 1900.539 2323.838, 1884.043 2370.607, 1865.826 2409.500 C 1831.981 2481.758, 1787.316 2547.899, 1735.399 2602.639 C 1722.667 2616.063, 1721.290 2617.843, 1723.243 2618.353 C 1724.784 2618.756, 1727.558 2617.609, 1732.473 2614.538 C 1745.606 2606.330, 1793.257 2569.915, 1816.923 2550 C 1857.744 2515.649, 1877.970 2497.206, 1909.517 2465.572 C 1956.024 2418.936, 1991.827 2376.199, 2024.115 2328.781 C 2044.757 2298.467, 2054.098 2282.676, 2073.578 2245.160 C 2083.049 2226.920, 2099.682 2185.709, 2105.632 2165.744 C 2115.159 2133.771, 2121.024 2105.120, 2124.104 2075.500 C 2125.681 2060.330, 2125.684 2021.781, 2124.109 2008 C 2121.736 1987.232, 2116.253 1958.117, 2112.383 1945.726 C 2095.372 1891.270, 2073.182 1850.645, 2036.339 1806.500 C 2025.756 1793.820, 2012.670 1780.372, 1975.996 1744.488 C 1869.068 1639.863, 1799.769 1531.806, 1761.651 1410.263 C 1757.724 1397.741, 1756.500 1395.346, 1755.512 1398.250" stroke="none" fill="#ec041b" fill-rule="evenodd"/><path d="M 1747.841 27.595 C 1744.354 30.774, 1739.869 34.978, 1737.876 36.937 C 1726.597 48.025, 1700.403 72.359, 1669.529 100.433 C 1664.045 105.420, 1656.608 112.200, 1653.003 115.500 C 1639.233 128.106, 1593.575 168.409, 1569.500 189.209 C 1558.979 198.299, 1526.019 225.916, 1507 241.576 C 1503.425 244.520, 1497.381 249.517, 1493.568 252.681 C 1484.767 259.985, 1453.130 285.179, 1440.426 295 C 1435.090 299.125, 1428.424 304.316, 1425.612 306.535 C 1420.059 310.917, 1395.747 329.209, 1384.500 337.465 C 1380.650 340.291, 1374.125 345.080, 1370 348.107 C 1323.409 382.296, 1266.038 419.431, 1220 445.197 C 1207.861 451.991, 1184.982 463.987, 1136 489.240 C 1084.553 515.764, 1087.412 514.268, 1059.500 529.287 C 1024.431 548.158, 985.031 570.949, 953.613 590.537 C 936.280 601.343, 892.161 630.974, 880.500 639.639 C 877.200 642.092, 869.550 647.702, 863.500 652.108 C 851.272 661.011, 845.196 665.622, 824 682.085 C 809.513 693.337, 806.963 695.414, 791.652 708.429 C 761.417 734.130, 739.453 755.059, 717.593 779 C 690.562 808.605, 677.126 825.588, 656.675 856 C 642.513 877.061, 635.537 888.964, 623.563 912.500 C 604.069 950.815, 591.899 982.088, 579.588 1025.500 C 572.554 1050.305, 564.135 1092.945, 561.029 1119.500 C 556.087 1161.746, 554.555 1181.515, 553.372 1218.248 L 552.704 1238.996 303.102 1239.248 L 53.500 1239.500 53.500 1917.500 L 53.500 2595.500 563.949 2595.751 C 844.696 2595.889, 1074.717 2595.664, 1075.106 2595.251 C 1075.495 2594.838, 1075.425 2590.225, 1074.950 2585 C 1074.475 2579.775, 1073.385 2557.950, 1072.526 2536.500 C 1071.668 2515.050, 1070.527 2494.575, 1069.990 2491 C 1067.578 2474.917, 1064.843 2432.596, 1060.036 2337 C 1054.500 2226.887, 1053.375 2180.626, 1055.135 2135.500 C 1057.419 2076.929, 1056.633 2025.193, 1052.452 1959 C 1049.717 1915.696, 1046.719 1891.715, 1039.485 1855.297 C 1035.171 1833.574, 1033.865 1828.439, 1026.693 1805 C 1009.667 1749.356, 978.988 1695.146, 931.051 1636 C 909.944 1609.958, 876.174 1572.748, 854.589 1551.750 C 850.883 1548.145, 849.292 1546, 850.323 1546 C 851.227 1546, 859.287 1545.336, 868.234 1544.524 C 924.562 1539.411, 971.378 1537.674, 1036.677 1538.275 C 1093.862 1538.800, 1111.786 1539.715, 1159.500 1544.542 C 1192.688 1547.900, 1234.509 1555.194, 1260 1562.072 C 1275.084 1566.142, 1305.828 1576.449, 1318.205 1581.586 C 1329.186 1586.143, 1330.975 1586.631, 1331.385 1585.179 C 1331.647 1584.256, 1333.506 1576.075, 1335.517 1567 C 1347.411 1513.328, 1371.433 1435.519, 1397.108 1367.500 C 1406.200 1343.412, 1408.368 1337.912, 1414.647 1323 C 1422.095 1305.313, 1428.175 1291.383, 1438.216 1269 C 1447.291 1248.770, 1471.196 1201.936, 1481.347 1184.500 C 1483.588 1180.650, 1487.283 1174.125, 1489.558 1170 C 1498.162 1154.396, 1508.758 1137.379, 1525.670 1112 C 1546.236 1081.141, 1557.287 1066.167, 1579.425 1039.166 C 1587.131 1029.767, 1589.621 1026.933, 1604.695 1010.394 C 1632.948 979.395, 1667.009 948.986, 1698.841 926.340 C 1715.948 914.170, 1747.313 895, 1750.117 895 C 1752.618 895, 1781.537 912.501, 1797 923.372 C 1836.499 951.142, 1865.782 977.018, 1901.887 1016.056 C 1920.616 1036.306, 1946.331 1067.772, 1962 1089.612 C 2012.353 1159.797, 2055.188 1235.562, 2094.233 1323.500 C 2101.287 1339.387, 2105.238 1348.701, 2117.779 1379 C 2125.959 1398.762, 2142.004 1441.611, 2146.987 1457 C 2148.501 1461.675, 2152.005 1472.025, 2154.773 1480 C 2161.541 1499.497, 2173.589 1538.897, 2180.459 1564 C 2183.545 1575.275, 2186.248 1585.017, 2186.465 1585.649 C 2186.719 1586.389, 2191.480 1584.870, 2199.831 1581.384 C 2240.399 1564.449, 2302.089 1549.942, 2356.500 1544.543 C 2383.132 1541.900, 2406.287 1540.150, 2430.866 1538.923 C 2462.129 1537.362, 2556.024 1538.248, 2589.500 1540.419 C 2614.160 1542.019, 2660.133 1545.799, 2660.599 1546.266 C 2660.731 1546.398, 2655.869 1551.679, 2649.794 1558.003 C 2624.168 1584.679, 2603.976 1606.959, 2587.265 1627 C 2523.756 1703.163, 2490.095 1768.088, 2473.062 1847.272 C 2465.398 1882.903, 2462.563 1904.333, 2458.550 1957 C 2454.972 2003.950, 2452.756 2078.459, 2454.332 2098.794 C 2456.105 2121.663, 2455.743 2232.713, 2453.748 2278 C 2452.791 2299.725, 2451.767 2321.100, 2451.472 2325.500 C 2451.178 2329.900, 2450.043 2352.625, 2448.950 2376 C 2447.011 2417.494, 2443.885 2464.457, 2441.993 2480.500 C 2440.234 2495.421, 2439.089 2513.415, 2437.951 2544 C 2437.327 2560.775, 2436.458 2579, 2436.018 2584.500 C 2435.579 2590, 2435.531 2594.838, 2435.911 2595.251 C 2436.291 2595.664, 2665.629 2595.889, 2945.551 2595.751 L 3454.500 2595.500 3454.751 1918.603 C 3454.936 1418.990, 3454.707 1241.352, 3453.878 1240.353 C 3452.939 1239.222, 3411.339 1239, 3200.378 1239 L 2948 1239 2947.990 1218.750 C 2947.974 1185.496, 2945.851 1154.819, 2940.451 1109.847 C 2936.011 1072.865, 2932.290 1052.739, 2922.452 1012.500 C 2918.589 996.699, 2907.925 964.055, 2900.564 945.500 C 2872.289 874.220, 2834.349 817.282, 2776.565 759.409 C 2753.385 736.193, 2716.020 703.434, 2693.977 687 C 2691.395 685.075, 2682.356 678.240, 2673.891 671.811 C 2660.479 661.626, 2653.353 656.356, 2632.047 640.868 C 2586.974 608.102, 2515.881 563.776, 2465 536.715 C 2460.875 534.521, 2454.125 530.825, 2450 528.501 C 2443.310 524.732, 2393.313 498.678, 2343.500 473.003 C 2296.355 448.703, 2273.164 435.827, 2243 417.203 C 2223.777 405.334, 2178.991 375.682, 2163.500 364.568 C 2158 360.622, 2149.450 354.537, 2144.500 351.045 C 2135.390 344.620, 2128.015 339.182, 2104.500 321.548 C 2079.670 302.928, 2067.423 293.504, 2043.635 274.713 C 2039.309 271.296, 2033.180 266.475, 2030.014 264 C 2019.236 255.573, 1959.969 206.667, 1951.912 199.552 C 1949.389 197.323, 1943.574 192.350, 1938.991 188.500 C 1934.407 184.650, 1928.340 179.475, 1925.509 177 C 1922.677 174.525, 1914.125 167.100, 1906.502 160.500 C 1869.464 128.429, 1812.016 76.688, 1782.149 48.500 C 1778.070 44.650, 1774.219 41.050, 1773.591 40.500 C 1772.964 39.950, 1768.340 35.521, 1763.316 30.658 L 1754.182 21.816 1747.841 27.595" stroke="none" fill="#048ba1" fill-rule="evenodd"/></svg>