<svg xmlns="http://www.w3.org/2000/svg" width="3733" height="3707" viewBox="0 0 3733 3707" version="1.1"><path d="M 2388.589 2958.027 C 2339.449 2963.659, 2296.881 2989.663, 2274.793 3027.544 C 2260.608 3051.869, 2254.104 3082.749, 2256.869 3112.639 C 2258.919 3134.810, 2262.662 3148.574, 2271.516 3166.500 C 2290.116 3204.161, 2326.892 3230.913, 2372.630 3240.054 C 2386.330 3242.792, 2411.831 3243.756, 2425.708 3242.062 C 2453.108 3238.715, 2477.558 3229.635, 2495.915 3215.988 C 2504.291 3209.761, 2515.273 3198.461, 2514.802 3196.555 C 2514.557 3195.565, 2496.210 3178.295, 2487.295 3170.662 C 2485.174 3168.846, 2485.070 3168.890, 2478.824 3174.188 C 2467.077 3184.152, 2453.455 3191.249, 2437.700 3195.614 C 2426.324 3198.766, 2403.927 3199.937, 2390.867 3198.064 C 2365.951 3194.491, 2341.806 3181.600, 2328.494 3164.765 C 2313.702 3146.060, 2306.719 3124.803, 2306.725 3098.500 C 2306.727 3085.571, 2307.087 3082.119, 2309.332 3073.500 C 2318.193 3039.483, 2344.251 3013.493, 2378.726 3004.287 C 2387.513 3001.941, 2390.369 3001.669, 2407 3001.599 C 2423.056 3001.532, 2426.673 3001.819, 2434.375 3003.771 C 2451.414 3008.092, 2466.740 3016.310, 2479.103 3027.756 L 2485.021 3033.235 2489.761 3028.925 C 2501.996 3017.796, 2515 3005.070, 2515 3004.225 C 2515 3003.710, 2512.284 3000.325, 2508.965 2996.703 C 2491.918 2978.099, 2465.846 2965.176, 2433.775 2959.434 C 2423.443 2957.584, 2399.077 2956.825, 2388.589 2958.027 M 972.531 2959.113 C 965.412 2960.150, 962.075 2962.939, 961.137 2968.636 C 960.786 2970.761, 960.725 3031.020, 961 3102.545 C 961.476 3226.347, 961.588 3232.723, 963.328 3235.378 C 966.508 3240.231, 970.842 3241.327, 987.222 3241.418 L 1001.944 3241.500 1004.722 3238.728 L 1007.500 3235.955 1008 3148.561 C 1008.275 3100.493, 1008.786 3060.880, 1009.135 3060.532 C 1010.919 3058.748, 1018.350 3070.038, 1056.837 3133 C 1101.259 3205.673, 1102.209 3207.011, 1110.524 3208.571 C 1112.436 3208.929, 1115.643 3208.914, 1117.652 3208.538 C 1125.191 3207.123, 1128.457 3202.407, 1170.313 3132.500 C 1209.359 3067.285, 1215.165 3058, 1216.899 3058 C 1217.387 3058, 1218.172 3058.787, 1218.643 3059.750 C 1219.114 3060.713, 1219.725 3099.525, 1220 3146 C 1220.445 3221.217, 1220.679 3230.893, 1222.127 3234.078 C 1224.677 3239.685, 1228.683 3241.022, 1244.768 3241.633 C 1261.196 3242.258, 1264.630 3241.164, 1266.764 3234.628 C 1267.763 3231.568, 1267.973 3202.660, 1267.764 3096.913 C 1267.514 2969.997, 1267.408 2962.979, 1265.716 2961.286 C 1264.210 2959.779, 1261.735 2959.446, 1249.867 2959.152 C 1233.852 2958.755, 1229.522 2959.788, 1224.251 2965.262 C 1222.536 2967.043, 1215.645 2977.950, 1208.937 2989.500 C 1193.440 3016.183, 1117.036 3145.077, 1115.709 3146.775 C 1114.964 3147.729, 1113.655 3146.468, 1110.520 3141.775 C 1104.589 3132.899, 1042.645 3029.597, 1028.504 3005 C 1012.151 2976.555, 1008.639 2970.969, 1004.823 2967.337 C 1000.200 2962.938, 994.299 2960.108, 987.385 2958.975 C 980.823 2957.901, 980.858 2957.900, 972.531 2959.113 M 484.256 2960.592 C 482.472 2961.500, 480.154 2963.651, 479.106 2965.372 C 478.057 2967.092, 470.675 2983.125, 462.702 3001 C 454.729 3018.875, 432.582 3068.150, 413.487 3110.500 C 376.978 3191.473, 355 3240.705, 355 3241.516 C 355 3241.782, 364.914 3242, 377.032 3242 C 406.171 3242, 405.782 3242.174, 412.071 3226.299 C 420.845 3204.154, 431.378 3180.994, 433.644 3178.864 L 436.160 3176.500 501.830 3176.199 C 545.640 3175.998, 568.703 3176.248, 571.115 3176.949 C 579.178 3179.292, 579.971 3180.580, 595.100 3215.914 C 599.437 3226.041, 603.698 3235.416, 604.570 3236.747 C 608.111 3242.151, 609.472 3242.276, 659.500 3241.804 C 703.923 3241.385, 705.640 3241.298, 709.568 3239.257 C 711.806 3238.096, 715.187 3235.425, 717.082 3233.322 C 718.978 3231.220, 734.352 3210.150, 751.247 3186.500 C 768.142 3162.850, 783.023 3142.191, 784.316 3140.590 L 786.667 3137.680 792.640 3145.590 C 795.925 3149.941, 810.601 3170.192, 825.254 3190.594 C 839.906 3210.995, 853.721 3229.997, 855.952 3232.820 C 862.669 3241.318, 862.721 3241.331, 892.750 3241.813 C 909.671 3242.085, 919 3241.883, 919 3241.246 C 919 3240.702, 916.826 3236.926, 914.168 3232.855 C 909.188 3225.226, 853.345 3145.214, 832.661 3116.070 C 822.600 3101.893, 821 3099.107, 821 3095.754 C 821 3093.617, 821.517 3090.886, 822.149 3089.684 C 822.781 3088.483, 831.029 3076.475, 840.478 3063 C 866.765 3025.515, 912 2960.051, 912 2959.495 C 912 2959.223, 900.188 2959.007, 885.750 2959.016 C 853.672 2959.037, 855.026 2958.559, 844.647 2973.508 C 818.758 3010.798, 794.961 3044.291, 791.165 3048.783 L 786.700 3054.067 784.241 3051.783 C 782.889 3050.528, 774.558 3039.150, 765.728 3026.500 C 721.231 2962.756, 720.097 2961.328, 712.829 2959.924 C 707.709 2958.934, 663 2958.700, 663 2959.662 C 663 2961.687, 702.200 3019.365, 740.330 3073.443 C 755.952 3095.599, 756.555 3097.766, 749.763 3107.347 C 747.968 3109.878, 731.441 3133.224, 713.036 3159.225 C 694.631 3185.226, 674.665 3213.414, 668.669 3221.864 L 657.766 3237.228 654.941 3232.864 C 652.199 3228.627, 638.437 3198.384, 573.781 3054.506 C 539.429 2978.063, 536.370 2971.630, 532.002 2966.655 C 526.828 2960.762, 522.670 2959.667, 504 2959.281 C 490.164 2958.995, 486.976 2959.206, 484.256 2960.592 M 1354.308 2960.010 C 1353.103 2960.495, 1351.354 2962.057, 1350.422 2963.479 C 1348.849 2965.879, 1348.728 2975.795, 1348.745 3100.528 C 1348.765 3250.509, 1348.182 3238.810, 1355.746 3241.009 C 1358.377 3241.773, 1388.741 3242.010, 1457.215 3241.800 C 1549.458 3241.517, 1555.029 3241.400, 1556.715 3239.714 C 1558.279 3238.150, 1558.500 3235.957, 1558.500 3221.992 C 1558.500 3206.740, 1558.402 3205.958, 1556.222 3203.778 L 1553.944 3201.500 1481.722 3201.288 C 1442 3201.171, 1408.288 3201.058, 1406.806 3201.038 C 1405.324 3201.017, 1402.858 3199.922, 1401.326 3198.604 L 1398.540 3196.208 1398.824 3159.854 C 1398.979 3139.859, 1399.334 3122.727, 1399.611 3121.781 C 1399.888 3120.836, 1401.777 3119.601, 1403.808 3119.037 C 1406.146 3118.387, 1430.093 3118.009, 1469.095 3118.006 C 1527.493 3118, 1530.776 3117.905, 1532.345 3116.171 C 1533.740 3114.630, 1534 3111.826, 1534 3098.326 C 1534 3083.315, 1533.868 3082.190, 1531.895 3080.405 C 1529.878 3078.579, 1527.093 3078.489, 1464.395 3078.229 L 1399 3077.958 1398.750 3048.229 C 1398.365 3002.373, 1398.198 3005.348, 1401.338 3002.207 L 1404.045 2999.500 1475.719 2999.275 C 1545.586 2999.056, 1547.444 2999, 1549.368 2997.076 C 1551.083 2995.362, 1551.401 2993.346, 1551.796 2981.716 C 1552.323 2966.183, 1551.142 2961.942, 1545.770 2960.070 C 1541.966 2958.744, 1357.595 2958.686, 1354.308 2960.010 M 1588.861 2960.912 C 1586.547 2962.785, 1586.500 2963.165, 1586.500 2979.807 C 1586.500 2995.104, 1586.689 2996.999, 1588.405 2998.895 C 1590.287 3000.975, 1590.843 3001, 1634.639 3001 L 1678.967 3001 1679.234 3116.927 C 1679.500 3232.744, 1679.502 3232.857, 1681.590 3235.677 C 1685.291 3240.676, 1688.063 3241.358, 1705 3241.432 C 1722.260 3241.508, 1725.367 3240.991, 1727.212 3237.738 C 1728.216 3235.967, 1728.488 3211.823, 1728.517 3122 C 1728.544 3037.324, 1728.850 3007.971, 1729.722 3006.418 C 1732.370 3001.700, 1731.643 3001.775, 1776.497 3001.594 C 1815.455 3001.437, 1819.152 3001.277, 1820.753 2999.678 C 1822.229 2998.205, 1822.550 2995.592, 1822.824 2982.852 C 1823.037 2972.929, 1822.749 2966.808, 1821.982 2964.955 C 1819.394 2958.708, 1825.243 2959, 1702.710 2959 C 1594.429 2959, 1591.154 2959.055, 1588.861 2960.912 M 2115.268 2960.102 C 2047.184 2961.299, 2036.428 2962.503, 2018.381 2970.948 C 2006.504 2976.506, 1998.625 2982.170, 1988.500 2992.429 C 1970.988 3010.172, 1963.495 3028.652, 1962.267 3057.128 C 1960.845 3090.099, 1969.448 3114.829, 1988.718 3133.163 C 1994.821 3138.971, 2003.343 3144.839, 2015.250 3151.434 C 2018.963 3153.490, 2022 3155.560, 2022 3156.034 C 2022 3156.508, 2009.157 3175.380, 1993.460 3197.970 C 1977.763 3220.561, 1964.664 3239.712, 1964.351 3240.527 C 1963.856 3241.817, 1966.906 3241.977, 1987.720 3241.755 L 2011.658 3241.500 2015.137 3238.845 C 2017.220 3237.256, 2026.497 3224.410, 2038.246 3206.845 C 2062.698 3170.290, 2064.273 3168.248, 2070.470 3165.058 L 2075.440 3162.500 2107.170 3162.198 C 2143.260 3161.855, 2144.170 3162.009, 2145.870 3168.757 C 2146.388 3170.816, 2146.871 3185.171, 2146.943 3200.658 C 2147.092 3232.634, 2147.633 3236.162, 2152.938 3239.737 C 2156.048 3241.833, 2157.383 3242, 2170.999 3242 C 2186.251 3242, 2191.357 3241.070, 2193.005 3237.991 C 2194.435 3235.319, 2194.404 2965.624, 2192.974 2962.951 C 2190.626 2958.565, 2194.531 2958.708, 2115.268 2960.102 M 2658.415 2960.369 C 2654.043 2962.347, 2651.966 2965.384, 2646.213 2978.208 C 2643.426 2984.418, 2618.806 3039.167, 2591.502 3099.871 C 2539.301 3215.927, 2529 3239.202, 2529 3241.087 C 2529 3241.934, 2534.902 3242.133, 2551.286 3241.840 C 2572.670 3241.457, 2573.705 3241.346, 2576.831 3239.121 C 2580.613 3236.427, 2587.154 3223.418, 2596.965 3199.076 C 2600.384 3190.593, 2603.842 3182.645, 2604.649 3181.413 C 2608.244 3175.926, 2607.221 3176, 2679.151 3176.002 C 2740.367 3176.003, 2745.760 3176.138, 2748.863 3177.752 C 2752.980 3179.892, 2753.268 3180.407, 2762.086 3201.453 C 2773.172 3227.910, 2777.544 3236.539, 2781.170 3239.121 C 2784.208 3241.284, 2785.414 3241.409, 2807.285 3241.824 L 2830.216 3242.259 2829.497 3238.987 C 2828.661 3235.182, 2714.208 2980.952, 2709.976 2973.500 C 2706.450 2967.292, 2702.682 2963.624, 2697.500 2961.355 C 2692.060 2958.973, 2663.114 2958.243, 2658.415 2960.369 M 2831.064 2961.171 C 2835.587 2969.816, 2909.397 3107.241, 2922.788 3131.950 C 2940.925 3165.415, 2941.734 3167.682, 2938.087 3174.830 C 2935.114 3180.657, 2924.242 3191.872, 2917.848 3195.708 C 2908.189 3201.501, 2894.111 3203.504, 2880.886 3200.966 C 2872.913 3199.436, 2868.316 3200.488, 2866.348 3204.293 C 2864.211 3208.427, 2854.885 3237.218, 2855.488 3237.822 C 2856.048 3238.381, 2872.218 3240.542, 2887.055 3242.039 C 2905.698 3243.921, 2924.747 3239.908, 2940.305 3230.822 C 2949.137 3225.664, 2962.789 3212.624, 2970.346 3202.128 C 2976.512 3193.565, 3099.242 2969.469, 3102.571 2960.695 C 3103.221 2958.983, 3102.120 2958.906, 3081.297 2959.195 L 3059.339 2959.500 3055.831 2962.178 C 3053.108 2964.256, 3049.573 2970.184, 3040.026 2988.678 C 3002.553 3061.270, 2973.320 3117.021, 2970.731 3120.834 L 2967.788 3125.168 2964.588 3119.834 C 2962.828 3116.900, 2945.031 3082.100, 2925.039 3042.500 C 2905.047 3002.900, 2887.590 2968.835, 2886.245 2966.799 C 2881.474 2959.579, 2881.301 2959.538, 2854.173 2959.171 L 2829.845 2958.842 2831.064 2961.171 M 3148.942 2960.407 C 3147.535 2961.208, 3145.823 2963.094, 3145.137 2964.598 C 3144.161 2966.741, 3143.909 2996.563, 3143.971 3102.415 C 3144.051 3235.768, 3144.077 3237.522, 3146.037 3239.481 C 3147.857 3241.302, 3149.410 3241.468, 3164.761 3241.483 C 3183.707 3241.502, 3186.975 3240.631, 3194.939 3233.436 C 3197.245 3231.353, 3210.956 3213.864, 3225.408 3194.574 C 3260.893 3147.207, 3335.591 3049.161, 3338.793 3045.750 C 3340.213 3044.238, 3342.190 3043, 3343.187 3043 C 3344.924 3043, 3345.001 3046.815, 3345.024 3134.250 C 3345.040 3193.403, 3345.412 3227.078, 3346.082 3229.985 C 3348.163 3239.014, 3352.170 3240.908, 3370.861 3241.691 C 3382.035 3242.159, 3385.184 3241.974, 3388.286 3240.667 C 3395.526 3237.616, 3395.089 3247.006, 3394.778 3101.214 C 3394.514 2976.941, 3394.410 2970.319, 3392.673 2966.827 C 3389.797 2961.048, 3385.830 2959.719, 3369.890 2959.198 C 3355.524 2958.728, 3351.065 2959.477, 3345.662 2963.270 C 3344.101 2964.365, 3329.950 2982.415, 3314.216 3003.381 C 3280.661 3048.092, 3224.555 3122.155, 3208.168 3143.371 L 3196.682 3158.241 3195.091 3155.371 C 3193.679 3152.823, 3193.444 3142.136, 3193 3060.455 C 3192.527 2973.463, 3192.400 2968.257, 3190.672 2965.622 C 3187.550 2960.859, 3183.119 2959.701, 3166.500 2959.307 C 3154.703 2959.027, 3150.954 2959.262, 3148.942 2960.407 M 2066 3001.980 C 2054.269 3002.870, 2049.449 3004.167, 2040.501 3008.843 C 2027.862 3015.447, 2018.427 3027.465, 2014.433 3042.045 C 2011.921 3051.213, 2011.465 3067.249, 2013.438 3077.018 C 2015.905 3089.237, 2020.037 3097.229, 2027.911 3105.013 C 2035.631 3112.645, 2041.901 3116.235, 2052.675 3119.190 C 2059.908 3121.174, 2063.450 3121.368, 2099.500 3121.748 C 2125.822 3122.025, 2139.410 3121.810, 2141.298 3121.086 C 2146.598 3119.054, 2146.673 3118.183, 2146.583 3059.780 L 2146.500 3006.059 2144.224 3003.780 C 2141.950 3001.503, 2141.898 3001.500, 2108.724 3001.379 C 2090.451 3001.313, 2071.225 3001.583, 2066 3001.980 M 502.678 3015.185 C 501.905 3017.008, 490.187 3044.462, 476.637 3076.193 C 463.087 3107.925, 452 3134.137, 452 3134.443 C 452 3134.750, 476.330 3135, 506.067 3135 C 557.111 3135, 560.103 3134.902, 559.564 3133.250 C 559.250 3132.287, 547.380 3104.726, 533.185 3072.002 C 515.489 3031.206, 506.859 3012.404, 505.729 3012.186 C 504.657 3011.980, 503.591 3013.027, 502.678 3015.185 M 2651.792 3071.813 C 2637.653 3104.706, 2625.792 3132.378, 2625.435 3133.309 C 2624.830 3134.884, 2628.511 3135, 2679.262 3135 L 2733.738 3135 2707.124 3073.500 C 2688.800 3031.158, 2680.040 3012.001, 2679.004 3012.005 C 2677.970 3012.008, 2669.471 3030.687, 2651.792 3071.813 M 2186.500 3387.064 C 2132.622 3391.266, 2086.743 3420.185, 2065.157 3463.551 C 2054.528 3484.902, 2050.560 3502.698, 2050.560 3529 C 2050.560 3549.413, 2051.806 3558.069, 2057.176 3574.964 C 2075.397 3632.286, 2126.564 3668.714, 2193 3671.663 C 2227.882 3673.212, 2262.554 3663.856, 2287.679 3646.116 C 2295.736 3640.428, 2309.223 3627.223, 2308.786 3625.451 C 2308.519 3624.371, 2282.755 3600.202, 2280.160 3598.599 C 2279.461 3598.167, 2276.828 3599.672, 2273.738 3602.272 C 2253.455 3619.332, 2229.462 3628, 2202.521 3628 C 2176.823 3628, 2152.583 3620.015, 2134.235 3605.507 C 2106.666 3583.707, 2093.731 3539.544, 2103.624 3501 C 2112.130 3467.862, 2139.182 3441.480, 2173.560 3432.794 C 2181.360 3430.823, 2184.986 3430.540, 2202 3430.571 C 2218.832 3430.601, 2222.559 3430.901, 2229.242 3432.760 C 2246.201 3437.479, 2260.239 3445.039, 2272.040 3455.810 L 2279.037 3462.196 2294.018 3447.983 C 2302.258 3440.165, 2309 3433.195, 2309 3432.494 C 2309 3430.520, 2292.917 3415.763, 2285.105 3410.570 C 2264.713 3397.013, 2241.209 3389.281, 2213.500 3387.014 C 2200.396 3385.941, 2200.916 3385.940, 2186.500 3387.064 M 1812.500 3387.961 C 1797.650 3388.258, 1784.892 3388.892, 1784.148 3389.372 C 1779.951 3392.079, 1780 3390.434, 1780.006 3528.718 C 1780.009 3616.719, 1780.356 3661.742, 1781.049 3664.238 C 1781.620 3666.294, 1783.024 3668.478, 1784.170 3669.091 C 1785.421 3669.761, 1793.282 3670.296, 1803.876 3670.433 C 1822.797 3670.678, 1826.886 3669.950, 1829.021 3665.961 C 1829.878 3664.359, 1830.164 3653.348, 1830.060 3625.876 L 1829.916 3588 1859.852 3588 C 1898.446 3588, 1919.394 3585.958, 1942.861 3579.907 C 1979.315 3570.508, 2002.505 3548.110, 2011.625 3513.491 C 2013.874 3504.953, 2014.270 3501.319, 2014.346 3488.500 C 2014.518 3459.677, 2006.817 3439.034, 1989.391 3421.609 C 1978.999 3411.216, 1967.510 3404.540, 1949.940 3398.683 C 1930.973 3392.360, 1912.260 3389.393, 1882.500 3387.988 C 1862.091 3387.025, 1859.481 3387.024, 1812.500 3387.961 M 233.410 3389.659 C 234.211 3391.785, 304.075 3522.161, 326.296 3563 C 342.735 3593.211, 343.821 3596.340, 340.392 3603.609 C 337.556 3609.621, 323.471 3623.242, 317 3626.231 C 306.900 3630.895, 297.229 3631.985, 284.058 3629.941 C 275.849 3628.667, 271.375 3629.617, 268.698 3633.202 C 267.086 3635.362, 256.805 3665.979, 257.438 3666.734 C 258.258 3667.711, 290.739 3670.993, 299.622 3670.996 C 330.096 3671.006, 356.060 3655.885, 375.163 3627 C 382.645 3615.687, 505 3391.250, 505 3388.839 C 505 3388.377, 495.491 3388, 483.868 3388 C 464.383 3388, 462.480 3388.158, 459.454 3390.028 C 455.172 3392.675, 452.685 3396.786, 437.998 3425.500 C 416.066 3468.378, 375.938 3545.028, 372.985 3549.684 L 370.107 3554.224 368.033 3550.862 C 366.893 3549.013, 352.414 3520.725, 335.858 3488 C 291.199 3399.724, 288.078 3393.724, 285.408 3391 L 282.957 3388.500 257.836 3388.159 C 233.778 3387.832, 232.745 3387.895, 233.410 3389.659 M 548.589 3391.077 L 546 3394.153 546.056 3526.327 C 546.099 3626.038, 546.406 3659.337, 547.306 3661.906 C 547.963 3663.780, 549.769 3666.255, 551.320 3667.406 C 553.898 3669.320, 555.701 3669.526, 572.320 3669.803 C 592.794 3670.144, 593.532 3669.938, 595.031 3663.473 C 595.538 3661.288, 595.963 3634.919, 595.976 3604.875 L 596 3550.250 599.125 3549.625 C 600.844 3549.281, 632.994 3549, 670.569 3549 L 738.888 3549 741.694 3551.413 L 744.500 3553.825 745 3609.886 C 745.497 3665.565, 745.515 3665.961, 747.647 3668.092 C 749.694 3670.138, 750.676 3670.237, 768.823 3670.210 C 779.290 3670.194, 788.827 3669.872, 790.018 3669.494 C 794.889 3667.948, 794.774 3671.185, 794.943 3530.797 C 795.054 3439.170, 794.774 3397.873, 794.022 3395.084 C 792.201 3388.318, 791.095 3388, 769.388 3388 C 752.010 3388, 750.001 3388.178, 747.861 3389.911 L 745.500 3391.822 745 3446.492 C 744.518 3499.149, 744.429 3501.215, 742.559 3502.581 C 740.925 3503.775, 729.166 3504, 668.333 3504 L 596.049 3504 595.775 3448.413 L 595.500 3392.826 592.694 3390.413 C 589.937 3388.042, 589.551 3388, 570.533 3388 L 551.178 3388 548.589 3391.077 M 879.025 3390.821 L 876 3393.846 876.056 3526.673 C 876.099 3626.836, 876.406 3660.361, 877.306 3663 C 879.287 3668.808, 883.083 3669.979, 900.588 3670.184 C 917.188 3670.379, 921.854 3669.182, 927.109 3663.380 C 928.543 3661.796, 943.414 3642.275, 960.154 3620 C 997.851 3569.840, 1069.244 3476.013, 1072.984 3471.717 C 1073.359 3471.287, 1074.400 3471.216, 1075.299 3471.561 C 1076.790 3472.134, 1076.956 3480.249, 1077.216 3565.344 C 1077.538 3671.079, 1077.001 3664.344, 1085.405 3668.061 C 1089.104 3669.697, 1092.447 3670.079, 1104.718 3670.270 C 1120.993 3670.522, 1124.029 3669.684, 1126.045 3664.383 C 1126.634 3662.831, 1127 3610.797, 1127 3528.385 C 1127 3386.197, 1127.137 3390.418, 1122.455 3388.621 C 1121.565 3388.280, 1112.526 3388, 1102.369 3388 C 1082.087 3388, 1080.871 3388.278, 1075.400 3394.165 C 1073.695 3395.999, 1055.202 3420.225, 1034.304 3448 C 939.682 3573.761, 929.473 3587, 927.124 3587 C 926.301 3587, 925.990 3564.162, 925.964 3501.750 C 925.945 3454.863, 925.531 3412.043, 925.044 3406.595 C 923.569 3390.080, 921.584 3388.714, 898.275 3388.172 L 882.051 3387.796 879.025 3390.821 M 1211.306 3390.413 L 1208.500 3392.827 1208.236 3527.663 C 1208.056 3619.584, 1208.304 3663.305, 1209.015 3665.028 C 1211.138 3670.171, 1211.033 3670.160, 1259.889 3670.618 C 1311.573 3671.103, 1359.113 3669.811, 1372.500 3667.558 C 1399.160 3663.070, 1421.277 3651.785, 1432.694 3636.846 C 1442.796 3623.628, 1446.400 3612.116, 1446.420 3593 C 1446.443 3570.722, 1441.986 3558.809, 1428.598 3545.372 C 1421.309 3538.056, 1419.227 3536.633, 1407.755 3531.122 C 1400.746 3527.755, 1394.558 3525, 1394.005 3525 C 1391.648 3525, 1393.482 3523.203, 1400.501 3518.637 C 1411.116 3511.730, 1416.221 3506.940, 1421.616 3498.826 C 1438.814 3472.955, 1436.194 3436.483, 1415.632 3415.527 C 1399.653 3399.241, 1379.666 3391.526, 1347 3389.035 C 1339.575 3388.468, 1306.638 3388.004, 1273.806 3388.002 L 1214.112 3388 1211.306 3390.413 M 1516.110 3389.387 C 1510.829 3392.332, 1511.073 3385.630, 1511.035 3528.685 C 1511.014 3610.998, 1511.365 3662.830, 1511.955 3664.383 C 1512.481 3665.765, 1514.101 3667.675, 1515.555 3668.628 C 1518.025 3670.247, 1524.764 3670.345, 1617.850 3670.115 C 1703.882 3669.904, 1717.705 3669.669, 1719 3668.402 C 1721.035 3666.411, 1721.760 3640.250, 1719.905 3635.771 C 1717.469 3629.888, 1719.038 3630, 1638.723 3630 C 1576.981 3630, 1565.075 3629.776, 1563.441 3628.581 C 1561.589 3627.228, 1561.487 3625.458, 1561.215 3590.178 L 1560.930 3553.193 1563.378 3550.346 L 1565.826 3547.500 1629.358 3547.228 L 1692.889 3546.957 1695.012 3544.258 C 1697.002 3541.728, 1697.115 3540.601, 1696.817 3526.189 C 1696.513 3511.427, 1696.407 3510.743, 1694.139 3508.909 C 1691.870 3507.074, 1689.253 3507, 1626.354 3507 L 1560.930 3507 1561.215 3469.535 C 1561.477 3435.130, 1561.646 3431.924, 1563.285 3430.285 C 1564.956 3428.614, 1569.721 3428.468, 1637.986 3428 C 1695.872 3427.603, 1711.169 3427.233, 1712.201 3426.203 C 1713.123 3425.282, 1713.592 3420.459, 1713.818 3409.588 C 1714.132 3394.507, 1714.099 3394.226, 1711.655 3391.385 L 1709.174 3388.500 1613.837 3388.277 C 1535.948 3388.095, 1518.063 3388.298, 1516.110 3389.387 M 2365.589 3391.077 C 2364.037 3392.921, 2362.981 3395.424, 2362.954 3397.327 C 2362.928 3399.072, 2362.948 3458.950, 2362.998 3530.389 C 2363.075 3640.153, 2363.309 3660.804, 2364.509 3663.675 C 2366.691 3668.899, 2370.802 3670.120, 2386.900 3670.326 C 2401.824 3670.517, 2405.748 3669.487, 2412.796 3663.530 C 2414.610 3661.998, 2430.400 3641.789, 2447.886 3618.622 C 2492.594 3559.388, 2554.048 3478.849, 2557.777 3474.601 C 2564.304 3467.167, 2563.942 3461.898, 2564.235 3568.579 L 2564.500 3664.955 2567.173 3667.628 L 2569.846 3670.301 2588.053 3670.428 C 2598.921 3670.504, 2607.114 3670.135, 2608.380 3669.514 C 2609.546 3668.941, 2611.294 3666.903, 2612.264 3664.986 C 2613.927 3661.700, 2614.013 3653.980, 2613.764 3530.500 C 2613.522 3410.575, 2613.359 3399.189, 2611.829 3395.816 C 2609.097 3389.796, 2605.701 3388.655, 2589.105 3388.181 C 2573.194 3387.727, 2568.940 3388.497, 2563.890 3392.746 C 2562.130 3394.227, 2547.172 3413.452, 2530.649 3435.469 C 2497.132 3480.130, 2444.158 3550.074, 2426.943 3572.398 C 2419.400 3582.179, 2415.050 3587, 2413.770 3587 C 2411.901 3587, 2411.863 3584.923, 2412.005 3492.750 C 2412.085 3440.912, 2412.117 3397.242, 2412.075 3395.705 C 2412.033 3394.149, 2410.911 3391.820, 2409.545 3390.455 C 2407.108 3388.017, 2406.959 3388, 2387.634 3388 L 2368.178 3388 2365.589 3391.077 M 2663 3390 C 2661.161 3391.839, 2661 3393.333, 2661 3408.545 C 2661 3424.779, 2661.046 3425.137, 2663.455 3427.545 L 2665.909 3430 2709.455 3430 L 2753 3430 2753 3546.032 C 2753 3674.311, 2752.689 3668.077, 2759.170 3669.691 C 2764.458 3671.008, 2799.648 3669.760, 2801.204 3668.200 C 2802.245 3667.156, 2802.598 3644.111, 2803 3551.200 C 2803.275 3487.565, 2803.862 3434.773, 2804.305 3433.885 C 2806.117 3430.251, 2809.191 3430, 2851.892 3430 C 2892.645 3430, 2893.736 3429.949, 2895.530 3427.967 C 2897.149 3426.178, 2897.377 3424.009, 2897.435 3409.891 L 2897.500 3393.847 2894.234 3390.924 L 2890.968 3388 2777.984 3388 C 2666.333 3388, 2664.976 3388.024, 2663 3390 M 2952.020 3389.284 C 2950.656 3389.975, 2948.972 3391.656, 2948.279 3393.020 C 2947.279 3394.986, 2947.068 3423.420, 2947.259 3530.222 L 2947.500 3664.945 2949.599 3667.044 C 2950.754 3668.198, 2953.229 3669.449, 2955.099 3669.823 C 2956.970 3670.197, 3002.224 3670.355, 3055.665 3670.174 C 3134.888 3669.906, 3153.169 3669.597, 3154.665 3668.505 C 3156.266 3667.336, 3156.542 3665.358, 3156.827 3652.977 C 3157.042 3643.698, 3156.750 3637.811, 3155.985 3635.964 C 3153.456 3629.857, 3155.395 3630, 3075.053 3630 L 3001.909 3630 2999.455 3627.545 L 2997 3625.091 2997 3589.593 C 2997 3565.706, 2997.363 3553.297, 2998.110 3551.657 C 2998.721 3550.317, 3000.317 3548.721, 3001.657 3548.110 C 3003.359 3547.335, 3022.785 3547, 3066.093 3547 L 3128.091 3547 3130.615 3544.475 C 3133.130 3541.961, 3133.139 3541.888, 3132.820 3526.385 C 3132.512 3511.418, 3132.409 3510.745, 3130.139 3508.909 C 3127.870 3507.074, 3125.253 3507, 3062.389 3507 L 2997 3507 2997 3470.556 L 2997 3434.112 2999.413 3431.306 L 3001.826 3428.500 3074.364 3428 C 3131.940 3427.603, 3147.169 3427.232, 3148.201 3426.203 C 3149.124 3425.281, 3149.593 3420.432, 3149.820 3409.446 L 3150.141 3393.987 3147.147 3390.994 L 3144.154 3388 3049.327 3388.015 C 2975.273 3388.026, 2953.957 3388.304, 2952.020 3389.284 M 3184.484 3390.018 C 3182.927 3391.739, 3182.566 3394.240, 3182.194 3405.890 C 3181.678 3422.045, 3182.602 3426.226, 3187.214 3428.611 C 3189.860 3429.979, 3195.844 3430.169, 3232.631 3430.054 L 3275 3429.921 3275.056 3544.211 C 3275.099 3630.065, 3275.410 3659.347, 3276.306 3661.906 C 3276.963 3663.780, 3278.769 3666.255, 3280.320 3667.406 C 3282.899 3669.322, 3284.705 3669.527, 3301.509 3669.811 C 3318.595 3670.101, 3320.013 3669.987, 3321.820 3668.180 C 3323.641 3666.359, 3323.810 3663.986, 3324.525 3630.369 C 3324.944 3610.641, 3325.012 3559.625, 3324.677 3517 C 3324.026 3434.213, 3324.048 3433.771, 3328.861 3431.379 C 3330.543 3430.542, 3343.080 3430.179, 3372.495 3430.116 C 3395.195 3430.067, 3414.529 3429.734, 3415.460 3429.377 C 3418.331 3428.275, 3419 3424.423, 3419 3408.991 C 3419 3394.704, 3418.904 3394, 3416.587 3391.306 L 3414.173 3388.500 3300.253 3388.238 C 3186.643 3387.976, 3186.328 3387.981, 3184.484 3390.018 M 3471.923 3390.923 L 3469 3393.846 3469 3529.469 L 3469 3665.091 3471.455 3667.545 C 3472.805 3668.895, 3474.492 3670.038, 3475.205 3670.085 C 3483.994 3670.664, 3510.159 3670.387, 3512.280 3669.693 C 3513.810 3669.193, 3515.830 3667.369, 3516.770 3665.642 C 3518.362 3662.715, 3518.458 3653.570, 3518.161 3532 C 3517.981 3458.064, 3517.448 3399.955, 3516.933 3397.935 C 3514.901 3389.975, 3509.417 3388.013, 3489.173 3388.006 L 3474.846 3388 3471.923 3390.923 M 1258 3468.570 L 1258 3509.140 1304.750 3508.789 C 1356.247 3508.402, 1355.743 3508.459, 1366.234 3501.812 C 1378.134 3494.272, 1385.172 3475.823, 1382.002 3460.479 C 1378.726 3444.627, 1368.055 3433.854, 1351.307 3429.492 C 1346.652 3428.279, 1337.379 3428, 1301.790 3428 L 1258 3428 1258 3468.570 M 1833.750 3430.800 L 1831 3431.133 1831 3489.056 L 1831 3546.978 1839.750 3546.507 C 1844.563 3546.247, 1859.075 3545.802, 1872 3545.517 C 1897.507 3544.954, 1914.714 3543.657, 1925.168 3541.511 C 1944.269 3537.589, 1957.339 3524.509, 1962.650 3504 C 1964.851 3495.500, 1964.872 3479.548, 1962.694 3471.275 C 1958.764 3456.354, 1949.149 3444.004, 1937 3438.275 C 1928.776 3434.397, 1923.870 3433.402, 1906.500 3432.089 C 1892.994 3431.069, 1839.374 3430.118, 1833.750 3430.800 M 1258 3588.500 L 1258 3630 1306.750 3629.980 C 1333.563 3629.969, 1358.650 3629.514, 1362.500 3628.969 C 1376.654 3626.966, 1388.554 3618.154, 1392.940 3606.430 C 1403.185 3579.047, 1391.384 3554.783, 1364.769 3548.508 C 1359.679 3547.307, 1349.052 3547.027, 1308.250 3547.015 L 1258 3547 1258 3588.500" stroke="none" fill="#033470" fill-rule="evenodd"/><path d="M 1785.335 1708.750 C 1666.440 1849.072, 1596.236 1960.638, 1561.477 2064.500 C 1550.343 2097.768, 1544 2125.275, 1539.341 2160.500 C 1536.835 2179.450, 1536.828 2229.191, 1539.329 2248.500 C 1547.386 2310.707, 1568.296 2365.634, 1605.759 2423 C 1614.713 2436.710, 1625.483 2451.373, 1647.627 2480 C 1696.283 2542.900, 1756.023 2659.934, 1805.089 2788.477 C 1809.913 2801.114, 1814.229 2811.569, 1814.680 2811.710 C 1815.131 2811.851, 1818.057 2808.036, 1821.182 2803.233 C 1853.878 2752.976, 1871.558 2700.435, 1876.951 2637.500 C 1878.273 2622.073, 1878.286 2578.551, 1876.975 2560.500 C 1869.354 2455.625, 1833.648 2328.095, 1759.522 2141 C 1737.896 2086.415, 1732.120 2067.476, 1726.577 2032.977 C 1722.567 2008.014, 1721.608 1995.127, 1721.631 1966.500 C 1721.674 1914.734, 1729.637 1867.242, 1747.099 1814.615 C 1757.964 1781.869, 1779.491 1735.063, 1797.053 1706 C 1807.047 1689.461, 1806.823 1690, 1803.718 1690 C 1801.710 1690, 1798.114 1693.668, 1785.335 1708.750" stroke="none" fill="#0097dc" fill-rule="evenodd"/><path d="M 1876.640 1525.732 C 1866.082 1575.241, 1868.915 1630.583, 1885.025 1689.500 C 1896.680 1732.125, 1910.755 1768.058, 1952.988 1863 C 1999.666 1967.936, 2018.033 2015.658, 2035.546 2077.500 C 2088.330 2263.899, 2073.174 2445.650, 1990.603 2616.470 C 1955.821 2688.426, 1905.440 2761.367, 1853.743 2814.614 C 1842.498 2826.196, 1841.164 2827.917, 1842.983 2828.495 C 1845.754 2829.374, 1855.939 2822.802, 1881.500 2803.642 C 2051.143 2676.480, 2172.799 2535.956, 2232.245 2398.500 C 2252.854 2350.848, 2265.340 2306.197, 2271.674 2257.500 C 2273.121 2246.383, 2273.496 2236.602, 2273.498 2210 C 2273.500 2175.994, 2273.186 2171.597, 2268.886 2145.500 C 2260.059 2091.924, 2236.193 2035.561, 2202.086 1987.741 C 2183.621 1961.852, 2171.754 1948.678, 2123.952 1901 C 2078.294 1855.461, 2064.033 1840.249, 2039.579 1811 C 1982.151 1742.313, 1936.014 1667.663, 1907.008 1596.500 C 1901.237 1582.341, 1890.231 1551.915, 1883.599 1531.789 C 1881.296 1524.798, 1879.161 1518.827, 1878.854 1518.521 C 1878.548 1518.214, 1877.552 1521.459, 1876.640 1525.732" stroke="none" fill="#ec041c" fill-rule="evenodd"/><path d="M 1866.459 51.866 C 1861.496 56.615, 1847.325 69.951, 1834.968 81.501 C 1651.676 252.828, 1482.454 388.175, 1349 470.190 C 1315.703 490.653, 1294.051 502.486, 1224 538.506 C 1067.306 619.079, 993.947 663.323, 902.500 732.412 C 821.286 793.769, 760.930 852.147, 715.791 913 C 633.729 1023.630, 592.136 1157.166, 588.321 1322.250 L 587.680 1350 319.340 1350 L 51 1350 51 2077 L 51 2804 599.567 2804 C 1121.552 2804, 1148.109 2803.915, 1147.593 2802.250 C 1146.829 2799.780, 1145.276 2770.767, 1143.995 2735 C 1143.394 2718.225, 1142.257 2698.875, 1141.468 2692 C 1137.678 2658.967, 1131.729 2556.284, 1126.984 2442 C 1124.994 2394.075, 1124.628 2335.297, 1126.102 2300.500 C 1128.598 2241.578, 1126.824 2165.511, 1121.437 2100.500 C 1107.722 1934.986, 1062.058 1842.047, 923.347 1697.332 C 905.706 1678.927, 905.084 1678.142, 907.737 1677.611 C 916.276 1675.900, 980.281 1671.585, 1021.775 1669.922 C 1055.254 1668.581, 1154.197 1669.208, 1179.500 1670.922 C 1250.166 1675.710, 1306.320 1684.076, 1351.034 1696.479 C 1367.196 1700.962, 1396.011 1710.727, 1410.072 1716.486 C 1416.135 1718.968, 1421.261 1721, 1421.465 1721 C 1421.669 1721, 1422.813 1716.612, 1424.007 1711.250 C 1441.201 1634.045, 1472.313 1535.610, 1505.473 1453.500 C 1579.922 1269.151, 1675.259 1126.978, 1784.331 1037.647 C 1809.061 1017.393, 1842.202 994.592, 1864.594 982.425 L 1871.688 978.571 1882.094 984.405 C 1950.061 1022.507, 2018.886 1084.383, 2079.637 1162 C 2144.604 1245.006, 2206.516 1354.479, 2257.217 1476 C 2287.757 1549.199, 2315.721 1630.077, 2334.546 1699.647 C 2337.649 1711.116, 2340.309 1720.625, 2340.456 1720.779 C 2340.603 1720.932, 2347.424 1718.397, 2355.612 1715.147 C 2422.391 1688.635, 2496.716 1674.989, 2601.500 1670.002 C 2644.628 1667.950, 2726.496 1668.878, 2778.500 1672.009 C 2799.747 1673.289, 2843.569 1676.854, 2847.266 1677.605 C 2849.927 1678.145, 2849.358 1678.870, 2832.181 1696.833 C 2759.301 1773.048, 2718.408 1826.906, 2688.552 1886 C 2651.647 1959.048, 2636.284 2029.807, 2630.041 2155.500 C 2627.731 2202.003, 2626.788 2255.172, 2627.947 2273.500 C 2629.801 2302.806, 2630.380 2371.168, 2629.103 2410 C 2625.617 2516.034, 2618.471 2645.469, 2613.535 2692 C 2612.747 2699.425, 2611.612 2719.225, 2611.012 2736 C 2609.772 2770.669, 2608.192 2799.669, 2607.401 2802.250 C 2606.891 2803.915, 2633.379 2804, 3153.933 2804 L 3701 2804 3701 2077 L 3701 1350 3429.158 1350 L 3157.316 1350 3156.691 1319.750 C 3153.319 1156.366, 3119.710 1031.298, 3051.687 929 C 3007.028 861.838, 2948.527 803.832, 2855.500 734.470 C 2761.360 664.279, 2691.584 621.465, 2563.250 555.148 C 2546.063 546.267, 2517.938 531.732, 2500.750 522.849 C 2434.954 488.843, 2391.696 463.025, 2333 422.732 C 2209.078 337.662, 2050.226 206.747, 1902.630 68.051 C 1890.601 56.748, 1879.572 46.540, 1878.121 45.366 L 1875.482 43.233 1866.459 51.866" stroke="none" fill="#0489a0" fill-rule="evenodd"/></svg>