<svg xmlns="http://www.w3.org/2000/svg" width="3707" height="3733" viewBox="0 0 3707 3733" version="1.1"><path d="M 2248.352 2952.952 C 2198.206 2958.743, 2156.924 2985.191, 2134.329 3026 C 2117.672 3056.087, 2113.532 3096.862, 2123.591 3131.765 C 2141.662 3194.465, 2201.561 3234.918, 2271.500 3231.656 C 2298.683 3230.388, 2323.478 3223.466, 2344.130 3211.380 C 2352.147 3206.688, 2368.337 3192.171, 2370.766 3187.495 C 2371.690 3185.717, 2370.170 3184.001, 2357.307 3172.302 L 2342.807 3159.113 2336.653 3164.333 C 2304.556 3191.560, 2256.475 3196.766, 2217.500 3177.236 C 2192.830 3164.874, 2177.919 3145.749, 2170.778 3117.307 C 2168.937 3109.972, 2168.563 3105.658, 2168.541 3091.500 C 2168.509 3070.779, 2170.409 3061.814, 2178.157 3046.142 C 2182.396 3037.570, 2184.805 3034.188, 2192.136 3026.520 C 2209.804 3008.038, 2228.019 2998.669, 2251.335 2996.069 C 2276.242 2993.292, 2304.560 3001.343, 2334.056 3019.588 C 2338.867 3022.565, 2343.186 3024.980, 2343.652 3024.955 C 2344.118 3024.930, 2350.764 3018.925, 2358.419 3011.610 L 2372.338 2998.310 2369.419 2994.476 C 2367.814 2992.367, 2363.125 2987.760, 2359 2984.237 C 2341.350 2969.166, 2318.657 2959.016, 2292.500 2954.495 C 2281.696 2952.627, 2258.258 2951.808, 2248.352 2952.952 M 342 2954.468 C 342 2955.910, 355.273 2980.980, 399.989 3064 C 426.502 3113.225, 448.430 3154.934, 448.718 3156.686 C 449.509 3161.507, 445.640 3168.390, 437.470 3176.693 C 424.906 3189.463, 413.774 3193.070, 393.469 3190.951 C 384.427 3190.007, 380.910 3189.978, 379.312 3190.833 C 378.032 3191.518, 376.168 3194.664, 374.628 3198.735 C 371.016 3208.289, 365.569 3225.905, 366.075 3226.399 C 367.213 3227.510, 397.744 3231, 406.321 3231 C 437.667 3231, 463.046 3215.848, 482.531 3185.500 C 488.661 3175.953, 608 2956.349, 608 2954.616 C 608 2954.217, 598.401 2954.027, 586.669 2954.195 L 565.338 2954.500 561.826 2957.181 C 558.984 2959.351, 554.434 2967.375, 538.011 2999.181 C 501.512 3069.866, 481.751 3107.423, 478.721 3111.867 L 475.743 3116.233 473.024 3111.864 C 471.528 3109.461, 453.597 3074.404, 433.177 3033.959 C 408.323 2984.731, 395.029 2959.443, 392.961 2957.461 L 389.873 2954.500 365.936 2954.199 C 352.771 2954.034, 342 2954.155, 342 2954.468 M 651.308 2955.194 C 650.103 2955.777, 648.906 2956.802, 648.649 2957.471 C 648.392 2958.141, 648.058 3018.047, 647.906 3090.595 C 647.652 3212.318, 647.760 3222.745, 649.304 3225.679 C 650.225 3227.428, 651.996 3229.199, 653.239 3229.615 C 655.685 3230.434, 689.373 3230.233, 692.251 3229.382 C 696.283 3228.190, 696.426 3226.339, 696.113 3179.393 C 695.948 3154.584, 696.138 3129.272, 696.535 3123.143 L 697.257 3112 766.994 3112 C 836.030 3112, 836.757 3112.021, 839.365 3114.073 L 842 3116.145 842 3168.923 C 842 3223.337, 842.246 3226.991, 846.039 3229.021 C 847.053 3229.564, 856.559 3230, 867.362 3230 L 886.855 3230 888.927 3227.365 L 891 3224.730 891 3091.820 L 891 2958.909 888.545 2956.455 C 886.115 2954.024, 885.906 2954, 867.480 2954 C 856.060 2954, 848.088 2954.418, 846.850 2955.080 C 842.171 2957.584, 842 2959.645, 842 3013.395 L 842 3063.855 839.365 3065.927 C 836.759 3067.978, 836.001 3068, 769.490 3068 C 732.508 3068, 700.811 3067.712, 699.051 3067.360 L 695.852 3066.720 696.106 3012.713 L 696.359 2958.705 693.624 2956.353 C 690.956 2954.058, 690.428 2954.002, 672.194 2954.068 C 661.229 2954.107, 652.594 2954.573, 651.308 2955.194 M 976 2955.215 C 974.625 2955.937, 972.713 2958.097, 971.752 2960.014 C 970.114 2963.279, 970.003 2971.717, 970.002 3093.185 C 970.001 3172.879, 970.367 3223.835, 970.952 3225.374 C 971.476 3226.751, 972.785 3228.350, 973.862 3228.926 C 974.939 3229.503, 982.723 3230.076, 991.160 3230.200 C 1016.105 3230.566, 1014.628 3231.722, 1050.843 3183.516 C 1082.910 3140.833, 1150.640 3051.814, 1158.326 3042.250 C 1161.179 3038.700, 1164.138 3036, 1165.175 3036 C 1166.928 3036, 1167 3039.451, 1167.006 3123.250 C 1167.009 3175.558, 1167.405 3212.901, 1167.993 3216.495 C 1169.223 3224.007, 1171.519 3227.128, 1176.978 3228.709 C 1182.884 3230.418, 1207.822 3230.753, 1210.740 3229.162 C 1216.329 3226.114, 1216.067 3233.169, 1215.772 3093.257 C 1215.517 2972.347, 1215.392 2964.303, 1213.733 2961.267 C 1210.508 2955.366, 1207.473 2954.522, 1189.431 2954.511 C 1173.587 2954.500, 1173.303 2954.538, 1169.223 2957.236 C 1166.344 2959.140, 1158.885 2968.262, 1144.694 2987.236 C 1088.262 3062.691, 1023.152 3148, 1021.997 3148 C 1021.566 3148, 1020.828 3147.213, 1020.357 3146.250 C 1019.886 3145.287, 1019.275 3104, 1019 3054.500 C 1018.444 2954.381, 1018.866 2960.089, 1011.733 2956.330 C 1007.408 2954.051, 979.854 2953.191, 976 2955.215 M 1300.206 2955 C 1294.762 2957.297, 1294.949 2952.074, 1295.235 3094.089 L 1295.500 3225.173 1298.380 3227.650 L 1301.260 3230.127 1374.380 3229.718 C 1443.523 3229.330, 1448.101 3229.194, 1458.541 3227.208 C 1495.730 3220.134, 1518.953 3201.953, 1526.613 3173.913 C 1529.041 3165.024, 1529.037 3143.983, 1526.605 3135 C 1522.715 3120.630, 1513.978 3108.163, 1502.428 3100.496 C 1499.352 3098.454, 1492.156 3094.750, 1486.437 3092.264 C 1480.718 3089.779, 1476.275 3087.364, 1476.563 3086.898 C 1476.851 3086.432, 1481.174 3083.251, 1486.170 3079.829 C 1497.106 3072.339, 1503.982 3064.436, 1509.077 3053.500 C 1513.645 3043.695, 1515.293 3036.106, 1515.266 3025 C 1515.217 3005.099, 1505.853 2985.883, 1490.552 2974.284 C 1483.554 2968.979, 1469.195 2961.991, 1460.459 2959.640 C 1443.409 2955.051, 1437.704 2954.724, 1368.500 2954.369 C 1327.385 2954.159, 1301.635 2954.397, 1300.206 2955 M 1594.881 2956.815 L 1591.697 2959.660 1591.766 3089.580 C 1591.804 3161.036, 1591.872 3220.758, 1591.917 3222.295 C 1591.963 3223.843, 1593.096 3226.187, 1594.455 3227.545 L 1596.909 3230 1694.955 3230 C 1791.667 3230, 1793.027 3229.973, 1795 3228 C 1796.823 3226.177, 1797 3224.667, 1797 3210.955 C 1797 3196.314, 1796.934 3195.843, 1794.545 3193.455 L 1792.091 3191 1719.996 3191 C 1641.237 3191, 1643.204 3191.143, 1641.326 3185.280 C 1640.311 3182.111, 1640.299 3117.554, 1641.313 3114.498 C 1642.860 3109.836, 1642.625 3109.853, 1705.350 3109.946 C 1763.528 3110.033, 1770.297 3109.711, 1772.164 3106.768 C 1772.607 3106.071, 1772.976 3098.687, 1772.985 3090.361 C 1772.998 3076.933, 1772.784 3074.955, 1771.089 3072.861 L 1769.178 3070.500 1704.531 3070.215 L 1639.885 3069.930 1640.210 3034.215 C 1640.389 3014.572, 1640.900 2997.747, 1641.345 2996.827 C 1641.790 2995.907, 1642.907 2994.782, 1643.827 2994.327 C 1644.747 2993.872, 1677.225 2993.381, 1716 2993.237 C 1786.210 2992.974, 1786.507 2992.965, 1788.250 2990.876 C 1789.738 2989.093, 1790 2986.630, 1790 2974.445 C 1790 2960.735, 1789.895 2959.989, 1787.587 2957.306 L 1785.174 2954.500 1691.619 2954.235 L 1598.065 2953.970 1594.881 2956.815 M 1859.315 2954.937 C 1858.114 2955.460, 1856.651 2956.783, 1856.065 2957.878 C 1855.327 2959.258, 1855 3000.396, 1855 3091.918 L 1855 3223.968 1857.833 3227.140 L 1860.667 3230.311 1878.763 3230.245 C 1888.716 3230.209, 1897.832 3229.871, 1899.021 3229.493 C 1903.609 3228.037, 1904 3224.621, 1904 3186.032 L 1904 3150 1911.750 3149.997 C 1922.850 3149.992, 1975.666 3147.175, 1987.500 3145.956 C 2010.346 3143.602, 2025.113 3139.775, 2037.924 3132.887 C 2054.269 3124.098, 2065.872 3112.101, 2074.081 3095.500 C 2081.725 3080.043, 2083.314 3072.731, 2083.319 3053 C 2083.322 3038.377, 2083.023 3035.362, 2080.693 3026.500 C 2079.199 3020.820, 2075.803 3011.964, 2072.831 3006 C 2068.201 2996.707, 2066.444 2994.350, 2057.550 2985.500 C 2045.988 2973.996, 2037.226 2968.517, 2022.158 2963.370 C 2009.610 2959.084, 1998.493 2957.290, 1977 2956.079 C 1951.656 2954.652, 1861.972 2953.782, 1859.315 2954.937 M 2427.882 2956.814 L 2424.500 2959.836 2424.239 3092.452 L 2423.978 3225.069 2426.444 3227.535 C 2428.664 3229.755, 2429.833 3230.025, 2438.205 3230.250 C 2460.930 3230.861, 2467.339 3229.376, 2475.152 3221.688 C 2477.160 3219.711, 2490.026 3203.111, 2503.742 3184.797 C 2529.970 3149.777, 2607.760 3047.570, 2613.743 3040.269 C 2615.667 3037.921, 2618.087 3036, 2619.120 3036 C 2620.946 3036, 2621 3038.554, 2621 3124.364 C 2621 3179.769, 2621.377 3214.717, 2622.012 3218.061 C 2623.190 3224.277, 2625.936 3227.637, 2630.935 3228.981 C 2632.896 3229.508, 2640.846 3230.048, 2648.603 3230.181 C 2664.801 3230.458, 2667.143 3229.663, 2669.012 3223.254 C 2669.787 3220.597, 2670.018 3182.380, 2669.803 3092.500 C 2669.466 2951.265, 2669.922 2960.175, 2662.829 2956.327 C 2660.015 2954.800, 2657.015 2954.520, 2643.431 2954.511 C 2627.549 2954.500, 2627.313 2954.532, 2623.182 2957.263 C 2620.194 2959.239, 2611.675 2969.790, 2593.307 2994.263 C 2529.446 3079.352, 2477.044 3148, 2475.954 3148 C 2475.547 3148, 2474.828 3147.213, 2474.357 3146.250 C 2473.886 3145.287, 2473.275 3104, 2473 3054.500 C 2472.530 2969.965, 2472.390 2964.298, 2470.684 2961.171 C 2467.779 2955.849, 2463.686 2954.675, 2446.382 2954.204 L 2431.264 2953.792 2427.882 2956.814 M 2718.013 2955.987 C 2716.158 2957.842, 2716 2959.298, 2716 2974.500 C 2716 2989.667, 2716.162 2991.162, 2718 2993 C 2719.938 2994.938, 2721.333 2995, 2762.988 2995 L 2805.975 2995 2806.238 3110.588 L 2806.500 3226.177 2808.861 3228.088 C 2811.007 3229.826, 2813.016 3230, 2830.956 3230 C 2849.747 3230, 2850.781 3229.899, 2852.595 3227.895 C 2854.438 3225.859, 2854.516 3222.138, 2855 3113.145 C 2855.275 3051.190, 2855.879 2999.730, 2856.342 2998.788 C 2856.806 2997.847, 2858.127 2996.777, 2859.278 2996.412 C 2860.429 2996.046, 2879.726 2995.687, 2902.160 2995.614 C 2939.752 2995.490, 2943.088 2995.341, 2944.724 2993.708 C 2946.177 2992.259, 2946.591 2989.625, 2947 2979.219 C 2947.590 2964.216, 2946.987 2959.542, 2944.087 2956.642 L 2941.945 2954.500 2830.985 2954.237 C 2720.946 2953.976, 2720.009 2953.991, 2718.013 2955.987 M 3001.308 2955.002 C 3000.103 2955.492, 2998.380 2957.017, 2997.479 2958.392 C 2995.982 2960.676, 2995.844 2972.066, 2995.877 3090.196 C 2995.897 3161.313, 2995.933 3220.758, 2995.956 3222.295 C 2995.981 3223.885, 2997.059 3226.150, 2998.455 3227.545 L 3000.909 3230 3098.955 3230 C 3195.667 3230, 3197.027 3229.973, 3199 3228 C 3200.821 3226.179, 3201 3224.667, 3201 3211.111 C 3201 3197.942, 3200.779 3195.949, 3199.089 3193.861 L 3197.178 3191.500 3122.624 3191 C 3055.248 3190.548, 3047.912 3190.342, 3046.429 3188.858 C 3044.978 3187.407, 3044.766 3183.178, 3044.597 3152.358 C 3044.492 3133.186, 3044.745 3116.511, 3045.158 3115.302 C 3045.572 3114.094, 3047.027 3112.373, 3048.391 3111.480 C 3050.613 3110.024, 3056.982 3109.864, 3109.685 3109.945 C 3167.539 3110.034, 3174.297 3109.711, 3176.164 3106.768 C 3176.607 3106.071, 3176.976 3098.687, 3176.985 3090.361 C 3176.998 3076.933, 3176.784 3074.955, 3175.089 3072.861 L 3173.178 3070.500 3109.339 3070 L 3045.500 3069.500 3044.834 3040 C 3044.178 3010.897, 3044.507 2998.415, 3045.996 2996.007 C 3046.414 2995.330, 3048.724 2994.393, 3051.128 2993.926 C 3053.533 2993.458, 3085.875 2993.073, 3123 2993.070 L 3190.500 2993.066 3192.250 2990.922 C 3193.736 2989.102, 3194 2986.613, 3194 2974.445 C 3194 2960.735, 3193.895 2959.989, 3191.587 2957.306 L 3189.174 2954.500 3096.337 2954.305 C 3043.822 2954.195, 3002.548 2954.498, 3001.308 2955.002 M 3228 2956 C 3226.164 2957.836, 3226 2959.333, 3226 2974.277 C 3226 2987.391, 3226.303 2990.987, 3227.557 2992.777 L 3229.113 2995 3272.532 2995 L 3315.950 2995 3316.225 3107.750 C 3316.433 3193.058, 3316.793 3221.157, 3317.705 3223.198 C 3320.185 3228.748, 3322.783 3229.469, 3341.616 3229.831 C 3352.781 3230.046, 3359.545 3229.779, 3360.870 3229.070 C 3361.993 3228.468, 3363.382 3226.294, 3363.955 3224.238 C 3364.649 3221.748, 3364.992 3184.013, 3364.982 3111.215 C 3364.972 3043.110, 3365.329 3001.254, 3365.929 3000.133 C 3368.268 2995.761, 3368.092 2995.779, 3411.593 2995.618 L 3453.205 2995.465 3455.103 2993.122 C 3456.777 2991.054, 3457 2989.019, 3457 2975.823 C 3457 2967.479, 3456.545 2960.018, 3455.970 2958.945 C 3453.229 2953.822, 3457.412 2954, 3339.550 2954 C 3231.333 2954, 3229.976 2954.024, 3228 2956 M 1357.250 2993.747 L 1345 2994.062 1345 3033.031 L 1345 3072 1366.250 3072.250 C 1397.133 3072.613, 1425.402 3072.070, 1434 3070.947 C 1443.641 3069.689, 1450.752 3066.182, 1456.399 3059.901 C 1463.192 3052.345, 1465.394 3045.761, 1465.394 3033 C 1465.394 3019.244, 1463.066 3012.906, 1455.080 3004.920 C 1447.527 2997.367, 1441.541 2995.184, 1425.079 2993.979 C 1413.305 2993.117, 1385.482 2993.022, 1357.250 2993.747 M 1904.999 3051.750 L 1905 3109 1917.750 3108.979 C 1949.075 3108.928, 1986.532 3106.549, 1998.500 3103.851 C 2011.638 3100.890, 2022.733 3091.981, 2028.557 3079.718 C 2041.270 3052.947, 2034.323 3019.683, 2013.185 3006.119 C 2006.554 3001.864, 1998.825 2999.369, 1988.340 2998.099 C 1978.246 2996.877, 1942.799 2995.137, 1920.249 2994.757 L 1904.998 2994.500 1904.999 3051.750 M 1345 3149.917 L 1345 3191 1393.553 3191 C 1448.750 3191, 1451.482 3190.720, 1461.904 3183.984 C 1468.687 3179.599, 1473.934 3173.081, 1477.183 3165 C 1480.343 3157.140, 1480.366 3140.646, 1477.227 3133.741 C 1474.218 3127.122, 1466.607 3119.335, 1459.777 3115.887 C 1447.999 3109.942, 1445.989 3109.742, 1393.250 3109.268 L 1345 3108.834 1345 3149.917 M 2563 3386.028 C 2528.055 3389.084, 2496.998 3402.690, 2473.337 3425.311 C 2460.980 3437.124, 2453.168 3447.728, 2445.939 3462.500 C 2435.834 3483.148, 2432.011 3500.593, 2432.004 3526.074 C 2431.999 3543.771, 2433.664 3555.595, 2438.188 3570 C 2460.019 3639.517, 2536.683 3678.513, 2616.197 3660.546 C 2640.465 3655.062, 2659.971 3644.931, 2675.356 3629.818 C 2680.777 3624.494, 2685.052 3619.726, 2684.856 3619.224 C 2684.660 3618.722, 2678.065 3612.376, 2670.201 3605.122 L 2655.901 3591.932 2652.701 3594.547 C 2637.472 3606.989, 2623.284 3614.508, 2607.337 3618.588 C 2566.028 3629.158, 2519.452 3613.874, 2498.161 3582.759 C 2492.846 3574.993, 2487.175 3562.154, 2484.353 3551.500 C 2482.049 3542.801, 2481.691 3539.418, 2481.602 3525.500 C 2481.523 3513.175, 2481.926 3507.663, 2483.355 3501.500 C 2493.038 3459.735, 2523.487 3434.085, 2569.533 3428.904 C 2597.786 3425.724, 2629.247 3435.740, 2651.498 3454.998 L 2656.161 3459.034 2670.580 3445.373 C 2678.511 3437.859, 2685 3431.334, 2685 3430.874 C 2685 3428.862, 2668.745 3413.913, 2660.918 3408.726 C 2635.208 3391.689, 2597.698 3382.994, 2563 3386.028 M 789.380 3386.863 C 784.180 3387.793, 780.186 3390.381, 778.955 3393.617 C 777.705 3396.906, 777.708 3641.204, 778.959 3649.853 C 780.585 3661.103, 783.968 3662.907, 803.782 3663.091 C 818.457 3663.226, 821.017 3662.651, 823.184 3658.727 C 824.129 3657.018, 824.437 3636.808, 824.511 3571.780 C 824.564 3525.184, 824.936 3486.731, 825.337 3486.330 C 827.201 3484.465, 835.467 3496.966, 872.065 3557 C 897.815 3599.238, 912.860 3622.949, 915.656 3625.698 C 922.313 3632.242, 931.877 3632.877, 938.844 3627.238 C 941.452 3625.128, 953.755 3605.508, 983.230 3556.460 C 1005.657 3519.138, 1025.215 3487.342, 1026.691 3485.801 C 1028.167 3484.260, 1029.951 3483, 1030.655 3483 C 1031.684 3483, 1031.991 3499.770, 1032.218 3568.250 C 1032.477 3646.503, 1032.640 3653.757, 1034.212 3656.626 C 1036.920 3661.573, 1041.721 3662.909, 1057.699 3663.162 C 1078.232 3663.488, 1078.500 3663.185, 1078.500 3639.603 C 1078.500 3469.238, 1077.902 3391.248, 1076.583 3389.441 C 1075.324 3387.717, 1073.659 3387.464, 1061.718 3387.175 C 1045.566 3386.785, 1041.226 3387.752, 1036.197 3392.863 C 1034.164 3394.930, 1025.991 3407.844, 1018.036 3421.560 C 997.116 3457.633, 939.252 3555.218, 933.638 3563.894 L 928.854 3571.288 925.340 3566.394 C 920.975 3560.315, 863.522 3464.505, 843.550 3430 C 824.014 3396.249, 821.412 3392.968, 810.616 3388.477 C 806.130 3386.611, 795.366 3385.793, 789.380 3386.863 M 1847.500 3386.929 C 1841.838 3387.662, 1839.476 3388.773, 1836.253 3392.219 C 1835.018 3393.540, 1824.739 3415.069, 1813.412 3440.061 C 1768.954 3538.153, 1717.188 3653.738, 1715.694 3658.250 L 1714.121 3663 1736.926 3663 C 1762.840 3663, 1763.232 3662.891, 1766.469 3654.769 C 1776.298 3630.104, 1787.633 3605.053, 1790.117 3602.500 L 1793.038 3599.500 1858.269 3599.199 C 1902.738 3598.994, 1924.678 3599.240, 1927.200 3599.974 C 1931.863 3601.330, 1933.661 3603.932, 1938.969 3617 C 1949.901 3643.913, 1955.071 3654.416, 1959.520 3658.750 L 1963.884 3663 1986.442 3663 C 1998.849 3663, 2009 3662.830, 2009 3662.622 C 2009 3661.298, 1898.634 3416.229, 1892.859 3404.729 C 1888.372 3395.794, 1882.915 3389.286, 1878.282 3387.347 C 1874.904 3385.933, 1857.067 3385.691, 1847.500 3386.929 M 2830.404 3387.355 C 2823.565 3389.085, 2819.423 3392.229, 2816.590 3397.838 C 2815.295 3400.402, 2805.904 3421.175, 2795.722 3444 C 2785.540 3466.825, 2765.636 3511.150, 2751.493 3542.500 C 2723.303 3604.983, 2698 3661.752, 2698 3662.514 C 2698 3662.781, 2708.109 3663, 2720.465 3663 L 2742.930 3663 2746.337 3660.009 C 2749.633 3657.115, 2752.036 3651.964, 2770.202 3608.848 C 2771.280 3606.290, 2773.287 3603.140, 2774.661 3601.848 L 2777.161 3599.500 2845.058 3599.500 L 2912.955 3599.500 2915.475 3602.020 C 2916.861 3603.407, 2921.098 3611.957, 2924.889 3621.020 C 2934.589 3644.207, 2939.732 3655.083, 2942.292 3657.825 C 2946.855 3662.712, 2948.481 3663, 2971.518 3663 L 2993.135 3663 2992.451 3660.750 C 2992.074 3659.512, 2976.787 3625.425, 2958.479 3585 C 2920.408 3500.938, 2914.024 3486.646, 2894.848 3442.549 C 2879.461 3407.164, 2877.664 3403.693, 2871.090 3396.665 C 2863.747 3388.815, 2858.498 3386.654, 2846 3386.334 C 2839.804 3386.176, 2833.411 3386.594, 2830.404 3387.355 M 312.299 3388.564 C 310.538 3389.465, 308.453 3391.186, 307.666 3392.387 C 306.879 3393.589, 297.582 3413.906, 287.008 3437.536 C 276.433 3461.166, 253.370 3512.450, 235.757 3551.500 C 205.724 3618.089, 197.604 3636.269, 189.418 3655.250 L 186.076 3663 209.022 3663 L 231.968 3663 234.949 3660.250 C 237.130 3658.237, 240.803 3650.665, 248.651 3632 C 254.549 3617.975, 260.057 3605.426, 260.891 3604.114 C 264.145 3598.997, 264.105 3599, 333.567 3599 C 407.471 3599, 403.199 3598.517, 407.401 3607.353 C 409.698 3612.182, 418.505 3632.455, 426.129 3650.462 C 428.646 3656.407, 430.361 3659.004, 432.898 3660.712 L 436.296 3663 484 3663 L 531.704 3663 535.102 3660.714 C 536.971 3659.456, 541.680 3653.944, 545.567 3648.464 C 549.454 3642.984, 562.685 3624.325, 574.968 3607 C 587.251 3589.675, 599.742 3572.445, 602.724 3568.712 L 608.148 3561.924 611.931 3566.712 C 614.012 3569.345, 627.340 3587.700, 641.548 3607.500 C 675.503 3654.817, 677.318 3657.248, 681.007 3660.352 L 684.153 3663 711.192 3663 L 738.230 3663 736.451 3660.250 C 735.473 3658.738, 733.971 3656.375, 733.113 3655 C 730.508 3650.824, 667.571 3560.829, 655.212 3543.608 C 648.854 3534.748, 642.987 3525.813, 642.175 3523.750 C 640.207 3518.758, 641.562 3515.355, 650.236 3503.500 C 653.858 3498.550, 673.498 3470.425, 693.880 3441 L 730.939 3387.500 706.720 3387.209 C 693.399 3387.049, 681.051 3387.179, 679.279 3387.499 C 674.492 3388.362, 670.959 3391.870, 662.899 3403.767 C 640.322 3437.088, 609.465 3480, 608.081 3480 C 606.754 3480, 601.577 3472.925, 573.962 3433.371 C 559.035 3411.992, 545.539 3393.185, 543.970 3391.578 C 540.198 3387.714, 535.900 3387.164, 508.750 3387.073 C 493.223 3387.021, 487 3387.323, 487 3388.128 C 487 3389.255, 511.953 3425.866, 546.891 3476 C 576.647 3518.699, 576 3517.685, 576 3521.588 C 576 3523.519, 575.368 3526.321, 574.596 3527.814 C 573.824 3529.308, 564.700 3542.448, 554.321 3557.015 C 543.942 3571.582, 524.812 3598.575, 511.809 3617 C 498.806 3635.425, 486.626 3652.277, 484.742 3654.449 L 481.317 3658.398 478.722 3653.949 C 476.221 3649.662, 440.433 3570.690, 391.283 3461 C 364.262 3400.696, 364.062 3400.279, 359.847 3395.478 C 353.822 3388.616, 350.559 3387.654, 332 3387.268 C 318.206 3386.981, 314.975 3387.193, 312.299 3388.564 M 1160.850 3389.842 L 1157.635 3392.715 1157.543 3523.108 C 1157.492 3594.823, 1157.817 3654.949, 1158.264 3656.721 C 1159.953 3663.405, 1153.318 3663, 1261.031 3663 C 1343.664 3663, 1358.915 3662.783, 1360.559 3661.583 C 1362.308 3660.305, 1362.531 3658.647, 1362.818 3644.777 C 1363.109 3630.663, 1362.971 3629.186, 1361.156 3626.944 L 1359.178 3624.500 1285.116 3624 L 1211.055 3623.500 1208.806 3621.251 C 1206.583 3619.027, 1206.555 3618.658, 1206.334 3588.251 C 1206.211 3571.338, 1206.369 3555.078, 1206.687 3552.118 C 1207.745 3542.246, 1202.444 3543, 1270.757 3543 C 1329.272 3543, 1336.328 3542.662, 1338.164 3539.768 C 1338.607 3539.071, 1338.976 3531.687, 1338.985 3523.361 C 1338.998 3509.933, 1338.784 3507.955, 1337.089 3505.861 L 1335.178 3503.500 1270.521 3503.215 L 1205.865 3502.930 1206.182 3466.999 C 1206.542 3426.324, 1206.119 3428.319, 1214.684 3426.911 C 1217.333 3426.476, 1249.512 3426.092, 1286.193 3426.060 L 1352.887 3426 1354.443 3423.777 C 1355.675 3422.019, 1356 3418.587, 1356 3407.333 C 1356 3393.742, 1355.893 3392.987, 1353.587 3390.306 L 1351.174 3387.500 1257.619 3387.235 L 1164.065 3386.970 1160.850 3389.842 M 1458.282 3388.206 C 1455.123 3389.731, 1454.226 3393.677, 1453.551 3409 C 1450.390 3480.847, 1447.869 3524.217, 1445.909 3540.500 C 1443.503 3560.486, 1435.236 3593.121, 1430.266 3602.252 C 1426.713 3608.780, 1419.151 3615.457, 1412.993 3617.502 C 1410.272 3618.406, 1404.796 3619.330, 1400.825 3619.556 C 1396.082 3619.826, 1393.072 3620.499, 1392.053 3621.520 C 1390.697 3622.877, 1390.500 3628.607, 1390.500 3666.787 C 1390.500 3709.054, 1390.568 3710.616, 1392.550 3714 C 1395.904 3719.724, 1398.624 3720.518, 1414.358 3720.365 C 1426.458 3720.247, 1428.551 3719.979, 1430.858 3718.259 L 1433.500 3716.288 1434 3692.394 C 1434.275 3679.252, 1434.874 3667.744, 1435.330 3666.820 C 1435.787 3665.896, 1437.541 3664.658, 1439.229 3664.070 C 1442.495 3662.932, 1642.503 3662.492, 1646.687 3663.614 C 1650.209 3664.558, 1650.998 3669.067, 1651.024 3688.399 C 1651.050 3708.584, 1651.747 3713.201, 1655.299 3716.753 C 1658.384 3719.838, 1668.381 3721.109, 1681.859 3720.130 C 1696.276 3719.083, 1695.157 3723.279, 1694.799 3671.579 C 1694.561 3637.242, 1694.218 3627.952, 1693.111 3625.798 C 1690.841 3621.380, 1686.491 3620, 1674.842 3620 C 1663.441 3620, 1658.477 3619, 1656.420 3616.288 C 1655.298 3614.809, 1655.058 3595.564, 1655.032 3504.899 C 1655.010 3431.027, 1654.658 3394.317, 1653.950 3392.287 C 1653.373 3390.631, 1651.777 3388.764, 1650.403 3388.138 C 1646.979 3386.578, 1461.518 3386.644, 1458.282 3388.206 M 2290 3388.101 C 2226.899 3389.256, 2216.784 3390.419, 2199.214 3398.537 C 2172.366 3410.941, 2153.727 3433.017, 2146.793 3460.623 C 2144.876 3468.253, 2144.563 3472.168, 2144.563 3488.500 C 2144.563 3510.058, 2146.148 3518.958, 2152.394 3532.476 C 2160.678 3550.406, 2170.948 3560.841, 2191.842 3572.558 C 2197.462 3575.709, 2202.264 3578.619, 2202.514 3579.023 C 2202.764 3579.428, 2190.151 3598.272, 2174.484 3620.900 C 2158.818 3643.528, 2146 3662.257, 2146 3662.521 C 2146 3662.784, 2156.169 3663, 2168.599 3663 C 2187.426 3663, 2191.772 3662.728, 2194.636 3661.368 C 2197.416 3660.049, 2201.599 3654.451, 2216.486 3632.118 C 2240.943 3595.433, 2244.278 3591.108, 2250.500 3588.012 C 2255.417 3585.566, 2255.981 3585.518, 2284.403 3585.150 C 2304.369 3584.891, 2314.496 3585.132, 2317.157 3585.929 C 2324.244 3588.052, 2324.264 3588.161, 2324.072 3623.095 C 2323.895 3655.373, 2324.369 3660.057, 2328.014 3662.008 C 2329.048 3662.561, 2338.006 3663, 2348.260 3663 C 2366.191 3663, 2366.706 3662.942, 2368.826 3660.686 L 2371 3658.371 2371 3525.609 L 2371 3392.846 2368.077 3389.923 L 2365.154 3387 2348.827 3387.161 C 2339.847 3387.250, 2313.375 3387.673, 2290 3388.101 M 3043.365 3388.127 C 3038.445 3390.607, 3038.623 3385.424, 3038.642 3525.285 C 3038.656 3624.955, 3038.947 3657.035, 3039.853 3658.727 C 3040.509 3659.952, 3041.961 3661.444, 3043.079 3662.042 C 3045.704 3663.447, 3173.101 3663.362, 3187.433 3661.946 C 3207.439 3659.969, 3220.656 3656.357, 3235.200 3648.894 C 3247.082 3642.797, 3258.998 3630.725, 3264.707 3619 C 3270.708 3606.676, 3272.315 3598.788, 3271.765 3584.360 C 3270.703 3556.506, 3258.775 3539.660, 3229.500 3524.669 C 3218.608 3519.091, 3218.705 3519.849, 3228.103 3513.769 C 3248.949 3500.283, 3257.965 3483.595, 3257.965 3458.500 C 3257.965 3440.223, 3252.949 3425.576, 3242.939 3414.623 C 3233.551 3404.351, 3221.801 3398.323, 3201.749 3393.491 C 3178.788 3387.958, 3175.263 3387.728, 3108 3387.377 C 3064.754 3387.151, 3044.842 3387.382, 3043.365 3388.127 M 3340.110 3388.331 C 3334.828 3391.401, 3335.073 3384.706, 3335.035 3526.750 C 3335.001 3653.801, 3335.072 3659.072, 3336.838 3660.838 C 3338.360 3662.360, 3340.948 3662.784, 3351.922 3663.309 C 3371.318 3664.237, 3378.799 3662.117, 3387.137 3653.332 C 3389.137 3651.224, 3404.457 3631.275, 3421.181 3609 C 3460.357 3556.820, 3522.505 3475.297, 3525.811 3471.750 C 3527.221 3470.238, 3529.190 3469, 3530.187 3469 C 3531.924 3469, 3532.001 3472.763, 3532.024 3558.750 C 3532.037 3608.113, 3532.449 3650.231, 3532.940 3652.347 C 3534.073 3657.226, 3537.377 3660.760, 3541.935 3661.965 C 3547.782 3663.511, 3571.042 3663.694, 3574.528 3662.221 C 3580.935 3659.513, 3580.533 3669.060, 3580.165 3528.500 C 3579.970 3453.686, 3579.443 3398.972, 3578.896 3396.823 C 3576.843 3388.740, 3570.105 3386.427, 3550.761 3387.163 C 3533.700 3387.812, 3535.470 3386.286, 3504.168 3427.348 C 3489.430 3446.682, 3462.587 3482.075, 3444.518 3506 C 3389.384 3579.002, 3386.760 3582.306, 3385.552 3580.272 C 3384.847 3579.085, 3384.335 3548.796, 3384 3488.500 C 3383.530 3403.920, 3383.390 3398.279, 3381.673 3394.827 C 3378.696 3388.844, 3374.945 3387.673, 3357.500 3387.280 C 3346.019 3387.021, 3341.939 3387.268, 3340.110 3388.331 M 3088 3465.353 L 3088 3504.707 3095.651 3505.353 C 3106.681 3506.286, 3154.410 3506.092, 3168.500 3505.058 C 3184.348 3503.895, 3190.577 3501.583, 3198.080 3494.080 C 3206.174 3485.986, 3208.435 3479.769, 3208.472 3465.500 C 3208.498 3455.430, 3208.262 3454.015, 3205.683 3448.762 C 3202.282 3441.835, 3196.142 3435.481, 3189.200 3431.704 C 3179.702 3426.537, 3174.422 3426.036, 3129.250 3426.017 L 3088 3426 3088 3465.353 M 1511.824 3428.747 L 1497.147 3429.053 1496.606 3431.776 C 1495.689 3436.388, 1494.082 3460.324, 1493 3485.500 C 1490.255 3549.337, 1485.118 3578.420, 1471.379 3607.896 C 1468.971 3613.064, 1467 3617.451, 1467 3617.646 C 1467 3617.841, 1498.050 3618, 1536 3618 L 1605 3618 1605 3523 L 1605 3428 1565.750 3428.221 C 1544.162 3428.343, 1519.896 3428.580, 1511.824 3428.747 M 2246 3428.956 C 2234.515 3429.773, 2229.592 3431.091, 2220.764 3435.709 C 2202.743 3445.137, 2193.062 3463.412, 2193.017 3488.090 C 2192.968 3515.515, 2205.829 3534.780, 2229.500 3542.737 L 2237.500 3545.427 2278.028 3545.782 C 2318.198 3546.134, 2318.580 3546.118, 2321.278 3543.996 L 2324 3541.855 2324 3487.538 C 2324 3435.560, 2323.918 3433.120, 2322.090 3430.861 L 2320.179 3428.500 2287.840 3428.390 C 2270.053 3428.329, 2251.225 3428.584, 2246 3428.956 M 306.133 3498.567 C 292.181 3531.310, 280.973 3558.306, 281.225 3558.559 C 281.478 3558.811, 305.314 3558.901, 334.194 3558.759 L 386.703 3558.500 364.372 3507 C 333.396 3435.564, 334.974 3438.997, 333.121 3439.017 C 331.933 3439.030, 324.718 3454.951, 306.133 3498.567 M 1858.099 3441.177 C 1857.600 3442.455, 1846.123 3469.301, 1832.596 3500.835 C 1819.068 3532.369, 1808 3558.357, 1808 3558.585 C 1808 3558.813, 1831.850 3559, 1861 3559 C 1890.150 3559, 1914 3558.839, 1914 3558.641 C 1914 3558.444, 1902.401 3531.561, 1888.225 3498.900 C 1862.057 3438.612, 1860.366 3435.372, 1858.099 3441.177 M 2817.748 3498.750 L 2792.148 3558.500 2844.732 3558.759 C 2873.653 3558.901, 2897.511 3558.823, 2897.749 3558.584 C 2897.988 3558.346, 2886.563 3531.342, 2872.361 3498.575 C 2853.683 3455.484, 2846.097 3439, 2844.943 3439 C 2843.785 3439, 2836.318 3455.406, 2817.748 3498.750 M 3091.750 3542.669 L 3088 3543.121 3088 3583.560 L 3088 3624 3136.750 3623.985 C 3188.519 3623.970, 3192.918 3623.633, 3202.004 3618.998 C 3210.841 3614.490, 3217.477 3606.442, 3221.036 3595.917 C 3223.783 3587.794, 3223.409 3575.390, 3220.165 3567 C 3217.436 3559.943, 3210.655 3552.219, 3204.017 3548.606 C 3193.599 3542.936, 3192.468 3542.824, 3142 3542.508 C 3116.425 3542.348, 3093.813 3542.420, 3091.750 3542.669" stroke="none" fill="#033470" fill-rule="evenodd"/><path d="M 1765.335 1702.750 C 1646.440 1843.072, 1576.236 1954.638, 1541.477 2058.500 C 1530.343 2091.768, 1524 2119.275, 1519.341 2154.500 C 1516.835 2173.450, 1516.828 2223.191, 1519.329 2242.500 C 1527.386 2304.707, 1548.296 2359.634, 1585.759 2417 C 1594.713 2430.710, 1605.483 2445.373, 1627.627 2474 C 1676.283 2536.900, 1736.023 2653.934, 1785.089 2782.477 C 1789.913 2795.114, 1794.229 2805.569, 1794.680 2805.710 C 1795.131 2805.851, 1798.057 2802.036, 1801.182 2797.233 C 1833.878 2746.976, 1851.558 2694.435, 1856.951 2631.500 C 1858.273 2616.073, 1858.286 2572.551, 1856.975 2554.500 C 1849.354 2449.625, 1813.648 2322.095, 1739.522 2135 C 1717.896 2080.415, 1712.120 2061.476, 1706.577 2026.977 C 1702.567 2002.014, 1701.608 1989.127, 1701.631 1960.500 C 1701.674 1908.734, 1709.637 1861.242, 1727.099 1808.615 C 1737.964 1775.869, 1759.491 1729.063, 1777.053 1700 C 1787.047 1683.461, 1786.823 1684, 1783.718 1684 C 1781.710 1684, 1778.114 1687.668, 1765.335 1702.750" stroke="none" fill="#0097dc" fill-rule="evenodd"/><path d="M 1856.640 1519.732 C 1846.082 1569.241, 1848.915 1624.583, 1865.025 1683.500 C 1876.680 1726.125, 1890.755 1762.058, 1932.988 1857 C 1979.666 1961.936, 1998.033 2009.658, 2015.546 2071.500 C 2068.330 2257.899, 2053.174 2439.650, 1970.603 2610.470 C 1935.821 2682.426, 1885.440 2755.367, 1833.743 2808.614 C 1822.498 2820.196, 1821.164 2821.917, 1822.983 2822.495 C 1825.754 2823.374, 1835.939 2816.802, 1861.500 2797.642 C 2031.143 2670.480, 2152.799 2529.956, 2212.245 2392.500 C 2232.854 2344.848, 2245.340 2300.197, 2251.674 2251.500 C 2253.121 2240.383, 2253.496 2230.602, 2253.498 2204 C 2253.500 2169.994, 2253.186 2165.597, 2248.886 2139.500 C 2240.059 2085.924, 2216.193 2029.561, 2182.086 1981.741 C 2163.621 1955.852, 2151.754 1942.678, 2103.952 1895 C 2058.294 1849.461, 2044.033 1834.249, 2019.579 1805 C 1962.151 1736.313, 1916.014 1661.663, 1887.008 1590.500 C 1881.237 1576.341, 1870.231 1545.915, 1863.599 1525.789 C 1861.296 1518.798, 1859.161 1512.827, 1858.854 1512.521 C 1858.548 1512.214, 1857.552 1515.459, 1856.640 1519.732" stroke="none" fill="#ec041c" fill-rule="evenodd"/><path d="M 1846.459 45.866 C 1841.496 50.615, 1827.325 63.951, 1814.968 75.501 C 1631.676 246.828, 1462.454 382.175, 1329 464.190 C 1295.703 484.653, 1274.051 496.486, 1204 532.506 C 1047.306 613.079, 973.947 657.323, 882.500 726.412 C 801.286 787.769, 740.930 846.147, 695.791 907 C 613.729 1017.630, 572.136 1151.166, 568.321 1316.250 L 567.680 1344 299.340 1344 L 31 1344 31 2071 L 31 2798 579.567 2798 C 1101.552 2798, 1128.109 2797.915, 1127.593 2796.250 C 1126.829 2793.780, 1125.276 2764.767, 1123.995 2729 C 1123.394 2712.225, 1122.257 2692.875, 1121.468 2686 C 1117.678 2652.967, 1111.729 2550.284, 1106.984 2436 C 1104.994 2388.075, 1104.628 2329.297, 1106.102 2294.500 C 1108.598 2235.578, 1106.824 2159.511, 1101.437 2094.500 C 1087.722 1928.986, 1042.058 1836.047, 903.347 1691.332 C 885.706 1672.927, 885.084 1672.142, 887.737 1671.611 C 896.276 1669.900, 960.281 1665.585, 1001.775 1663.922 C 1035.254 1662.581, 1134.197 1663.208, 1159.500 1664.922 C 1230.166 1669.710, 1286.320 1678.076, 1331.034 1690.479 C 1347.196 1694.962, 1376.011 1704.727, 1390.072 1710.486 C 1396.135 1712.968, 1401.261 1715, 1401.465 1715 C 1401.669 1715, 1402.813 1710.612, 1404.007 1705.250 C 1421.201 1628.045, 1452.313 1529.610, 1485.473 1447.500 C 1559.922 1263.151, 1655.259 1120.978, 1764.331 1031.647 C 1789.061 1011.393, 1822.202 988.592, 1844.594 976.425 L 1851.688 972.571 1862.094 978.405 C 1930.061 1016.507, 1998.886 1078.383, 2059.637 1156 C 2124.604 1239.006, 2186.516 1348.479, 2237.217 1470 C 2267.757 1543.199, 2295.721 1624.077, 2314.546 1693.647 C 2317.649 1705.116, 2320.309 1714.625, 2320.456 1714.779 C 2320.603 1714.932, 2327.424 1712.397, 2335.612 1709.147 C 2402.391 1682.635, 2476.716 1668.989, 2581.500 1664.002 C 2624.628 1661.950, 2706.496 1662.878, 2758.500 1666.009 C 2779.747 1667.289, 2823.569 1670.854, 2827.266 1671.605 C 2829.927 1672.145, 2829.358 1672.870, 2812.181 1690.833 C 2739.301 1767.048, 2698.408 1820.906, 2668.552 1880 C 2631.647 1953.048, 2616.284 2023.807, 2610.041 2149.500 C 2607.731 2196.003, 2606.788 2249.172, 2607.947 2267.500 C 2609.801 2296.806, 2610.380 2365.168, 2609.103 2404 C 2605.617 2510.034, 2598.471 2639.469, 2593.535 2686 C 2592.747 2693.425, 2591.612 2713.225, 2591.012 2730 C 2589.772 2764.669, 2588.192 2793.669, 2587.401 2796.250 C 2586.891 2797.915, 2613.379 2798, 3133.933 2798 L 3681 2798 3681 2071 L 3681 1344 3409.158 1344 L 3137.316 1344 3136.691 1313.750 C 3133.319 1150.366, 3099.710 1025.298, 3031.687 923 C 2987.028 855.838, 2928.527 797.832, 2835.500 728.470 C 2741.360 658.279, 2671.584 615.465, 2543.250 549.148 C 2526.063 540.267, 2497.938 525.732, 2480.750 516.849 C 2414.954 482.843, 2371.696 457.025, 2313 416.732 C 2189.078 331.662, 2030.226 200.747, 1882.630 62.051 C 1870.601 50.748, 1859.572 40.540, 1858.121 39.366 L 1855.482 37.233 1846.459 45.866" stroke="none" fill="#0489a0" fill-rule="evenodd"/></svg>