<svg xmlns="http://www.w3.org/2000/svg" width="3753" height="3713" viewBox="0 0 3753 3713" version="1.1"><path d="M 182.209 2967.566 C 180.979 2968.427, 179.096 2970.851, 178.025 2972.952 C 176.953 2975.052, 154.019 3031.941, 127.059 3099.372 C 100.100 3166.802, 76.648 3224.736, 74.943 3228.113 C 68.021 3241.826, 58.969 3247.869, 44.025 3248.755 C 39.336 3249.032, 34.937 3249.706, 34.250 3250.252 C 32.439 3251.690, 32.717 3254.785, 34.750 3255.822 C 36.847 3256.891, 128.044 3256.709, 129.787 3255.631 C 131.341 3254.671, 131.348 3251.748, 129.800 3250.200 C 129.090 3249.490, 125.678 3249, 121.449 3249 C 106.528 3249, 103.009 3244.595, 106.111 3229.799 C 107.098 3225.093, 128.753 3166.198, 131.130 3161.756 C 132.005 3160.123, 135.100 3160, 175.427 3160 L 218.783 3160 220.259 3163.750 C 221.072 3165.813, 228.140 3184.502, 235.968 3205.283 C 246.121 3232.238, 250.025 3243.766, 249.587 3245.508 C 249.169 3247.175, 247.974 3248.209, 245.820 3248.767 C 241.645 3249.849, 239.862 3252.642, 242.224 3254.400 C 244.350 3255.982, 269.534 3257, 306.535 3257 C 334.935 3257, 338.572 3256.667, 340.034 3253.937 C 341.765 3250.703, 338.908 3249.355, 328.958 3248.710 C 308.656 3247.395, 300.835 3238.998, 284.865 3201.368 C 280.515 3191.119, 258.465 3136.556, 235.863 3080.117 C 213.262 3023.678, 193.903 2975.794, 192.844 2973.709 C 190.608 2969.309, 187.551 2966, 185.723 2966 C 185.020 2966, 183.439 2966.705, 182.209 2967.566 M 1043.142 2968.547 C 1042.040 2969.948, 1040.887 2972.310, 1040.580 2973.797 C 1040.273 2975.284, 1031.466 3032.931, 1021.008 3101.902 C 1010.551 3170.873, 1001.505 3229.148, 1000.906 3231.402 C 999.154 3237.995, 994.873 3245.015, 991.556 3246.729 C 989.884 3247.594, 985.362 3248.517, 981.508 3248.780 C 977.654 3249.042, 973.712 3249.665, 972.750 3250.164 C 970.724 3251.213, 970.423 3254.523, 972.250 3255.660 C 973.996 3256.746, 1059.103 3256.890, 1061.250 3255.810 C 1063.432 3254.712, 1063.548 3250.424, 1061.418 3249.607 C 1060.548 3249.273, 1057.645 3249, 1054.967 3249 C 1052.289 3249, 1047.714 3248.495, 1044.799 3247.878 C 1032.981 3245.377, 1030.448 3241.941, 1031.287 3229.550 C 1032.094 3217.638, 1051.367 3071.109, 1052.070 3071.543 C 1052.400 3071.747, 1060.931 3089.596, 1071.026 3111.207 C 1087.732 3146.969, 1126.749 3225.574, 1136.941 3244 C 1139.223 3248.125, 1142.388 3252.810, 1143.975 3254.411 C 1149.893 3260.381, 1147.147 3265.312, 1204.587 3145.549 C 1238.268 3075.325, 1242.538 3066.925, 1243.219 3069.549 C 1244.457 3074.320, 1266 3234.519, 1266 3238.954 C 1266 3242.872, 1265.426 3243.807, 1260.572 3247.789 C 1258.402 3249.569, 1258.599 3250.691, 1261.403 3252.528 C 1264.309 3254.433, 1281.001 3255.554, 1321.148 3256.542 C 1351.652 3257.292, 1356 3256.792, 1356 3252.529 C 1356 3249.670, 1354.361 3249, 1347.366 3249 C 1340.714 3249, 1328.824 3246.423, 1323.834 3243.899 C 1317.772 3240.834, 1314.369 3234.701, 1311.591 3221.838 C 1310.719 3217.802, 1302.119 3160.725, 1292.480 3095 C 1282.841 3029.275, 1274.509 2974.179, 1273.965 2972.565 C 1272.701 2968.818, 1270.154 2966, 1268.032 2966 C 1267.120 2966, 1265.214 2967.238, 1263.796 2968.750 C 1262.378 2970.262, 1238.125 3020.007, 1209.899 3079.294 L 1158.581 3187.088 1152.945 3175.294 C 1128.198 3123.501, 1055.368 2973.895, 1053.737 2971.503 C 1049.530 2965.332, 1046.365 2964.449, 1043.142 2968.547 M 2331.287 2968.250 C 2330.153 2969.488, 2328.248 2972.448, 2327.053 2974.828 C 2325.858 2977.208, 2303.043 3033.908, 2276.353 3100.828 C 2249.664 3167.748, 2226.426 3225.139, 2224.713 3228.365 C 2217.310 3242.308, 2208.937 3247.871, 2194.025 3248.755 C 2189.336 3249.032, 2184.938 3249.706, 2184.250 3250.252 C 2182.439 3251.690, 2182.717 3254.785, 2184.750 3255.822 C 2186.847 3256.891, 2278.044 3256.709, 2279.787 3255.631 C 2281.650 3254.480, 2281.227 3251.192, 2279.066 3250.035 C 2278.002 3249.466, 2274.162 3249, 2270.534 3249 C 2263.143 3249, 2257.698 3247.173, 2256.080 3244.150 C 2254.730 3241.627, 2254.729 3234.898, 2256.079 3229 C 2256.645 3226.525, 2262.547 3209.988, 2269.193 3192.250 L 2281.277 3160 2324.516 3160 C 2357.917 3160, 2367.979 3160.284, 2368.738 3161.250 C 2370.024 3162.886, 2400 3242.542, 2400 3244.324 C 2400 3246.209, 2397.045 3248.602, 2393.750 3249.385 C 2390.404 3250.180, 2390.026 3253.408, 2393.086 3255.046 C 2395.784 3256.490, 2480.974 3257.654, 2486 3256.316 C 2488.749 3255.584, 2489.567 3254.815, 2489.813 3252.727 C 2490.179 3249.619, 2489.446 3249.370, 2477.833 3248.645 C 2465.072 3247.849, 2457.971 3243.597, 2450.035 3232 C 2441.839 3220.023, 2437.993 3210.915, 2380.983 3068.500 C 2341.813 2970.651, 2342.878 2973.197, 2339.384 2969.045 C 2336.335 2965.421, 2334.081 2965.200, 2331.287 2968.250 M 3022.209 2967.566 C 3020.979 2968.427, 3019.111 2970.822, 3018.057 2972.888 C 3017.003 2974.954, 2994.036 3031.908, 2967.019 3099.453 C 2940.002 3166.997, 2916.535 3224.959, 2914.870 3228.257 C 2908.024 3241.820, 2898.917 3247.872, 2884.025 3248.755 C 2879.336 3249.032, 2874.938 3249.706, 2874.250 3250.252 C 2872.439 3251.690, 2872.717 3254.785, 2874.750 3255.822 C 2876.847 3256.891, 2968.044 3256.709, 2969.787 3255.631 C 2971.341 3254.671, 2971.348 3251.748, 2969.800 3250.200 C 2969.090 3249.490, 2965.678 3249, 2961.449 3249 C 2946.528 3249, 2943.009 3244.595, 2946.111 3229.799 C 2947.098 3225.093, 2968.753 3166.198, 2971.130 3161.756 C 2972.005 3160.123, 2975.100 3160, 3015.427 3160 L 3058.783 3160 3060.259 3163.750 C 3061.072 3165.813, 3068.140 3184.502, 3075.968 3205.283 C 3086.121 3232.238, 3090.025 3243.766, 3089.587 3245.508 C 3089.169 3247.175, 3087.974 3248.209, 3085.820 3248.767 C 3081.645 3249.849, 3079.862 3252.642, 3082.224 3254.400 C 3084.350 3255.982, 3109.534 3257, 3146.535 3257 C 3174.935 3257, 3178.572 3256.667, 3180.034 3253.937 C 3181.756 3250.719, 3178.905 3249.355, 3169.130 3248.721 C 3154.713 3247.787, 3147.981 3243.757, 3139.482 3230.973 C 3131.622 3219.149, 3128.427 3211.547, 3070.993 3068 C 3051.077 3018.225, 3033.913 2975.794, 3032.850 2973.709 C 3030.605 2969.306, 3027.549 2966, 3025.723 2966 C 3025.020 2966, 3023.439 2966.705, 3022.209 2967.566 M 1603.602 2971.802 C 1601.955 2974.988, 1595.169 3008.399, 1594.316 3017.525 C 1593.871 3022.282, 1594.085 3023.825, 1595.328 3024.858 C 1597.247 3026.450, 1600.018 3026.034, 1601.038 3024 C 1601.452 3023.175, 1603.434 3019.019, 1605.443 3014.765 C 1609.647 3005.859, 1613.463 3002.380, 1621.305 3000.301 C 1626.382 2998.956, 1653.173 2997.428, 1683.796 2996.738 L 1699.093 2996.393 1698.695 3111.446 C 1698.282 3230.890, 1698.178 3233.811, 1694.051 3241.900 C 1691.690 3246.529, 1688.476 3248.020, 1679.536 3248.639 C 1675.666 3248.907, 1671.537 3249.319, 1670.360 3249.554 C 1667.536 3250.120, 1666.524 3252.952, 1668.455 3254.884 C 1669.788 3256.216, 1677.327 3256.430, 1727.242 3256.553 C 1758.734 3256.630, 1785.287 3256.296, 1786.250 3255.811 C 1787.213 3255.326, 1788 3254.061, 1788 3253 C 1788 3250.103, 1785.527 3249.335, 1774 3248.651 C 1757.010 3247.642, 1753.112 3245.637, 1750.472 3236.546 C 1747.655 3226.846, 1747.030 3202.016, 1747.015 3099.287 L 1747 2996.073 1758.250 2996.523 C 1764.438 2996.771, 1777.600 2997.203, 1787.500 2997.483 C 1797.400 2997.763, 1808.527 2998.643, 1812.227 2999.439 C 1829.159 3003.081, 1837 3010.019, 1837 3021.357 C 1837 3026.921, 1839.917 3031.086, 1842.645 3029.418 C 1845.338 3027.771, 1845.745 3024.441, 1846.374 2998.910 C 1846.834 2980.208, 1846.680 2974.945, 1845.632 2973.512 C 1844.358 2971.769, 1843.916 2971.772, 1833.405 2973.602 C 1823.228 2975.373, 1816.359 2975.500, 1730.500 2975.500 C 1633.579 2975.500, 1622.340 2975.076, 1612.072 2971.028 C 1605.507 2968.441, 1605.332 2968.457, 1603.602 2971.802 M 2576.500 2970.021 C 2541.286 2974.568, 2515.841 2993.514, 2507.361 3021.500 C 2504.835 3029.837, 2504.849 3051.796, 2507.386 3061 C 2514.038 3085.133, 2530.850 3105.743, 2566.963 3134.035 C 2600.797 3160.543, 2609.990 3172.402, 2613.145 3193.614 C 2616.461 3215.910, 2602.087 3235.996, 2578.907 3241.460 C 2564.850 3244.774, 2545.784 3242.456, 2534.638 3236.079 C 2526.967 3231.690, 2519.598 3223.728, 2515.464 3215.362 C 2511.839 3208.025, 2508.038 3192.939, 2508.013 3185.785 C 2507.990 3179.363, 2502.167 3178.214, 2500.073 3184.220 C 2499.487 3185.902, 2498.473 3199.929, 2497.821 3215.389 C 2496.409 3248.826, 2496.201 3247.877, 2506 3252.699 C 2518.270 3258.737, 2535.974 3261.922, 2557.500 3261.963 C 2580.109 3262.007, 2596.114 3258.580, 2612.500 3250.189 C 2624.953 3243.812, 2638.737 3230.219, 2644.853 3218.287 C 2651.469 3205.378, 2653.325 3197.074, 2653.296 3180.500 C 2653.268 3164.240, 2651.407 3155.565, 2645.145 3142.500 C 2637.313 3126.160, 2620.150 3107.461, 2596.038 3089 C 2562.497 3063.319, 2552.498 3053.820, 2546.777 3042.199 C 2543.735 3036.020, 2543.500 3034.823, 2543.500 3025.521 C 2543.500 3016.783, 2543.837 3014.780, 2546.135 3009.880 C 2553.039 2995.157, 2566.889 2987.633, 2587 2987.681 C 2603.011 2987.720, 2613.904 2992.025, 2623.534 3002.121 C 2630.210 3009.120, 2634.601 3018.063, 2635.907 3027.318 C 2636.943 3034.666, 2638.192 3037, 2641.087 3037 C 2644.114 3037, 2644.998 3033.709, 2645.031 3022.316 C 2645.049 3016.367, 2645.479 3004.398, 2645.987 2995.717 C 2646.496 2987.037, 2646.660 2979.278, 2646.352 2978.475 C 2644.314 2973.163, 2596.745 2967.406, 2576.500 2970.021 M 2793.247 2970.031 C 2770.551 2972.897, 2752.259 2981.509, 2739.224 2995.467 C 2727.150 3008.395, 2722.036 3021.933, 2722.022 3041 C 2721.997 3074.012, 2736.946 3096.686, 2783 3133.490 C 2808.508 3153.875, 2818.265 3163.781, 2823.876 3174.992 C 2828.834 3184.897, 2830.345 3192.042, 2829.791 3202.951 C 2829.239 3213.819, 2825.926 3221.202, 2818.067 3229.080 C 2807.768 3239.402, 2794.678 3243.716, 2776.695 3242.713 C 2755.120 3241.510, 2739.800 3231.953, 2731.574 3214.566 C 2728.395 3207.845, 2725.016 3194.087, 2725.007 3187.821 C 2724.996 3180.314, 2720.040 3177.342, 2717.248 3183.169 C 2715.625 3186.554, 2713.726 3218.764, 2714.166 3235.444 C 2714.486 3247.602, 2714.602 3248.197, 2717 3250.033 C 2720.622 3252.807, 2734.463 3257.629, 2744.674 3259.676 C 2757.431 3262.233, 2791.110 3262.230, 2802.984 3259.672 C 2821.956 3255.585, 2835.599 3248.406, 2848 3235.988 C 2857.737 3226.237, 2861.938 3219.658, 2866.345 3207.261 C 2869.362 3198.777, 2869.461 3197.962, 2869.480 3181.500 C 2869.503 3162.078, 2868.466 3156.762, 2862.021 3143.241 C 2852.515 3123.300, 2837.567 3107.626, 2803.348 3081.715 C 2778.829 3063.149, 2768.544 3052.958, 2763.268 3042 C 2759.469 3034.110, 2758.867 3020.009, 2761.977 3011.753 C 2766.770 2999.027, 2779.214 2990.236, 2795.541 2988.042 C 2813.366 2985.647, 2830.409 2990.962, 2840.412 3002.034 C 2847.707 3010.109, 2853 3021.774, 2853 3029.777 C 2853 3034.381, 2854.918 3037.355, 2857.558 3036.847 C 2861.155 3036.154, 2861.740 3032.290, 2862.395 3004.886 C 2862.909 2983.404, 2862.776 2978.059, 2861.706 2977.171 C 2860.031 2975.781, 2845.971 2972.497, 2835.500 2971.050 C 2824.195 2969.489, 2801.818 2968.949, 2793.247 2970.031 M 1547.500 2973.152 C 1541.522 2975.106, 1490.890 2976.146, 1440 2975.360 C 1380.068 2974.435, 1383.199 2974.437, 1379.750 2975.328 C 1376.813 2976.087, 1376.012 2978.976, 1378.250 2980.741 C 1378.938 2981.283, 1383.550 2982.001, 1388.500 2982.337 C 1398.953 2983.045, 1405.816 2985.111, 1409.009 2988.510 C 1414.194 2994.029, 1414.247 2994.937, 1414.731 3086.500 C 1415.170 3169.568, 1414.203 3221.302, 1412.001 3232.500 C 1410.518 3240.043, 1407.984 3244.957, 1404.701 3246.655 C 1403.087 3247.489, 1398.332 3248.419, 1394.133 3248.721 C 1389.935 3249.023, 1385.713 3249.675, 1384.750 3250.170 C 1382.802 3251.172, 1382.398 3254.510, 1384.097 3255.560 C 1385.113 3256.188, 1460.931 3257.166, 1526.670 3257.400 C 1562.344 3257.527, 1560.032 3259.025, 1563.548 3233.500 C 1564.457 3226.900, 1565.268 3216.833, 1565.350 3211.128 C 1565.478 3202.283, 1565.245 3200.592, 1563.769 3199.645 C 1561.140 3197.958, 1559.140 3200.622, 1557.429 3208.086 C 1554.162 3222.344, 1550.745 3227.536, 1541.745 3231.925 C 1533.390 3235.999, 1520.547 3237.469, 1500 3236.704 C 1477.948 3235.883, 1470.178 3233.190, 1465.951 3224.904 C 1462.521 3218.181, 1461.779 3203.478, 1462.552 3157.611 L 1463.258 3115.722 1491.379 3116.274 C 1523.918 3116.914, 1527.585 3117.584, 1533.332 3123.946 C 1536.994 3127.999, 1537.600 3129.889, 1538.799 3141 C 1539.462 3147.146, 1539.650 3147.517, 1542.250 3147.816 C 1546.037 3148.252, 1546.583 3146.310, 1547.399 3129.500 C 1547.773 3121.800, 1548.778 3109.295, 1549.631 3101.710 C 1550.485 3094.126, 1550.931 3087.264, 1550.623 3086.460 C 1549.675 3083.990, 1546.916 3084.823, 1542.467 3088.924 C 1540.125 3091.082, 1536.475 3093.400, 1534.355 3094.074 C 1531.758 3094.901, 1519.486 3095.444, 1496.741 3095.741 L 1462.981 3096.181 1463.241 3045.840 L 1463.500 2995.500 1487.500 2995.813 C 1516.696 2996.194, 1525.643 2997.173, 1533 3000.793 C 1539.970 3004.224, 1542.805 3008.974, 1543.668 3018.669 C 1544.373 3026.607, 1545.357 3029, 1547.913 3029 C 1551.426 3029, 1552.127 3026.317, 1553.587 3007.312 C 1554.381 2996.965, 1555.474 2986.055, 1556.016 2983.066 C 1556.557 2980.078, 1557 2976.365, 1557 2974.816 C 1557 2972.288, 1556.668 2972.009, 1553.750 2972.086 C 1551.963 2972.133, 1549.150 2972.613, 1547.500 2973.152 M 347.500 2974.448 C 346.950 2974.655, 345.262 2975.098, 343.750 2975.432 C 340.806 2976.081, 339.992 2978.960, 342.250 2980.741 C 342.938 2981.283, 347.550 2982.001, 352.500 2982.337 C 362.953 2983.045, 369.816 2985.111, 373.009 2988.510 C 378.194 2994.029, 378.247 2994.937, 378.731 3086.500 C 379.170 3169.568, 378.203 3221.302, 376.001 3232.500 C 374.518 3240.043, 371.984 3244.957, 368.701 3246.655 C 367.087 3247.489, 362.332 3248.419, 358.133 3248.721 C 353.935 3249.023, 349.712 3249.675, 348.750 3250.170 C 346.724 3251.212, 346.422 3254.524, 348.250 3255.657 C 348.938 3256.083, 374.203 3256.466, 404.395 3256.508 C 452.585 3256.576, 459.525 3256.396, 461.207 3255.034 C 463.550 3253.136, 462.702 3250.168, 459.640 3249.553 C 458.463 3249.316, 453.225 3248.850, 448 3248.517 C 436.014 3247.752, 432.318 3246.025, 429.149 3239.709 C 425.791 3233.013, 424.889 3214.599, 425.225 3159.611 L 425.500 3114.722 434.611 3126.111 C 439.621 3132.375, 453.750 3149.200, 466.007 3163.500 C 526.073 3233.578, 542.548 3248.889, 564.103 3254.670 C 569.905 3256.226, 578.830 3256.397, 660 3256.503 C 709.225 3256.567, 750.288 3256.240, 751.250 3255.775 C 753.507 3254.685, 753.507 3251.330, 751.250 3250.172 C 750.288 3249.678, 744.775 3248.991, 739 3248.644 C 733.225 3248.298, 726.821 3247.542, 724.769 3246.966 C 720.074 3245.645, 716.464 3241.034, 714.995 3234.480 C 713.049 3225.794, 712.064 3199.786, 712.031 3156.243 L 712 3113.987 784.750 3114.243 L 857.500 3114.500 857.786 3147.500 C 858.127 3186.808, 856.666 3225.878, 854.522 3234.777 C 851.859 3245.834, 849.340 3247.840, 837 3248.729 C 832.875 3249.027, 828.712 3249.675, 827.750 3250.170 C 825.732 3251.208, 825.420 3254.523, 827.234 3255.645 C 827.912 3256.064, 854.293 3256.455, 885.857 3256.514 C 936.613 3256.609, 943.470 3256.440, 945.184 3255.052 C 947.845 3252.897, 946.585 3250.172, 942.653 3249.578 C 940.919 3249.316, 935.236 3248.830, 930.025 3248.498 C 917.393 3247.693, 912.588 3245.583, 909.985 3239.699 C 908.920 3237.290, 907.542 3231.535, 906.923 3226.910 C 905.412 3215.613, 904.478 3029.950, 905.830 3009.769 C 907.298 2987.864, 909.383 2984.780, 924 2982.896 C 937.140 2981.202, 937 2981.248, 937 2978.540 C 937 2977.208, 936.488 2975.802, 935.863 2975.415 C 935.238 2975.029, 924.325 2974.875, 911.613 2975.073 C 882.528 2975.526, 881.013 2975.525, 849.199 2975.059 C 825.567 2974.712, 822.728 2974.844, 821.216 2976.355 C 819.921 2977.651, 819.784 2978.435, 820.622 2979.769 C 821.463 2981.105, 823.795 2981.662, 830.855 2982.211 C 847.903 2983.538, 852.829 2986.242, 855.673 2995.837 C 857.132 3000.758, 857.362 3007.462, 857.426 3047 L 857.500 3092.500 785 3092.500 L 712.500 3092.500 712.211 3054.500 C 711.897 3013.135, 712.861 2995.630, 715.723 2990.744 C 718.832 2985.435, 722.061 2983.821, 731.665 2982.774 C 742.094 2981.638, 743.500 2981.060, 743.500 2977.908 C 743.500 2974.581, 740.922 2974.342, 712.568 2975.034 C 699.406 2975.355, 676.456 2975.352, 661.568 2975.026 C 631.652 2974.372, 627.694 2974.635, 627.178 2977.313 C 626.529 2980.684, 628.740 2981.681, 638.249 2982.306 C 652.673 2983.253, 658.768 2986.022, 661.794 2993 C 664.251 2998.665, 665.240 3049.252, 664.601 3136.500 C 664.012 3216.825, 663.400 3230.182, 659.878 3239.595 C 656.941 3247.447, 654.582 3248.477, 639.500 3248.490 C 629.446 3248.498, 626.365 3248.112, 620.500 3246.109 C 593.075 3236.741, 574.312 3220.329, 505.478 3145.500 C 483.249 3121.334, 460 3094.993, 460 3093.972 C 460 3092.365, 548.333 3005.854, 555.268 3000.669 C 564.237 2993.963, 577.491 2986.707, 584 2984.940 C 586.475 2984.268, 592.550 2983.203, 597.500 2982.573 C 606.495 2981.428, 606.500 2981.426, 606.500 2978.536 C 606.500 2976.288, 605.943 2975.502, 604 2975.006 C 602.625 2974.655, 590.475 2974.725, 577 2975.162 C 563.525 2975.599, 551.945 2975.758, 551.267 2975.516 C 550.588 2975.274, 541.870 2975.009, 531.894 2974.928 C 517.570 2974.811, 513.570 2975.066, 512.878 2976.140 C 511.423 2978.400, 512.360 2980.413, 515.512 2981.794 C 521.105 2984.246, 521.498 2984.673, 521.766 2988.602 C 522.375 2997.506, 510.260 3011.673, 440.617 3083.500 L 425.104 3099.500 425.087 3056.500 C 425.079 3032.850, 425.463 3009.113, 425.942 3003.752 C 427.297 2988.598, 430.602 2984.570, 443.060 2982.888 C 454.881 2981.292, 455 2981.248, 455 2978.450 C 455 2974.371, 459.584 2974.670, 401.230 2974.942 C 377.982 2975.050, 356.607 2974.899, 353.730 2974.605 C 350.854 2974.312, 348.050 2974.241, 347.500 2974.448 M 1950.500 2974.854 C 1948.185 2975.360, 1947.428 2976.129, 1947.187 2978.220 C 1946.938 2980.379, 1947.344 2981.022, 1949.187 2981.380 C 1960.262 2983.531, 1963.161 2984.415, 1967.746 2987.037 C 1974.103 2990.671, 1982.071 2998.485, 1989.370 3008.242 C 2000.691 3023.377, 2056.514 3115.005, 2061.186 3126.124 C 2067.285 3140.634, 2067.515 3142.835, 2067.345 3185 C 2067.259 3206.175, 2066.727 3226.564, 2066.162 3230.310 C 2064.122 3243.821, 2060.048 3247.791, 2047.279 3248.710 C 2043.001 3249.018, 2038.713 3249.675, 2037.750 3250.170 C 2035.730 3251.209, 2035.420 3254.524, 2037.239 3255.648 C 2038.985 3256.727, 2152.119 3256.885, 2154.250 3255.811 C 2155.213 3255.326, 2156 3254.061, 2156 3253 C 2156 3250.087, 2153.520 3249.334, 2141.652 3248.641 C 2123.400 3247.575, 2118.996 3244.151, 2116.898 3229.399 C 2116.238 3224.754, 2115.731 3205.229, 2115.667 3182 C 2115.539 3135.214, 2115.729 3133.853, 2124.945 3115.500 C 2131.913 3101.624, 2152.190 3066.708, 2168.790 3040 C 2196.301 2995.738, 2205.820 2985.901, 2224.063 2982.884 C 2227.603 2982.298, 2231.463 2981.639, 2232.640 2981.418 C 2235.417 2980.898, 2236.484 2978.056, 2234.607 2976.178 C 2233.406 2974.977, 2229.679 2974.748, 2214.012 2974.910 C 2203.492 2975.018, 2194.348 2975.300, 2193.692 2975.535 C 2193.036 2975.770, 2183.725 2975.611, 2173 2975.181 C 2150.111 2974.264, 2147.500 2974.557, 2147.500 2978.041 C 2147.500 2980.087, 2148.283 2980.752, 2152.161 2982 C 2154.724 2982.825, 2157.812 2984.400, 2159.024 2985.500 C 2160.974 2987.271, 2161.173 2988.243, 2160.761 2994 C 2160.470 2998.056, 2159.187 3003.132, 2157.349 3007.500 C 2155.729 3011.350, 2143.452 3034.300, 2130.069 3058.500 C 2101.449 3110.248, 2101.026 3111, 2100.543 3111 C 2100.339 3111, 2099.086 3109.088, 2097.759 3106.750 C 2096.432 3104.412, 2083.725 3082.250, 2069.521 3057.501 C 2034.385 2996.281, 2030.915 2988.846, 2035.628 2984.872 C 2036.523 2984.118, 2039.336 2982.825, 2041.878 2982 C 2045.693 2980.762, 2046.500 2980.076, 2046.500 2978.072 C 2046.500 2976.226, 2045.780 2975.444, 2043.500 2974.809 C 2041.850 2974.349, 2039.375 2974.246, 2038 2974.579 C 2035.087 2975.285, 1959.595 2975.368, 1955.955 2974.670 C 1954.605 2974.411, 1952.150 2974.494, 1950.500 2974.854 M 3138.607 2974.821 C 3132.280 2976.306, 3133.047 2982, 3139.573 2982 C 3145.904 2982, 3153.111 2984.159, 3156.389 2987.037 C 3158.166 2988.597, 3160.992 2992.715, 3162.668 2996.187 C 3164.344 2999.659, 3184.683 3059.425, 3207.866 3129 C 3231.049 3198.575, 3250.906 3256.963, 3251.994 3258.750 C 3254.355 3262.632, 3257.931 3263.069, 3261.132 3259.868 C 3266.865 3254.135, 3290.761 3196.018, 3328.510 3096 C 3336.087 3075.925, 3342.559 3059.202, 3342.893 3058.837 C 3343.227 3058.472, 3361.633 3101.903, 3383.795 3155.349 C 3405.957 3208.795, 3425.082 3254.275, 3426.295 3256.416 C 3427.508 3258.557, 3429.218 3260.755, 3430.095 3261.301 C 3432.674 3262.907, 3436.819 3261.250, 3438.538 3257.927 C 3439.403 3256.253, 3453.304 3215.197, 3469.428 3166.692 C 3510.608 3042.809, 3525.623 3000.139, 3531.050 2991.583 C 3534.875 2985.551, 3538.855 2983.268, 3546.912 2982.482 C 3550.536 2982.128, 3554.287 2981.620, 3555.250 2981.352 C 3557.228 2980.802, 3557.661 2976.527, 3555.852 2975.408 C 3555.220 2975.018, 3547.458 2974.849, 3538.602 2975.033 C 3518.569 2975.448, 3519.736 2975.449, 3494.821 2975.005 C 3478.855 2974.721, 3473.784 2974.934, 3472.571 2975.941 C 3470.597 2977.580, 3470.597 2978.454, 3472.571 2980.429 C 3473.496 2981.353, 3475.863 2982.002, 3478.321 2982.006 C 3486.907 2982.017, 3493.258 2984.959, 3495.101 2989.778 C 3496.987 2994.712, 3493.191 3009.560, 3471.532 3081.946 C 3459.263 3122.951, 3447.744 3161.797, 3445.933 3168.271 C 3444.123 3174.745, 3442.309 3179.695, 3441.902 3179.271 C 3441.496 3178.847, 3424.437 3138, 3403.994 3088.500 C 3383.551 3039, 3365.060 2994.255, 3362.902 2989.067 C 3360.744 2983.879, 3358.239 2978.817, 3357.335 2977.817 C 3353.691 2973.791, 3349.343 2976.338, 3345.730 2984.614 C 3344.797 2986.751, 3327.802 3032.136, 3307.964 3085.469 C 3288.126 3138.802, 3271.743 3182.590, 3271.558 3182.775 C 3270.590 3183.744, 3230.672 3051.487, 3221.071 3015.500 C 3215.111 2993.162, 3214.618 2986.952, 3218.596 2984.345 C 3220.023 2983.410, 3224.139 2982.387, 3227.742 2982.072 C 3235.083 2981.431, 3237.775 2979.346, 3234.932 2976.504 C 3233.071 2974.643, 3232.446 2974.622, 3186.861 2974.889 C 3167.260 2975.004, 3149.035 2974.883, 3146.361 2974.620 C 3143.688 2974.358, 3140.198 2974.448, 3138.607 2974.821 M 3579.500 2974.625 C 3578.400 2974.874, 3576.488 2975.294, 3575.250 2975.558 C 3572.778 2976.085, 3572.193 2979.119, 3574.250 2980.741 C 3574.938 2981.283, 3579.030 2982.011, 3583.345 2982.358 C 3600.143 2983.712, 3603.629 2987.729, 3605.058 3007.383 C 3606.252 3023.814, 3606.212 3187.756, 3605.008 3211.600 C 3603.899 3233.548, 3602.795 3239.901, 3599.387 3243.951 C 3596.727 3247.114, 3590.374 3249, 3582.385 3249 C 3579.901 3249, 3576.998 3249.466, 3575.934 3250.035 C 3573.760 3251.199, 3573.353 3254.482, 3575.239 3255.648 C 3576.985 3256.727, 3690.119 3256.885, 3692.250 3255.811 C 3694.582 3254.636, 3694.477 3251.325, 3692.066 3250.035 C 3691.002 3249.466, 3687.514 3248.991, 3684.316 3248.980 C 3676.075 3248.952, 3665.412 3247.264, 3661.855 3245.425 C 3656.786 3242.804, 3655.030 3237.136, 3653.893 3219.728 C 3652.415 3197.114, 3653.224 2999.612, 3654.813 2994.866 C 3657.691 2986.271, 3662.251 2983.443, 3674.934 2982.385 C 3681.604 2981.829, 3683.279 2981.347, 3684.141 2979.736 C 3685.721 2976.785, 3683.319 2975.037, 3677.471 2974.880 C 3674.737 2974.807, 3653.565 2974.839, 3630.423 2974.951 C 3607.280 2975.063, 3586.805 2974.934, 3584.923 2974.663 C 3583.040 2974.393, 3580.600 2974.376, 3579.500 2974.625 M 174.521 3045.750 C 170.544 3055.800, 140 3138.363, 140 3139.065 C 140 3139.627, 154.184 3140, 175.583 3140 C 197.435 3140, 211.038 3139.636, 210.833 3139.057 C 199.644 3107.409, 176.322 3044.044, 175.857 3044.026 C 175.503 3044.012, 174.902 3044.787, 174.521 3045.750 M 2324.542 3045.083 C 2324.253 3045.862, 2316.364 3066.954, 2307.009 3091.953 C 2297.654 3116.953, 2290 3137.990, 2290 3138.703 C 2290 3139.741, 2297.103 3140, 2325.607 3140 C 2359.120 3140, 2361.173 3139.897, 2360.509 3138.250 C 2360.121 3137.287, 2352.361 3116.025, 2343.264 3091 C 2334.168 3065.975, 2326.352 3045.087, 2325.895 3044.583 C 2325.408 3044.044, 2324.849 3044.250, 2324.542 3045.083 M 3014.500 3045.250 C 3014.259 3045.938, 3006.398 3067.112, 2997.031 3092.304 C 2987.664 3117.497, 2980 3138.534, 2980 3139.054 C 2980 3139.631, 2993.894 3140, 3015.583 3140 C 3037.435 3140, 3051.038 3139.636, 3050.833 3139.057 C 3038.339 3103.719, 3016.289 3044.044, 3015.719 3044.026 C 3015.289 3044.012, 3014.740 3044.563, 3014.500 3045.250 M 1000.203 3416.256 C 999.630 3416.946, 998.892 3418.634, 998.564 3420.006 C 998.235 3421.378, 997.060 3478.750, 995.953 3547.500 C 994.839 3616.652, 993.486 3675.181, 992.926 3678.500 C 990.715 3691.597, 987.075 3694.533, 971.556 3695.736 C 963.866 3696.333, 961.473 3696.879, 960.622 3698.231 C 959.785 3699.563, 959.918 3700.347, 961.199 3701.628 C 962.704 3703.133, 967.498 3703.303, 1010.874 3703.397 C 1037.280 3703.454, 1059.923 3703.257, 1061.192 3702.959 C 1063.835 3702.339, 1064.951 3698.218, 1062.837 3696.878 C 1062.102 3696.412, 1059.287 3696.024, 1056.582 3696.015 C 1048.775 3695.991, 1039.269 3693.982, 1035.744 3691.611 C 1031.676 3688.875, 1028.554 3681.338, 1027.085 3670.706 C 1025.977 3662.685, 1021.669 3515.344, 1022.202 3503.676 L 1022.500 3497.152 1032.128 3507.826 C 1037.424 3513.697, 1049.298 3526.600, 1058.515 3536.500 C 1080.639 3560.262, 1220.653 3701.012, 1226.074 3704.939 C 1231.177 3708.636, 1235.408 3708.945, 1237.171 3705.750 C 1238.652 3703.068, 1238.515 3708.157, 1241.017 3563 C 1243.066 3444.174, 1243.164 3442.258, 1247.553 3435.560 C 1249.870 3432.023, 1255.545 3429.763, 1263.465 3429.222 C 1267.334 3428.958, 1271.287 3428.335, 1272.250 3427.836 C 1274.276 3426.787, 1274.577 3423.479, 1272.750 3422.336 C 1271.093 3421.298, 1179.145 3421.122, 1176.250 3422.151 C 1174.728 3422.692, 1174 3423.761, 1174 3425.456 C 1174 3428.454, 1174.947 3428.722, 1187.648 3429.312 C 1203.497 3430.049, 1208.866 3435.050, 1210.931 3451 C 1211.465 3455.125, 1212.594 3492.925, 1213.441 3535 C 1214.287 3577.075, 1215.191 3615.887, 1215.448 3621.250 C 1215.706 3626.613, 1215.577 3631, 1215.162 3631 C 1214.747 3631, 1203.853 3619.869, 1190.954 3606.264 C 1178.054 3592.658, 1152.196 3565.996, 1133.492 3547.014 C 1086.678 3499.503, 1068.485 3480.721, 1040.003 3450.496 C 1005.464 3413.843, 1006.645 3415, 1003.765 3415 C 1002.379 3415, 1000.776 3415.565, 1000.203 3416.256 M 2352.500 3417.398 C 2330.657 3421.052, 2314.385 3429.226, 2301.959 3442.786 C 2295.334 3450.016, 2289.191 3461.490, 2286.852 3471 C 2284.772 3479.461, 2285.282 3498.793, 2287.836 3508.274 C 2290.350 3517.606, 2297.181 3531.100, 2303.895 3540 C 2311.412 3549.962, 2329.782 3567.232, 2347.500 3580.994 C 2383.110 3608.653, 2393.432 3623.470, 2393.480 3647 C 2393.498 3655.636, 2393.209 3657.115, 2390.299 3663.259 C 2383.990 3676.577, 2372.661 3685.292, 2357.500 3688.489 C 2337.654 3692.674, 2317.346 3687.474, 2304.861 3675.011 C 2295.862 3666.028, 2290.303 3652.704, 2288.492 3635.778 C 2288.097 3632.081, 2287.171 3628.557, 2286.435 3627.946 C 2284.128 3626.031, 2281.557 3627.354, 2280.335 3631.082 C 2278.619 3636.322, 2276.585 3686.839, 2277.900 3691.599 C 2278.475 3693.683, 2278.790 3695.543, 2278.600 3695.734 C 2277.625 3696.709, 2262.672 3692.588, 2256.535 3689.653 C 2242.323 3682.855, 2229.832 3671.063, 2203.913 3639.978 C 2183.891 3615.963, 2149.848 3572.915, 2150.206 3572.063 C 2150.368 3571.679, 2154.141 3568.171, 2158.590 3564.268 C 2171.889 3552.603, 2183.201 3538.680, 2189.277 3526.500 C 2195.233 3514.562, 2197.165 3506.906, 2197.734 3493 C 2198.344 3478.102, 2197.049 3471.700, 2190.877 3459.111 C 2180.197 3437.322, 2158.022 3424.919, 2124.897 3422.206 C 2111.572 3421.115, 1995.014 3421.255, 1993.218 3422.365 C 1991.417 3423.478, 1991.740 3426.795, 1993.750 3427.836 C 1994.713 3428.334, 1999.642 3428.967, 2004.704 3429.243 C 2014.899 3429.798, 2021.928 3432.458, 2025.194 3437 C 2028.945 3442.216, 2029.106 3447.910, 2028.735 3562.237 C 2028.410 3662.284, 2028.204 3674.206, 2026.690 3680.500 C 2023.821 3692.433, 2020.894 3694.752, 2007.514 3695.696 C 1998.220 3696.352, 1996.127 3697.501, 1997.966 3700.936 C 1998.573 3702.071, 1999.842 3703.026, 2000.785 3703.059 C 2001.728 3703.091, 2026.928 3703.166, 2056.784 3703.224 C 2093.509 3703.297, 2111.409 3702.991, 2112.119 3702.281 C 2112.697 3701.703, 2113.019 3700.168, 2112.835 3698.869 C 2112.515 3696.610, 2111.976 3696.459, 2100.440 3695.382 C 2093.807 3694.762, 2087.474 3693.968, 2086.366 3693.616 C 2082.646 3692.435, 2079.138 3687.627, 2077.528 3681.500 C 2074.919 3671.578, 2072.665 3591.655, 2074.894 3588.137 C 2075.601 3587.021, 2079.168 3586.908, 2094.546 3587.515 C 2113.105 3588.248, 2113.363 3588.288, 2115.770 3590.878 C 2117.111 3592.320, 2125.661 3604.075, 2134.771 3617 C 2180.659 3682.106, 2194.619 3696.352, 2217.701 3701.623 C 2224.194 3703.105, 2230.412 3703.412, 2254.826 3703.452 C 2281.415 3703.496, 2284.270 3703.340, 2285.412 3701.784 C 2286.598 3700.168, 2286.968 3700.180, 2291.751 3701.998 C 2306.092 3707.447, 2334.623 3710.221, 2354.304 3708.080 C 2387.903 3704.424, 2413.263 3688.584, 2425.535 3663.589 C 2432.205 3650.004, 2433.470 3644.105, 2433.383 3627 C 2433.296 3610.058, 2431.414 3601.437, 2424.978 3588.500 C 2417.176 3572.816, 2401.408 3555.290, 2380.668 3539.250 C 2374.800 3534.713, 2365.176 3527.287, 2359.279 3522.750 C 2342.660 3509.962, 2332.035 3498.872, 2327.384 3489.463 C 2323.688 3481.983, 2323.500 3481.142, 2323.510 3472.052 C 2323.519 3463.849, 2323.891 3461.706, 2326.145 3456.880 C 2329.675 3449.322, 2334.738 3443.951, 2341.962 3440.101 C 2356.415 3432.397, 2376.656 3432.225, 2391.983 3439.675 C 2404.144 3445.586, 2413.881 3459.565, 2416.263 3474.534 C 2417.645 3483.218, 2419.803 3485.725, 2422.992 3482.350 C 2424.508 3480.746, 2424.885 3476.858, 2425.830 3453.054 C 2426.554 3434.806, 2426.585 3425.205, 2425.922 3424.406 C 2424.852 3423.117, 2411.607 3419.686, 2401 3417.950 C 2390.336 3416.205, 2361.586 3415.877, 2352.500 3417.398 M 2644.145 3417.325 C 2641.774 3420.182, 2633.646 3461.222, 2634.187 3467.605 C 2634.550 3471.893, 2637.049 3474.090, 2639.676 3472.433 C 2640.597 3471.851, 2642.147 3469.034, 2643.120 3466.172 C 2646.586 3455.976, 2652.792 3449.278, 2660.882 3447.004 C 2665.652 3445.663, 2688.091 3444.262, 2716.250 3443.546 L 2739 3442.968 2738.991 3549.734 C 2738.983 3655.841, 2738.511 3674.157, 2735.517 3684.546 C 2733.081 3692.998, 2730.134 3694.735, 2716.286 3695.876 C 2710.659 3696.339, 2708.430 3696.946, 2707.622 3698.231 C 2706.788 3699.559, 2706.913 3700.342, 2708.159 3701.588 C 2709.620 3703.048, 2715.538 3703.219, 2766.642 3703.270 C 2797.914 3703.301, 2824.539 3702.990, 2825.808 3702.578 C 2828.415 3701.731, 2828.534 3698.230, 2826 3696.942 C 2825.175 3696.522, 2819.020 3695.749, 2812.323 3695.224 C 2798.522 3694.142, 2794.800 3692.644, 2791.891 3687 C 2787.886 3679.230, 2787.750 3675.376, 2787.307 3557.215 L 2786.878 3442.930 2811.189 3443.526 C 2839.131 3444.211, 2850.415 3445.251, 2859.043 3447.936 C 2870.995 3451.656, 2877 3458.471, 2877 3468.316 C 2877 3477.237, 2883.960 3479.714, 2885.352 3471.288 C 2885.696 3469.205, 2885.989 3460.075, 2886.003 3451 C 2886.029 3433.222, 2886.440 3430, 2888.679 3430 C 2892.840 3430, 2901.985 3435.806, 2909.011 3442.908 C 2918.263 3452.259, 2926.672 3464.656, 2954.181 3509.500 C 2988.611 3565.626, 2992.363 3572.503, 2995.748 3585.681 C 2997.284 3591.659, 2997.485 3597.374, 2997.382 3632 C 2997.311 3655.503, 2996.820 3674.079, 2996.168 3677.869 C 2993.894 3691.089, 2990.117 3694.445, 2976.061 3695.734 C 2969.806 3696.308, 2967.438 3696.934, 2966.623 3698.231 C 2965.788 3699.559, 2965.912 3700.341, 2967.157 3701.586 C 2968.616 3703.045, 2974.426 3703.208, 3024.640 3703.197 C 3055.363 3703.191, 3081.497 3703.144, 3082.715 3703.093 C 3083.933 3703.042, 3085.395 3702.131, 3085.963 3701.069 C 3087.820 3697.599, 3085.074 3696.359, 3073.827 3695.592 C 3059.732 3694.631, 3055.612 3693.461, 3052.054 3689.408 C 3046.870 3683.505, 3046.705 3681.924, 3046.264 3634 C 3045.800 3583.461, 3046.087 3580.560, 3052.985 3566.179 C 3061.272 3548.901, 3093.048 3495.063, 3111.523 3467 C 3124.701 3446.981, 3132.769 3438.212, 3142.375 3433.464 C 3147.143 3431.108, 3151.612 3429.706, 3155.546 3429.332 C 3164.288 3428.500, 3169.134 3424.553, 3164.250 3422.242 C 3161.547 3420.963, 3079.190 3421.410, 3077.889 3422.711 C 3075.628 3424.972, 3077.475 3427.290, 3082.961 3429.077 C 3089.628 3431.249, 3091 3432.980, 3091 3439.223 C 3091 3449.203, 3090.059 3451.191, 3057.725 3509.500 C 3046.746 3529.300, 3036.195 3548.356, 3034.279 3551.846 L 3030.795 3558.192 3028.759 3554.846 C 3021.639 3543.147, 2974.842 3460.897, 2969.951 3451.487 C 2964.154 3440.333, 2962.851 3435.361, 2964.885 3432.152 C 2965.355 3431.410, 2968.161 3430.015, 2971.120 3429.051 C 2976.582 3427.271, 2978.359 3424.959, 2976.044 3422.644 C 2975.220 3421.820, 2962.662 3421.500, 2931.200 3421.500 C 2894.543 3421.500, 2887.145 3421.264, 2885.297 3420.039 C 2883.381 3418.768, 2882.210 3418.760, 2876.297 3419.983 C 2870.822 3421.116, 2851.409 3421.460, 2776.500 3421.751 C 2678.214 3422.134, 2662.266 3421.652, 2653.049 3418.019 C 2647.033 3415.648, 2645.628 3415.539, 2644.145 3417.325 M 1930.489 3418.943 C 1923.387 3421.824, 1908.875 3422.261, 1835.116 3421.812 C 1793.325 3421.557, 1759.427 3421.741, 1758.558 3422.227 C 1757.701 3422.707, 1757 3424.193, 1757 3425.531 C 1757 3428.419, 1757.992 3428.704, 1770.239 3429.330 C 1782.148 3429.939, 1787.541 3432.581, 1791 3439.500 L 1793.500 3444.500 1793.500 3555.500 C 1793.500 3672.486, 1793.315 3677.866, 1788.963 3687.784 C 1786.622 3693.118, 1782.808 3694.895, 1771.700 3695.829 C 1765.715 3696.332, 1763.438 3696.934, 1762.622 3698.231 C 1761.795 3699.547, 1761.897 3700.325, 1763.045 3701.473 C 1764.345 3702.774, 1773.373 3703.080, 1828.028 3703.676 C 1914.453 3704.617, 1931.048 3704.627, 1934.238 3703.734 C 1939.666 3702.215, 1942.466 3691.545, 1944.976 3662.812 C 1946.088 3650.083, 1945.401 3646, 1942.147 3646 C 1939.385 3646, 1938.458 3647.646, 1936.668 3655.724 C 1934.934 3663.550, 1932.016 3670.135, 1928.637 3673.849 C 1925.775 3676.995, 1918.628 3680.515, 1912.500 3681.798 C 1899.015 3684.620, 1867.613 3684.062, 1856.746 3680.806 C 1851.450 3679.219, 1845.577 3673.588, 1843.912 3668.500 C 1842.924 3665.479, 1842.517 3652.048, 1842.250 3613.649 L 1841.898 3562.799 1871.199 3563.242 C 1895.807 3563.615, 1901.256 3563.965, 1905.220 3565.427 C 1913.575 3568.508, 1917.982 3575.714, 1917.994 3586.316 C 1917.997 3588.964, 1918.466 3592.002, 1919.035 3593.066 C 1920.208 3595.258, 1923.248 3595.620, 1924.777 3593.750 C 1925.340 3593.063, 1926.333 3584.175, 1926.984 3574 C 1927.636 3563.825, 1928.771 3550.832, 1929.506 3545.128 C 1930.242 3539.423, 1930.605 3534.135, 1930.315 3533.378 C 1929.408 3531.015, 1925.504 3531.864, 1922.437 3535.089 C 1920.822 3536.788, 1918.229 3538.842, 1916.675 3539.654 C 1912.446 3541.862, 1892.502 3543.092, 1866 3542.778 L 1842.500 3542.500 1842.500 3492.500 L 1842.500 3442.500 1853.500 3442.209 C 1859.550 3442.048, 1873.050 3442.363, 1883.500 3442.908 C 1915.907 3444.597, 1920.743 3447.450, 1923.448 3466.474 C 1924.527 3474.062, 1924.733 3474.517, 1927.227 3474.810 C 1929.021 3475.021, 1930.194 3474.506, 1930.893 3473.200 C 1931.458 3472.144, 1932.394 3464.354, 1932.972 3455.890 C 1934.138 3438.833, 1934.655 3434.002, 1936.148 3426.200 C 1937.528 3418.992, 1935.807 3416.785, 1930.489 3418.943 M 634.959 3422.211 C 632.527 3423.111, 632.396 3426.617, 634.750 3427.836 C 635.712 3428.334, 640.642 3428.967, 645.704 3429.243 C 659.858 3430.013, 666.700 3434.194, 669.162 3443.577 C 669.795 3445.989, 670.493 3479.471, 670.976 3530.500 C 671.814 3618.973, 671.772 3618.241, 677.063 3638 C 680.072 3649.233, 688.827 3666.316, 695.800 3674.556 C 706.338 3687.010, 721.507 3696.921, 738.538 3702.481 C 761.275 3709.903, 797.393 3710.944, 821.500 3704.873 C 830.562 3702.591, 845.082 3696.037, 853.698 3690.340 C 861.649 3685.083, 874.424 3672.726, 879.255 3665.619 C 885.018 3657.141, 890.606 3644.659, 893.491 3633.819 C 899.056 3612.912, 899.141 3611.488, 899.957 3526 C 900.618 3456.794, 900.927 3445.845, 902.340 3441.441 C 905.039 3433.034, 909.223 3430.279, 920.700 3429.354 C 924.990 3429.008, 929.288 3428.321, 930.250 3427.827 C 932.276 3426.788, 932.578 3423.475, 930.750 3422.345 C 930.063 3421.920, 908.125 3421.513, 882 3421.440 C 843.386 3421.333, 834.079 3421.565, 832.250 3422.677 C 829.767 3424.188, 829.585 3424.796, 830.966 3426.979 C 831.618 3428.011, 834.567 3428.652, 840.701 3429.097 C 851.721 3429.896, 857.455 3431.609, 861.009 3435.163 C 866.461 3440.615, 866.500 3441.282, 866.500 3530 C 866.500 3603.381, 866.322 3612.622, 864.714 3622.762 C 860.640 3648.443, 853.092 3663.034, 838.185 3674.042 C 808.217 3696.173, 761.612 3691.485, 739.301 3664.096 C 727.477 3649.582, 722.088 3631.598, 719.901 3599.358 C 718.185 3574.053, 719.236 3449.269, 721.225 3442.237 C 723.824 3433.050, 727.907 3430.253, 740.096 3429.313 C 749.843 3428.561, 753.333 3426.181, 749.432 3422.944 C 748.189 3421.912, 736.371 3421.626, 692.391 3421.564 C 661.881 3421.521, 636.037 3421.812, 634.959 3422.211 M 1325.940 3422.218 C 1323.755 3423.026, 1323.354 3426.243, 1325.250 3427.745 C 1325.938 3428.290, 1330.160 3428.974, 1334.633 3429.265 C 1348.496 3430.168, 1352.859 3433.756, 1354.981 3446 C 1356.503 3454.778, 1355.790 3672.117, 1354.215 3679.708 C 1351.612 3692.248, 1348.754 3694.557, 1334.333 3695.773 C 1327.786 3696.325, 1325.449 3696.917, 1324.623 3698.231 C 1323.788 3699.558, 1323.911 3700.339, 1325.146 3701.575 C 1326.590 3703.018, 1332.789 3703.196, 1384.412 3703.275 C 1437.414 3703.356, 1442.203 3703.226, 1443.766 3701.663 C 1445.077 3700.352, 1445.217 3699.566, 1444.378 3698.231 C 1443.540 3696.898, 1441.244 3696.345, 1434.395 3695.824 C 1414.169 3694.288, 1410.692 3693.086, 1407.593 3686.554 C 1404.283 3679.578, 1403.922 3665.276, 1404.237 3553.500 C 1404.575 3433.855, 1404.350 3438.407, 1410.160 3433.519 C 1413.276 3430.897, 1420.701 3429, 1427.849 3429 C 1430.462 3429, 1433.140 3428.460, 1433.800 3427.800 C 1435.343 3426.257, 1435.343 3423.330, 1433.800 3422.376 C 1432.252 3421.420, 1328.509 3421.268, 1325.940 3422.218 M 1444.977 3422.204 C 1442.771 3423.020, 1442.363 3425.963, 1444.200 3427.800 C 1444.860 3428.460, 1447.915 3429, 1450.990 3429 C 1457.447 3429, 1466.343 3431.114, 1471.974 3433.987 C 1477.281 3436.694, 1482.137 3441.896, 1485.777 3448.772 C 1487.445 3451.922, 1501.050 3484.200, 1516.011 3520.500 C 1530.971 3556.800, 1553.779 3612.150, 1566.695 3643.500 C 1579.610 3674.850, 1591.077 3701.968, 1592.178 3703.763 C 1596.170 3710.273, 1601.424 3710.460, 1605.352 3704.231 C 1608.196 3699.721, 1615.523 3683.330, 1646.805 3611.500 C 1659.979 3581.250, 1677.949 3540.525, 1686.739 3521 C 1695.528 3501.475, 1705.076 3479.875, 1707.957 3473 C 1715.785 3454.315, 1722.901 3441.047, 1727.626 3436.321 C 1732.397 3431.550, 1739.313 3429, 1747.482 3429 C 1750.297 3429, 1753.140 3428.460, 1753.800 3427.800 C 1755.334 3426.266, 1755.346 3423.332, 1753.822 3422.390 C 1751.991 3421.259, 1668.998 3421.067, 1665.250 3422.185 C 1661.855 3423.198, 1660.984 3425.584, 1663.200 3427.800 C 1663.863 3428.463, 1667.110 3429.011, 1670.450 3429.024 C 1683.898 3429.077, 1688.630 3432.091, 1687.678 3439.997 C 1686.985 3445.756, 1684.713 3451.694, 1644.767 3552.193 C 1626.470 3598.224, 1611.203 3635.574, 1610.840 3635.193 C 1609.998 3634.308, 1546.843 3467.710, 1542.486 3454.879 C 1538.349 3442.696, 1537.619 3438.208, 1539.254 3435 C 1541.158 3431.264, 1546.546 3429.003, 1553.550 3429.002 C 1556.920 3429.001, 1560.132 3428.468, 1560.800 3427.800 C 1562.348 3426.252, 1562.341 3423.329, 1560.787 3422.369 C 1559.218 3421.399, 1447.583 3421.240, 1444.977 3422.204 M 2490.940 3422.218 C 2488.755 3423.026, 2488.353 3426.243, 2490.250 3427.745 C 2490.938 3428.290, 2495.216 3428.978, 2499.758 3429.274 C 2510.586 3429.979, 2514.730 3432.068, 2517.915 3438.424 C 2520.204 3442.993, 2520.378 3444.654, 2521.254 3470.372 C 2522.433 3504.972, 2521.457 3659.982, 2519.974 3673.494 C 2518.044 3691.091, 2515.337 3694.297, 2501.381 3695.520 C 2490.774 3696.450, 2490 3696.718, 2490 3699.460 C 2490 3700.792, 2490.475 3702.176, 2491.056 3702.535 C 2491.637 3702.894, 2517.977 3703.227, 2549.589 3703.275 C 2602.424 3703.356, 2607.203 3703.226, 2608.766 3701.663 C 2611.431 3698.997, 2609.247 3696.559, 2603.898 3696.229 C 2592.083 3695.500, 2581.673 3693.939, 2578.460 3692.414 C 2573.030 3689.837, 2571.071 3684.976, 2569.904 3671.185 C 2569.305 3664.112, 2569.030 3616.875, 2569.207 3551.500 L 2569.500 3443.500 2572 3438.500 C 2575.170 3432.160, 2579.246 3430.044, 2589.737 3429.290 C 2594.007 3428.983, 2598.063 3428.287, 2598.750 3427.744 C 2600.351 3426.478, 2600.364 3423.343, 2598.772 3422.359 C 2597.207 3421.392, 2493.540 3421.256, 2490.940 3422.218 M 2078.263 3441.115 C 2076.186 3441.715, 2074.829 3442.848, 2074.478 3444.275 C 2074.177 3445.499, 2074.059 3472.749, 2074.216 3504.831 C 2074.483 3559.647, 2074.608 3563.241, 2076.299 3564.477 C 2079.642 3566.920, 2091.303 3568.500, 2106 3568.500 C 2119.842 3568.500, 2120.758 3568.373, 2126.178 3565.712 C 2137.038 3560.379, 2146.279 3547.652, 2150.655 3532 C 2153.233 3522.782, 2153.285 3493.398, 2150.740 3484 C 2144.840 3462.214, 2130.089 3446.834, 2109.955 3441.475 C 2103.815 3439.842, 2083.473 3439.611, 2078.263 3441.115" stroke="none" fill="#033470" fill-rule="evenodd"/><path d="M 1794 1704.756 C 1714.451 1797.494, 1653.086 1882.633, 1612.424 1956.674 C 1526.067 2113.925, 1514.345 2248.628, 1575.965 2375.623 C 1593.376 2411.505, 1611.656 2440.018, 1640.145 2475.730 C 1684.966 2531.916, 1729.994 2613.865, 1778.124 2726.846 C 1788.206 2750.513, 1803.644 2789.052, 1810.531 2807.750 C 1812.608 2813.387, 1814.644 2818, 1815.055 2818 C 1815.466 2818, 1818.926 2813.162, 1822.743 2807.250 C 1893.414 2697.786, 1896.910 2563.811, 1834.506 2356.500 C 1816.235 2295.802, 1792.826 2230.188, 1758.499 2143.455 C 1739.332 2095.028, 1733.976 2078.054, 1728.490 2048.349 C 1723.824 2023.085, 1722.780 2011.684, 1722.279 1980.500 C 1721.905 1957.221, 1722.169 1946.579, 1723.457 1933 C 1729.587 1868.367, 1749.558 1801.860, 1781.008 1741.345 C 1787.902 1728.081, 1799.982 1707.002, 1805.418 1698.750 L 1807.230 1696 1804.365 1696.006 C 1802.005 1696.011, 1800.178 1697.553, 1794 1704.756" stroke="none" fill="#0097dc" fill-rule="evenodd"/><path d="M 1878.720 1524.643 C 1877.599 1526.457, 1874.085 1546.836, 1872.450 1561 C 1870.390 1578.846, 1870.924 1619.933, 1873.449 1638 C 1877.493 1666.931, 1887.002 1704.976, 1897.818 1735.500 C 1910.072 1770.081, 1919.680 1793.246, 1950.490 1862.500 C 1992.269 1956.410, 2007.571 1994.344, 2024.310 2045.500 C 2061.294 2158.527, 2073.889 2264.979, 2062.941 2372 C 2051.922 2479.699, 2016.514 2584.796, 1958.161 2683 C 1928.658 2732.651, 1890.765 2782.703, 1854.719 2819.632 C 1841.670 2833, 1841.062 2833.799, 1843.470 2834.403 C 1846.487 2835.160, 1854.562 2829.980, 1880.129 2810.883 C 2053.002 2681.760, 2177.355 2537.095, 2235.495 2397.473 C 2255.725 2348.893, 2267.372 2304.784, 2272.630 2256.841 C 2274.652 2238.410, 2274.939 2197.044, 2273.163 2180 C 2268.182 2132.175, 2255.902 2089.738, 2234.916 2047.826 C 2212.594 2003.244, 2184.360 1965.685, 2143 1925.552 C 2064.539 1849.418, 2021.265 1799.200, 1977.960 1734.032 C 1935.907 1670.748, 1910.311 1617.349, 1884.050 1538.117 C 1881.428 1530.206, 1879.030 1524.143, 1878.720 1524.643" stroke="none" fill="#ec041c" fill-rule="evenodd"/><path d="M 1855.831 68.136 C 1670.247 243.493, 1492.582 387.070, 1356.500 471.660 C 1318.365 495.365, 1299.384 505.780, 1215.662 548.937 C 1082.027 617.822, 1017.689 655.602, 942.500 709.340 C 838.578 783.613, 770.629 846.260, 718.350 916 C 651.043 1005.788, 610.937 1109.096, 595.540 1232.347 C 591.850 1261.881, 590.152 1284.430, 588.808 1321.748 L 587.610 1354.996 319.555 1355.248 L 51.500 1355.500 51.249 2082.750 L 50.999 2810 599.587 2810 L 1148.176 2810 1147.601 2806.250 C 1146.871 2801.493, 1145.350 2770.822, 1143.993 2733.500 C 1143.414 2717.550, 1142.513 2701.575, 1141.992 2698 C 1137.569 2667.665, 1128.869 2506.779, 1125.904 2400.500 C 1124.953 2366.421, 1124.993 2350.956, 1126.116 2318.500 C 1130.578 2189.545, 1123.001 2071.751, 1105.466 1997.462 C 1081.595 1896.335, 1027.634 1809.491, 921.133 1700.800 C 906.404 1685.769, 905.003 1684.045, 907.133 1683.579 C 913.822 1682.115, 976.820 1677.774, 1017 1676.009 C 1046.265 1674.723, 1133.629 1674.722, 1160.500 1676.007 C 1267.364 1681.117, 1342.969 1695.112, 1409.393 1722.079 C 1415.952 1724.742, 1421.638 1726.724, 1422.028 1726.483 C 1422.418 1726.242, 1423.042 1724.122, 1423.414 1721.772 C 1424.490 1714.971, 1434.310 1675.376, 1440.469 1653 C 1485.739 1488.531, 1552.988 1334.770, 1630.462 1218.586 C 1687.836 1132.546, 1749.080 1067.093, 1818.150 1017.998 C 1831.805 1008.292, 1853.138 994.811, 1865.750 987.916 L 1872 984.500 1878.250 987.909 C 1936.873 1019.880, 1998.933 1072.089, 2052.501 1134.500 C 2141.955 1238.721, 2221.702 1381.700, 2284.805 1551 C 2305.381 1606.201, 2329.123 1680.576, 2338.595 1719.500 C 2339.532 1723.350, 2340.408 1726.639, 2340.542 1726.809 C 2340.676 1726.980, 2348.146 1724.214, 2357.143 1720.664 C 2423.570 1694.448, 2495.966 1681.130, 2599.897 1676.006 C 2626.288 1674.704, 2710.833 1674.710, 2741.014 1676.016 C 2783.499 1677.853, 2845.892 1682.413, 2848.664 1683.883 C 2849.364 1684.253, 2842.018 1692.689, 2830.275 1705 C 2694.541 1847.299, 2649.391 1938.186, 2634.549 2099 C 2629.199 2156.971, 2626.436 2251.683, 2628.847 2294.500 C 2630.257 2319.561, 2630.328 2392.467, 2628.978 2430.044 C 2625.413 2529.265, 2618.197 2659.022, 2614.437 2691.500 C 2613.610 2698.650, 2612.295 2720.475, 2611.516 2740 C 2609.952 2779.199, 2609.253 2793.141, 2608.347 2803.250 L 2607.742 2810 3154.371 2810 L 3701 2810 3701 2082.500 L 3701 1355 3429.639 1355 L 3158.279 1355 3157.648 1349.750 C 3157.301 1346.862, 3157.012 1336.850, 3157.006 1327.500 C 3156.979 1284.876, 3152.086 1228.062, 3144.388 1181 C 3118.649 1023.628, 3055.181 909.325, 2935 803.902 C 2883.587 758.803, 2801.263 698.313, 2735.500 657.315 C 2679.874 622.636, 2635.986 598.355, 2532.500 545.007 C 2440.043 497.343, 2418.873 485.274, 2361.500 447.517 C 2229.869 360.890, 2060.219 222.124, 1889.220 61.213 L 1876.162 48.925 1855.831 68.136" stroke="none" fill="#048ba1" fill-rule="evenodd"/></svg>